<svg xmlns="http://www.w3.org/2000/svg" xmlns:xlink="http://www.w3.org/1999/xlink" width="1080" zoomAndPan="magnify" viewBox="0 0 810 809.999993" height="1080" preserveAspectRatio="xMidYMid meet" version="1.0"><defs><clipPath id="a8510f09e1"><path d="M 1 37 L 810 37 L 810 773.316406 L 1 773.316406 Z M 1 37 " clip-rule="nonzero"/></clipPath><clipPath id="a6df475381"><path d="M 1 128 L 810 128 L 810 773.316406 L 1 773.316406 Z M 1 128 " clip-rule="nonzero"/></clipPath></defs><g clip-path="url(#a8510f09e1)"><path fill="#d9d9d9" d="M 809.824219 751.527344 C 809.824219 751.527344 809.824219 751.359375 809.824219 751.527344 C 809.660156 751.195312 809.660156 751.195312 809.492188 751.03125 C 809.492188 751.03125 809.328125 750.863281 809.328125 750.863281 C 809.328125 750.863281 809.164062 750.699219 809.164062 750.699219 L 766.90625 721.3125 C 766.578125 721.148438 766.246094 720.980469 765.917969 720.980469 L 755.683594 720.980469 L 755.683594 709.921875 L 774.003906 581.144531 C 774.003906 580.648438 774.003906 580.152344 773.675781 579.824219 C 773.34375 579.492188 772.847656 579.328125 772.355469 579.328125 L 723.988281 579.328125 C 722.503906 562.652344 719.367188 546.144531 714.746094 529.964844 C 713.425781 525.175781 711.773438 520.058594 708.640625 515.601562 C 705.832031 511.640625 701.707031 508.667969 695.929688 506.355469 L 655.15625 490.339844 L 652.1875 489.183594 C 654.332031 482.746094 655.488281 476.144531 655.816406 469.375 C 655.816406 467.0625 655.816406 464.421875 654.828125 462.109375 C 654.332031 460.953125 653.507812 459.796875 652.515625 458.972656 C 655.816406 457.15625 659.117188 454.84375 662.421875 452.367188 C 665.722656 454.84375 670.839844 454.84375 674.636719 453.855469 C 678.265625 452.863281 681.734375 450.882812 685.363281 447.25 C 688.003906 444.773438 689.984375 442.296875 691.308594 439.820312 C 691.636719 439.820312 691.96875 439.820312 692.296875 439.820312 C 697.414062 439.820312 702.695312 437.179688 706.164062 432.886719 C 709.628906 428.429688 711.113281 422.484375 710.453125 416.378906 C 709.960938 411.917969 708.144531 407.132812 705.335938 402.839844 C 707.8125 401.847656 709.960938 400.199219 711.445312 397.722656 C 714.085938 393.429688 713.921875 387.484375 711.28125 382.53125 C 708.472656 377.414062 703.523438 374.441406 699.890625 372.792969 C 695.929688 370.976562 691.636719 369.984375 687.511719 369.160156 C 690.316406 350.171875 682.394531 329.371094 667.371094 317.320312 C 661.265625 312.367188 654.992188 309.722656 649.050781 309.558594 C 643.109375 309.558594 636.175781 312.53125 633.367188 318.476562 C 627.261719 315.007812 620.660156 312.859375 614.714844 312.53125 C 606.792969 311.871094 599.363281 314.675781 594.910156 319.960938 C 591.441406 324.089844 589.957031 329.867188 590.78125 335.148438 C 591.441406 339.113281 593.421875 342.578125 596.230469 345.386719 C 591.113281 346.542969 585.996094 350.339844 583.355469 354.136719 C 579.722656 359.417969 579.226562 366.519531 582.03125 372.132812 C 585.003906 378.238281 591.9375 382.53125 599.859375 383.523438 C 598.871094 385.835938 598.042969 387.816406 597.21875 389.796875 L 533.339844 360.90625 L 534.824219 356.445312 C 535.15625 355.621094 534.660156 354.796875 534 354.464844 L 520.132812 348.191406 C 519.636719 348.027344 519.144531 348.027344 518.8125 348.191406 C 518.316406 348.355469 517.988281 348.6875 517.988281 349.183594 L 516.667969 353.308594 L 511.714844 351 C 512.210938 349.183594 512.539062 347.367188 512.871094 345.550781 C 513.53125 341.257812 511.21875 336.964844 507.257812 335.148438 C 499.335938 331.515625 489.429688 328.710938 479.195312 327.058594 C 475.234375 326.398438 471.273438 328.214844 469.292969 331.683594 L 454.4375 324.914062 L 456.089844 319.628906 C 456.417969 318.804688 455.921875 317.8125 454.933594 317.648438 L 448.660156 315.667969 L 436.941406 311.871094 C 436.609375 311.707031 436.113281 311.707031 435.621094 312.035156 C 435.289062 312.199219 434.960938 312.53125 434.792969 313.027344 L 414.988281 374.773438 C 414.65625 375.597656 415.152344 376.589844 415.976562 376.917969 L 434.132812 382.699219 C 434.300781 382.699219 434.464844 382.699219 434.628906 382.699219 C 434.960938 382.699219 435.125 382.699219 435.453125 382.53125 C 435.785156 382.367188 436.113281 382.039062 436.28125 381.542969 L 437.929688 376.257812 L 454.933594 379.726562 C 455.425781 387.980469 459.71875 395.410156 464.175781 398.710938 C 463.1875 402.34375 462.03125 406.304688 460.875 409.9375 C 460.875 410.105469 460.875 410.105469 460.710938 410.269531 L 446.679688 406.472656 C 445.855469 406.304688 445.195312 406.636719 444.863281 407.296875 C 425.714844 442.460938 413.003906 480.269531 407.0625 519.894531 C 405.90625 527.652344 405.082031 536.570312 409.210938 543.996094 C 414.160156 552.746094 424.558594 556.378906 431.988281 558.527344 C 456.75 565.128906 483.652344 564.304688 507.917969 556.546875 C 508.742188 566.78125 509.402344 577.183594 510.066406 587.417969 C 510.726562 597.984375 511.386719 609.046875 512.210938 619.613281 C 508.578125 622.914062 507.09375 628.691406 507.589844 632.820312 C 508.082031 637.277344 510.066406 641.242188 512.046875 644.871094 C 507.589844 662.042969 504.78125 688.292969 505.441406 708.433594 L 476.0625 708.433594 C 475.070312 708.433594 474.410156 709.261719 474.410156 710.085938 L 474.410156 721.3125 L 239.191406 721.3125 C 239.191406 721.148438 239.355469 720.980469 239.355469 720.816406 C 241.667969 711.40625 239.191406 701.996094 236.878906 692.914062 L 236.21875 690.4375 C 233.910156 681.195312 232.09375 670.628906 236.550781 662.042969 C 239.6875 656.097656 245.628906 651.640625 251.40625 647.183594 C 259.164062 641.40625 267.085938 635.460938 268.574219 625.722656 C 268.738281 624.730469 268.738281 623.738281 268.738281 622.914062 C 268.738281 609.707031 255.53125 600.460938 249.589844 596.828125 C 247.609375 595.671875 245.464844 594.519531 243.316406 593.363281 C 235.394531 589.070312 227.140625 584.445312 222.519531 577.015625 C 219.054688 571.238281 217.898438 564.140625 216.90625 557.371094 C 216.578125 555.222656 216.246094 553.078125 215.917969 551.097656 C 214.265625 542.511719 210.46875 531.617188 200.730469 527.652344 C 190.660156 523.527344 179.601562 529.304688 173.660156 536.402344 C 168.378906 542.675781 165.242188 550.601562 162.269531 558.195312 C 161.773438 559.515625 161.28125 560.835938 160.621094 562.160156 C 157.320312 570.25 153.027344 579.328125 145.269531 584.28125 C 141.472656 586.757812 137.179688 588.078125 132.722656 589.566406 C 131.402344 590.058594 130.082031 590.390625 128.761719 590.886719 C 103.175781 543.996094 65.046875 489.679688 13.214844 454.019531 C 12.886719 453.691406 12.226562 453.691406 11.730469 453.855469 C 11.234375 454.019531 10.90625 454.351562 10.738281 454.84375 C 10.246094 456 0.0117188 482.582031 1.332031 529.304688 C 2.488281 571.898438 14.207031 639.589844 62.40625 721.476562 L 45.238281 721.476562 C 44.910156 721.476562 44.578125 721.644531 44.25 721.808594 L 1.992188 750.699219 C 1.992188 750.699219 1.828125 750.699219 1.828125 750.863281 C 1.828125 750.863281 1.660156 751.03125 1.660156 751.03125 C 1.660156 751.195312 1.496094 751.195312 1.496094 751.359375 C 1.496094 751.359375 1.496094 751.527344 1.332031 751.527344 C 1.332031 751.691406 1.167969 751.855469 1.167969 752.1875 L 1.167969 771.667969 C 1.167969 772.65625 1.828125 773.316406 2.816406 773.316406 L 808.171875 773.316406 C 809 773.316406 809.824219 772.65625 809.824219 771.667969 L 809.824219 752.1875 C 809.988281 751.855469 809.988281 751.691406 809.824219 751.527344 Z M 594.742188 457.488281 C 593.753906 459.964844 594.082031 462.605469 594.25 464.917969 L 594.910156 471.191406 C 575.429688 456 558.59375 451.046875 545.222656 456.660156 C 525.25 465.082031 507.09375 475.480469 491.082031 487.699219 C 490.257812 486.214844 488.9375 485.058594 487.285156 484.5625 C 486.460938 484.234375 485.632812 484.234375 484.808594 484.234375 C 488.441406 475.8125 492.074219 467.226562 495.703125 458.808594 C 499.832031 449.230469 504.121094 439.160156 508.25 429.585938 C 508.578125 428.925781 508.25 427.933594 507.589844 427.605469 C 501.480469 423.640625 495.042969 420.671875 488.109375 418.359375 L 493.394531 400.03125 C 495.867188 398.710938 498.179688 397.0625 499.664062 394.914062 C 500.820312 393.265625 501.480469 391.117188 501.316406 388.804688 L 504.78125 389.464844 L 503.460938 393.59375 C 503.296875 394.089844 503.296875 394.585938 503.628906 394.914062 C 503.792969 395.246094 504.289062 395.574219 504.78125 395.738281 L 519.804688 398.710938 C 519.96875 398.710938 519.96875 398.710938 520.132812 398.710938 C 520.792969 398.710938 521.453125 398.214844 521.621094 397.554688 L 523.105469 393.097656 L 591.773438 406.800781 C 590.617188 411.257812 589.957031 415.550781 589.625 419.679688 C 588.636719 432.558594 592.265625 444.609375 599.035156 453.195312 C 597.054688 454.019531 595.402344 455.671875 594.742188 457.488281 Z M 464.339844 208.355469 L 750.894531 208.355469 C 751.722656 208.355469 752.382812 207.695312 752.546875 207.035156 C 752.710938 206.207031 752.214844 205.382812 751.554688 205.21875 L 713.09375 191.347656 C 711.113281 180.949219 706.328125 171.207031 699.230469 163.613281 C 688.832031 152.386719 674.964844 146.277344 659.78125 146.277344 C 659.78125 146.277344 659.613281 146.277344 659.613281 146.277344 C 658.292969 140.003906 654.003906 134.554688 648.226562 131.914062 C 642.449219 129.109375 636.339844 129.109375 630.726562 131.914062 C 620.328125 120.6875 604.152344 115.40625 589.132812 118.210938 C 574.109375 121.019531 561.070312 131.75 555.457031 145.78125 C 540.273438 138.519531 520.132812 142.976562 509.734375 156.183594 C 501.8125 166.089844 499.832031 180.785156 504.617188 193.332031 L 464.011719 205.21875 C 463.1875 205.382812 462.691406 206.207031 462.855469 207.035156 C 462.855469 207.695312 463.515625 208.355469 464.339844 208.355469 Z M 129.421875 492.984375 C 129.585938 493.148438 129.585938 493.3125 129.753906 493.476562 L 129.917969 493.644531 C 130.082031 493.808594 130.082031 493.808594 130.246094 493.972656 C 130.414062 494.136719 130.578125 494.136719 130.90625 494.136719 L 364.972656 494.136719 C 365.632812 494.136719 366.125 493.808594 366.457031 493.148438 L 377.351562 470.53125 C 377.351562 470.363281 377.515625 470.199219 377.515625 470.035156 C 377.515625 469.867188 377.515625 469.703125 377.515625 469.539062 L 353.746094 406.472656 L 434.628906 406.472656 C 435.453125 406.472656 436.113281 405.976562 436.28125 405.152344 C 436.445312 404.324219 435.949219 403.664062 435.289062 403.335938 L 418.78125 397.0625 C 418.121094 391.777344 415.648438 386.824219 412.015625 383.191406 C 406.734375 377.910156 398.644531 375.269531 391.21875 376.589844 C 384.945312 364.703125 369.757812 356.613281 357.214844 359.089844 C 350.609375 360.410156 344.503906 364.042969 339.882812 369.324219 L 297.789062 257.386719 C 303.070312 240.054688 310.335938 223.707031 319.910156 208.683594 C 330.96875 191.019531 336.746094 170.546875 336.746094 149.578125 C 336.746094 119.367188 324.859375 91.136719 303.402344 69.835938 C 281.613281 48.210938 253.058594 36.816406 222.851562 37.3125 C 193.796875 37.808594 166.5625 49.367188 145.765625 70.003906 C 129.421875 86.183594 118.691406 106.65625 114.566406 128.613281 L 13.875 128.613281 C 13.710938 128.613281 13.546875 128.613281 13.382812 128.613281 C 13.382812 128.613281 13.214844 128.613281 13.214844 128.777344 C 13.050781 128.777344 12.886719 128.941406 12.886719 128.941406 C 12.886719 128.941406 12.71875 129.109375 12.71875 129.109375 C 12.71875 129.109375 12.554688 129.273438 12.554688 129.273438 C 12.554688 129.273438 12.554688 129.273438 12.554688 129.4375 C 12.554688 129.4375 12.554688 129.4375 12.554688 129.601562 L 1.496094 152.054688 C 1.332031 152.386719 1.332031 152.882812 1.496094 153.378906 Z M 587.808594 278.519531 C 587.808594 249.960938 564.535156 226.679688 535.980469 226.679688 C 507.421875 226.679688 484.148438 249.960938 484.148438 278.519531 C 484.148438 307.082031 507.421875 330.363281 535.980469 330.363281 C 543.078125 330.363281 549.84375 328.875 556.28125 326.234375 L 574.769531 340.433594 C 575.101562 340.597656 575.429688 340.761719 575.761719 340.761719 C 576.089844 340.761719 576.421875 340.597656 576.75 340.433594 C 577.410156 340.101562 577.578125 339.277344 577.410156 338.617188 L 570.3125 317.484375 C 581.539062 307.414062 587.808594 293.378906 587.808594 278.519531 Z M 587.808594 278.519531 " fill-opacity="1" fill-rule="nonzero"/></g><path fill="#e4a117" d="M 751.554688 205.050781 L 713.09375 191.183594 C 711.113281 180.785156 706.328125 171.042969 699.230469 163.449219 C 688.832031 152.222656 674.964844 146.113281 659.78125 146.113281 C 659.613281 146.113281 659.613281 146.113281 659.449219 146.113281 C 658.128906 140.003906 653.835938 134.554688 648.058594 131.75 C 642.28125 128.941406 636.175781 128.941406 630.5625 131.75 C 620.164062 120.523438 603.988281 115.238281 588.964844 118.046875 C 573.945312 120.851562 560.90625 131.585938 555.292969 145.617188 C 540.105469 138.351562 520.132812 142.8125 509.570312 156.019531 C 501.644531 165.925781 499.664062 180.617188 504.453125 193.164062 L 463.847656 205.050781 C 463.019531 205.21875 462.527344 206.042969 462.691406 206.867188 C 462.855469 207.695312 463.515625 208.355469 464.339844 208.355469 L 750.894531 208.355469 C 751.722656 208.355469 752.382812 207.859375 752.546875 207.035156 C 752.710938 206.207031 752.214844 205.382812 751.554688 205.050781 Z M 475.894531 205.050781 L 507.257812 195.808594 C 507.753906 195.640625 508.082031 195.3125 508.25 194.980469 C 508.414062 194.488281 508.414062 193.992188 508.25 193.660156 C 503.132812 181.9375 504.78125 167.742188 512.210938 158.164062 C 522.113281 145.617188 541.425781 141.820312 555.457031 149.578125 C 555.953125 149.746094 556.449219 149.910156 556.777344 149.746094 C 557.273438 149.578125 557.601562 149.25 557.769531 148.753906 C 562.71875 135.050781 575.101562 124.320312 589.625 121.679688 C 603.988281 119.035156 619.503906 124.320312 629.078125 135.382812 C 629.570312 136.042969 630.398438 136.042969 631.058594 135.710938 C 636.011719 132.90625 641.457031 132.738281 646.574219 135.214844 C 651.691406 137.691406 655.488281 142.8125 656.3125 148.589844 C 656.476562 149.414062 657.136719 150.074219 657.964844 150.074219 C 672.65625 149.578125 686.355469 155.359375 696.589844 166.253906 C 703.355469 173.519531 707.980469 183.09375 709.792969 193.164062 C 709.960938 193.824219 710.289062 194.320312 710.785156 194.488281 L 741.15625 205.382812 L 475.894531 205.382812 Z M 688.5 631.003906 C 688.335938 631.003906 688.335938 630.839844 688.171875 630.839844 L 680.082031 628.691406 C 679.917969 628.691406 679.917969 628.691406 679.753906 628.691406 C 679.257812 628.691406 678.761719 628.691406 678.101562 628.691406 C 664.566406 628.691406 652.515625 639.753906 651.359375 653.292969 C 650.699219 659.894531 652.847656 666.171875 657.136719 670.957031 C 661.429688 675.582031 667.371094 678.222656 673.976562 678.222656 C 687.511719 678.222656 699.558594 667.160156 700.714844 653.621094 C 701.871094 644.046875 696.917969 635.132812 688.5 631.003906 Z M 249.589844 596.664062 C 247.609375 595.507812 245.464844 594.351562 243.316406 593.195312 C 235.394531 588.90625 227.140625 584.28125 222.519531 576.851562 C 219.054688 571.074219 217.898438 564.140625 216.90625 557.207031 C 216.578125 555.058594 216.246094 552.914062 215.917969 550.933594 C 214.265625 542.347656 210.46875 531.449219 200.730469 527.488281 C 190.660156 523.359375 179.601562 529.140625 173.660156 536.238281 C 168.378906 542.511719 165.242188 550.4375 162.269531 558.03125 C 161.773438 559.351562 161.28125 560.671875 160.785156 561.992188 C 157.484375 570.082031 153.191406 579.164062 145.433594 584.117188 C 141.636719 586.59375 137.34375 587.914062 132.890625 589.398438 C 131.074219 589.894531 129.421875 590.554688 127.605469 591.214844 C 127.113281 591.378906 126.78125 591.710938 126.617188 592.207031 C 126.449219 592.703125 126.449219 593.195312 126.78125 593.527344 C 163.261719 660.886719 179.273438 722.632812 179.4375 723.292969 C 179.601562 723.953125 180.261719 724.613281 181.089844 724.613281 L 237.046875 724.613281 C 237.707031 724.613281 238.367188 724.121094 238.53125 723.625 C 238.859375 722.632812 239.191406 721.644531 239.355469 720.980469 C 241.667969 711.570312 239.191406 702.160156 236.878906 693.082031 L 236.21875 690.4375 C 233.910156 681.195312 232.09375 670.628906 236.550781 662.042969 C 239.6875 656.097656 245.628906 651.640625 251.40625 647.183594 C 259.164062 641.40625 267.085938 635.460938 268.574219 625.722656 C 270.71875 610.863281 256.027344 600.460938 249.589844 596.664062 Z M 435.125 403.003906 L 418.617188 396.730469 C 417.957031 391.449219 415.480469 386.496094 411.851562 382.863281 C 406.566406 377.578125 398.480469 374.9375 391.050781 376.257812 C 384.78125 364.371094 369.59375 356.28125 357.046875 358.757812 C 349.457031 360.246094 342.523438 364.867188 337.902344 371.472656 C 337.40625 372.296875 337.570312 373.285156 338.230469 373.78125 C 339.054688 374.277344 340.046875 374.113281 340.542969 373.453125 C 344.667969 367.507812 350.941406 363.382812 357.707031 362.058594 C 369.097656 359.914062 383.457031 367.839844 388.742188 378.898438 C 389.070312 379.5625 389.894531 380.054688 390.554688 379.890625 C 397.324219 378.40625 404.753906 380.550781 409.539062 385.339844 C 412.839844 388.640625 414.988281 393.265625 415.480469 398.214844 C 415.480469 398.878906 415.976562 399.371094 416.472656 399.539062 L 425.550781 403.003906 L 351.269531 403.003906 C 350.28125 403.003906 349.621094 403.664062 349.621094 404.65625 C 349.621094 405.644531 350.28125 406.304688 351.269531 406.304688 L 434.464844 406.304688 C 435.289062 406.304688 435.949219 405.8125 436.113281 404.984375 C 436.28125 404.160156 435.949219 403.335938 435.125 403.003906 Z M 435.125 403.003906 " fill-opacity="1" fill-rule="nonzero"/><path fill="#ca8a04" d="M 696.589844 621.429688 C 696.589844 621.757812 695.929688 628.527344 690.648438 632.820312 C 688.003906 634.800781 684.871094 635.957031 681.074219 635.957031 C 680.082031 635.957031 678.925781 635.957031 677.773438 635.792969 C 677.277344 635.792969 676.945312 635.460938 676.617188 634.964844 C 676.285156 634.636719 676.285156 634.140625 676.449219 633.644531 C 676.617188 633.152344 679.917969 622.417969 694.773438 619.777344 C 695.269531 619.613281 695.765625 619.777344 696.257812 620.109375 C 696.425781 620.273438 696.589844 620.769531 696.589844 621.429688 Z M 143.78125 619.613281 C 119.023438 567.9375 76.4375 497.109375 13.382812 453.691406 C 12.886719 453.359375 12.390625 453.359375 11.894531 453.523438 C 11.398438 453.691406 11.070312 454.019531 10.90625 454.515625 C 10.410156 455.671875 0.175781 482.25 1.496094 528.972656 C 2.652344 571.898438 14.535156 640.578125 64.054688 723.789062 C 64.386719 724.285156 64.882812 724.613281 65.542969 724.613281 L 181.253906 724.613281 C 181.75 724.613281 182.242188 724.449219 182.574219 723.953125 C 182.902344 723.457031 183.070312 722.964844 182.902344 722.46875 C 182.574219 721.972656 170.523438 675.582031 143.78125 619.613281 Z M 655.488281 490.507812 L 652.351562 489.351562 C 654.496094 482.910156 655.652344 476.308594 655.984375 469.539062 C 655.984375 467.226562 655.984375 464.585938 654.992188 462.273438 C 653.835938 459.796875 651.527344 457.980469 649.214844 457.652344 C 648.886719 457.652344 648.554688 457.652344 648.226562 457.816406 C 644.757812 459.46875 641.292969 460.789062 637.992188 461.777344 C 637.332031 461.945312 636.835938 462.605469 636.835938 463.265625 L 636.835938 463.429688 C 636.835938 465.082031 636.671875 466.730469 636.671875 468.546875 C 627.921875 469.207031 619.171875 468.054688 610.917969 465.082031 L 611.25 460.457031 C 611.25 459.796875 610.917969 459.304688 610.425781 458.972656 C 610.09375 458.808594 609.765625 458.640625 609.433594 458.3125 C 607.453125 456.992188 605.472656 455.503906 603.65625 453.523438 C 603.328125 453.195312 602.996094 453.027344 602.667969 453.027344 L 602.171875 453.027344 C 598.871094 452.367188 596.0625 455.011719 595.074219 457.652344 C 594.082031 460.128906 594.414062 462.769531 594.578125 465.082031 L 595.898438 479.28125 C 595.734375 479.445312 595.570312 479.609375 595.402344 479.941406 C 559.253906 572.726562 553.3125 664.023438 553.148438 710.085938 C 553.148438 710.582031 553.3125 710.910156 553.640625 711.242188 C 553.972656 711.570312 554.300781 711.738281 554.796875 711.738281 L 563.214844 711.738281 C 564.042969 711.738281 564.703125 711.078125 564.867188 710.25 L 583.023438 582.796875 L 636.835938 582.796875 C 637.660156 582.796875 638.320312 582.300781 638.484375 581.476562 C 641.292969 567.277344 644.429688 551.921875 647.5625 537.0625 C 650.699219 522.203125 653.835938 506.6875 656.644531 492.488281 C 656.644531 491.496094 656.148438 490.835938 655.488281 490.507812 Z M 655.488281 490.507812 " fill-opacity="1" fill-rule="nonzero"/><g clip-path="url(#a6df475381)"><path fill="#737373" d="M 809.824219 751.527344 C 809.824219 751.527344 809.824219 751.359375 809.824219 751.527344 C 809.660156 751.195312 809.660156 751.195312 809.492188 751.03125 C 809.492188 751.03125 809.328125 750.863281 809.328125 750.863281 C 809.328125 750.863281 809.164062 750.699219 809.164062 750.699219 L 766.90625 721.3125 C 766.578125 721.148438 766.246094 720.980469 765.917969 720.980469 L 755.683594 720.980469 L 755.683594 709.921875 L 774.003906 581.144531 C 774.003906 580.648438 774.003906 580.152344 773.675781 579.824219 C 773.34375 579.492188 772.847656 579.328125 772.355469 579.328125 L 723.988281 579.328125 C 722.503906 562.652344 719.367188 546.144531 714.746094 529.964844 C 713.425781 525.175781 711.773438 520.058594 708.640625 515.601562 C 705.832031 511.640625 701.707031 508.667969 695.929688 506.355469 L 655.15625 490.339844 C 654.332031 490.011719 653.339844 490.339844 653.011719 491.332031 C 652.679688 492.15625 653.011719 493.148438 654 493.476562 L 694.773438 509.492188 C 699.890625 511.472656 703.523438 514.113281 705.996094 517.582031 C 708.804688 521.542969 710.289062 526.332031 711.609375 530.957031 C 716.230469 546.804688 719.203125 563.148438 720.6875 579.492188 L 655.324219 579.492188 C 659.285156 575.53125 664.234375 570.414062 666.382812 566.617188 C 667.539062 564.46875 668.691406 561.828125 668.199219 559.1875 C 667.867188 556.875 666.546875 554.894531 664.234375 553.242188 C 663.742188 552.914062 663.410156 552.582031 662.914062 552.253906 C 662.253906 551.757812 661.59375 551.261719 660.933594 550.765625 C 670.34375 539.042969 678.265625 526.332031 684.703125 512.792969 C 685.035156 511.96875 684.703125 510.976562 683.878906 510.648438 C 683.054688 510.316406 682.0625 510.648438 681.734375 511.472656 C 675.128906 525.34375 666.878906 538.382812 657.136719 550.4375 C 656.808594 550.765625 656.644531 551.425781 656.808594 551.921875 C 656.972656 552.417969 657.304688 552.914062 657.796875 553.078125 C 658.953125 553.574219 659.777344 554.234375 660.769531 555.058594 C 661.265625 555.390625 661.761719 555.886719 662.253906 556.214844 C 663.742188 557.371094 664.730469 558.691406 664.894531 560.011719 C 665.226562 561.828125 664.402344 563.644531 663.410156 565.460938 C 661.429688 569.09375 655.816406 574.871094 652.019531 578.667969 C 651.527344 579.164062 651.03125 579.492188 650.699219 579.988281 L 581.207031 579.988281 C 580.382812 579.988281 579.722656 580.648438 579.558594 581.476562 L 562.058594 704.140625 L 561.398438 708.929688 L 508.082031 708.929688 C 507.589844 688.789062 510.230469 662.539062 514.851562 645.53125 C 515.015625 645.203125 514.851562 644.707031 514.6875 644.378906 C 512.707031 640.746094 510.890625 636.949219 510.394531 632.984375 C 510.0625 629.519531 511.386719 624.566406 514.519531 622.253906 C 515.015625 621.925781 515.179688 621.429688 515.179688 620.769531 C 514.355469 610.035156 513.695312 598.644531 512.871094 587.75 C 512.210938 576.851562 511.550781 565.460938 510.558594 554.730469 C 510.558594 554.234375 510.230469 553.738281 509.734375 553.410156 C 509.238281 553.078125 508.742188 553.078125 508.25 553.242188 C 483.984375 561.5 457.078125 562.488281 432.152344 555.886719 C 425.386719 554.070312 415.648438 550.765625 411.355469 543.007812 C 407.722656 536.570312 408.550781 528.148438 409.703125 521.050781 C 415.480469 482.25 427.863281 445.105469 446.515625 410.765625 L 459.222656 414.230469 C 458.5625 416.542969 457.902344 418.6875 457.242188 421 C 455.097656 419.84375 453.117188 418.523438 451.136719 417.039062 C 450.476562 416.542969 449.320312 416.707031 448.824219 417.367188 C 448.328125 418.027344 448.328125 419.183594 449.15625 419.679688 C 451.632812 421.496094 454.105469 423.148438 456.75 424.46875 C 456.914062 424.796875 457.410156 425.128906 457.738281 425.292969 C 457.902344 425.292969 458.070312 425.292969 458.070312 425.292969 C 458.234375 425.292969 458.234375 425.292969 458.398438 425.292969 C 465.332031 428.429688 472.757812 430.246094 480.351562 430.246094 C 483.820312 430.246094 487.285156 429.914062 490.585938 429.253906 C 491.410156 429.089844 492.070312 428.265625 491.90625 427.273438 C 491.742188 426.449219 490.917969 425.789062 489.925781 425.953125 C 488.441406 426.285156 486.957031 426.449219 485.46875 426.613281 L 486.625 422.320312 C 492.734375 424.300781 498.511719 427.109375 503.957031 430.410156 C 499.996094 439.65625 496.035156 449.066406 491.90625 458.3125 C 487.78125 467.886719 483.324219 477.957031 479.363281 487.535156 C 479.03125 488.359375 479.363281 489.183594 480.023438 489.679688 C 480.683594 490.011719 481.671875 489.847656 482.167969 489.183594 C 482.828125 488.195312 484.3125 488.195312 485.46875 488.523438 C 486.625 488.855469 487.617188 490.175781 487.617188 491.332031 C 487.617188 491.992188 487.945312 492.488281 488.605469 492.816406 C 488.769531 492.984375 489.101562 492.984375 489.265625 492.984375 C 489.597656 492.984375 489.925781 492.816406 490.257812 492.652344 C 506.433594 479.941406 525.085938 469.207031 545.554688 460.625 C 558.429688 455.175781 574.769531 460.625 594.414062 476.472656 C 595.074219 476.96875 596.230469 476.96875 596.722656 476.308594 C 597.382812 475.648438 597.21875 474.492188 596.558594 473.996094 C 575.925781 457.15625 558.429688 451.707031 544.398438 457.652344 C 524.425781 466.070312 506.269531 476.472656 490.257812 488.691406 C 489.429688 487.203125 488.109375 486.046875 486.460938 485.554688 C 485.632812 485.222656 484.808594 485.222656 483.984375 485.222656 C 487.617188 476.804688 491.246094 468.21875 494.878906 459.796875 C 499.003906 450.222656 503.296875 440.152344 507.421875 430.574219 C 507.753906 429.914062 507.421875 428.925781 506.761719 428.59375 C 500.65625 424.632812 494.21875 421.660156 487.285156 419.347656 L 492.566406 401.023438 C 495.042969 399.703125 497.355469 398.050781 498.839844 395.90625 C 499.996094 394.253906 500.65625 392.109375 500.492188 389.796875 L 590.78125 407.792969 C 589.625 412.25 588.964844 416.542969 588.636719 420.671875 C 587.316406 438.171875 594.414062 454.351562 606.628906 461.945312 C 606.628906 461.945312 606.792969 462.109375 606.957031 462.109375 L 606.792969 464.585938 C 605.472656 464.089844 604.316406 463.429688 602.996094 462.769531 C 602.171875 462.273438 601.179688 462.605469 600.851562 463.429688 C 600.519531 464.253906 600.6875 465.246094 601.511719 465.578125 C 603.492188 466.566406 605.472656 467.558594 607.617188 468.382812 C 607.617188 468.382812 607.785156 468.382812 607.785156 468.382812 C 615.210938 471.355469 623.132812 472.839844 631.222656 472.839844 C 633.203125 472.839844 635.351562 472.675781 637.496094 472.511719 C 640.464844 472.179688 643.273438 471.683594 646.242188 471.023438 C 647.070312 470.859375 647.730469 469.867188 647.398438 469.042969 C 647.234375 468.21875 646.242188 467.558594 645.417969 467.886719 C 643.4375 468.382812 641.292969 468.878906 639.144531 469.042969 C 639.144531 467.886719 639.3125 466.566406 639.3125 465.410156 C 646.738281 463.265625 654.332031 459.304688 661.925781 453.359375 C 665.226562 455.835938 670.34375 455.835938 674.140625 454.84375 C 677.773438 453.855469 681.238281 451.875 684.871094 448.242188 C 687.511719 445.765625 689.492188 443.289062 690.8125 440.8125 C 691.140625 440.8125 691.472656 440.8125 691.800781 440.8125 C 696.917969 440.8125 702.203125 438.171875 705.667969 433.878906 C 709.132812 429.421875 710.621094 423.476562 709.960938 417.367188 C 709.464844 412.910156 707.648438 408.121094 704.84375 403.828125 C 707.320312 402.839844 709.464844 401.1875 710.949219 398.710938 C 713.589844 394.417969 713.425781 388.476562 710.785156 383.523438 C 707.980469 378.40625 703.027344 375.433594 699.394531 373.78125 C 695.433594 371.964844 691.140625 370.976562 687.015625 370.148438 C 689.820312 351.164062 681.898438 330.363281 666.878906 318.308594 C 660.769531 313.355469 654.496094 310.714844 648.554688 310.550781 C 642.613281 310.550781 635.679688 313.523438 632.875 319.464844 C 626.765625 316 620.164062 313.851562 614.222656 313.523438 C 606.296875 312.863281 598.871094 315.667969 594.414062 320.949219 C 590.945312 325.078125 589.460938 330.855469 590.285156 336.140625 C 590.945312 340.101562 592.929688 343.570312 595.734375 346.375 C 590.617188 347.53125 585.5 351.328125 582.859375 355.125 C 579.226562 360.410156 578.730469 367.507812 581.539062 373.121094 C 584.507812 379.230469 591.441406 383.523438 599.367188 384.511719 C 598.375 386.824219 597.550781 388.804688 596.722656 390.789062 L 510.890625 351.660156 C 511.386719 349.84375 511.714844 348.027344 512.046875 346.210938 C 512.707031 341.917969 510.394531 337.625 506.433594 335.808594 C 498.511719 332.179688 488.605469 329.371094 478.371094 327.71875 C 474.410156 327.058594 470.449219 328.875 468.46875 332.34375 L 452.292969 324.914062 C 451.796875 324.75 451.464844 324.75 450.972656 324.914062 C 450.476562 325.078125 450.144531 325.410156 450.144531 325.902344 L 434.464844 374.277344 C 434.300781 374.773438 434.300781 375.269531 434.628906 375.597656 C 434.792969 375.929688 435.289062 376.257812 435.785156 376.425781 L 454.273438 380.054688 C 454.765625 388.3125 459.058594 395.742188 463.515625 399.042969 C 462.527344 402.675781 461.371094 406.636719 460.214844 410.269531 C 460.214844 410.433594 460.214844 410.433594 460.050781 410.597656 L 446.019531 406.800781 C 445.195312 406.636719 444.535156 406.96875 444.203125 407.628906 C 425.054688 442.792969 412.34375 480.601562 406.402344 520.222656 C 405.246094 527.984375 404.421875 536.898438 408.550781 544.328125 C 413.5 553.078125 423.898438 556.710938 431.328125 558.855469 C 456.089844 565.460938 482.992188 564.636719 507.257812 556.875 C 508.082031 567.113281 508.746094 577.511719 509.40625 587.75 C 510.066406 598.316406 510.726562 609.375 511.550781 619.941406 C 507.917969 623.246094 506.433594 629.023438 506.929688 633.152344 C 507.421875 637.609375 509.40625 641.570312 511.386719 645.203125 C 506.929688 662.371094 504.121094 688.625 504.78125 708.765625 L 475.402344 708.765625 C 474.410156 708.765625 473.75 709.589844 473.75 710.417969 L 473.75 721.644531 L 45.238281 721.644531 C 44.910156 721.644531 44.578125 721.808594 44.25 721.972656 L 1.992188 750.699219 C 1.992188 750.699219 1.828125 750.699219 1.828125 750.863281 C 1.828125 750.863281 1.660156 751.03125 1.660156 751.03125 C 1.660156 751.195312 1.496094 751.195312 1.496094 751.359375 C 1.496094 751.359375 1.496094 751.527344 1.332031 751.527344 C 1.332031 751.691406 1.167969 751.855469 1.167969 752.1875 L 1.167969 771.667969 C 1.167969 772.65625 1.828125 773.316406 2.816406 773.316406 L 808.171875 773.316406 C 809 773.316406 809.824219 772.65625 809.824219 771.667969 L 809.824219 752.1875 C 809.988281 751.855469 809.988281 751.691406 809.824219 751.527344 Z M 636.503906 468.546875 C 627.757812 469.207031 619.007812 468.054688 610.753906 465.082031 L 610.917969 462.933594 C 615.871094 465.246094 621.484375 466.402344 627.425781 466.402344 C 630.398438 466.402344 633.535156 466.070312 636.671875 465.410156 C 636.503906 466.402344 636.503906 467.558594 636.503906 468.546875 Z M 690.480469 433.710938 C 689.492188 437.511719 687.179688 441.140625 683.054688 444.9375 C 679.753906 448.242188 676.78125 450.058594 673.644531 450.71875 C 670.34375 451.542969 665.886719 451.707031 663.574219 449.230469 C 662.914062 448.570312 661.925781 448.570312 661.265625 449.066406 C 653.339844 455.339844 645.417969 459.632812 637.660156 461.613281 C 637.660156 461.613281 637.496094 461.613281 637.496094 461.613281 C 637 461.777344 636.503906 461.777344 636.011719 461.945312 C 626.601562 463.925781 617.191406 462.769531 609.929688 458.640625 C 609.597656 458.476562 609.269531 458.3125 608.9375 457.980469 C 597.714844 451.046875 591.277344 436.023438 592.597656 419.84375 C 592.925781 415.882812 593.585938 411.753906 594.742188 407.296875 L 596.558594 407.628906 L 596.230469 408.617188 C 596.0625 408.949219 596.0625 409.445312 596.394531 409.9375 C 596.558594 410.269531 596.890625 410.597656 597.382812 410.765625 L 605.308594 413.242188 C 605.472656 413.242188 605.636719 413.242188 605.800781 413.242188 C 606.464844 413.242188 607.125 412.746094 607.453125 412.085938 L 613.230469 394.253906 C 613.394531 393.925781 613.394531 393.429688 613.066406 392.933594 C 612.734375 392.4375 612.570312 392.273438 612.074219 392.109375 L 604.152344 389.632812 C 603.820312 389.464844 603.328125 389.632812 602.832031 389.796875 C 602.335938 389.960938 602.171875 390.292969 602.007812 390.789062 L 601.675781 391.777344 L 600.191406 391.117188 C 601.179688 388.804688 602.335938 386.164062 603.492188 383.359375 C 603.820312 383.027344 603.988281 382.699219 603.988281 382.203125 C 604.480469 380.882812 605.140625 379.726562 605.636719 378.40625 C 607.785156 378.570312 609.929688 378.40625 611.910156 377.910156 C 612.074219 380.882812 613.726562 384.019531 616.367188 386 C 619.171875 387.980469 622.804688 388.972656 627.261719 389.136719 C 634.523438 389.136719 641.953125 387.320312 648.226562 385.007812 C 648.226562 385.007812 648.226562 385.175781 648.058594 385.175781 C 646.738281 387.652344 646.410156 390.292969 647.234375 392.601562 C 648.886719 397.0625 654.332031 398.546875 658.457031 397.390625 C 660.273438 396.894531 662.089844 396.070312 663.742188 395.078125 C 662.089844 400.527344 660.933594 406.304688 660.769531 412.085938 C 660.605469 414.5625 660.605469 417.367188 661.59375 420.007812 C 662.75 423.148438 664.894531 425.292969 667.703125 426.117188 C 670.671875 426.945312 674.800781 425.953125 676.617188 423.148438 C 677.441406 421.824219 678.925781 420.835938 680.742188 420.503906 C 682.886719 420.175781 685.363281 420.671875 686.851562 421.992188 C 690.8125 424.960938 691.472656 429.914062 690.480469 433.710938 Z M 600.027344 408.289062 L 603.820312 396.402344 L 604.316406 394.914062 L 604.648438 393.757812 L 609.433594 395.246094 L 604.648438 409.9375 Z M 510.558594 354.300781 L 597.550781 393.925781 L 600.6875 395.410156 L 597.550781 404.820312 L 500.324219 385.503906 C 500.160156 385.175781 500.160156 385.007812 499.996094 384.679688 C 498.839844 382.039062 496.695312 379.726562 493.394531 377.414062 C 490.917969 375.597656 488.441406 374.113281 485.632812 372.957031 C 488.605469 372.460938 491.410156 371.472656 493.394531 369.820312 C 493.558594 369.984375 493.722656 370.148438 493.886719 370.148438 C 495.539062 371.304688 497.847656 371.800781 499.664062 371.140625 C 502.472656 370.148438 504.121094 367.839844 505.277344 365.691406 C 507.753906 361.730469 509.402344 357.933594 510.558594 354.300781 Z M 471.769531 333.5 C 473.089844 331.1875 475.730469 330.03125 478.371094 330.363281 C 488.277344 331.847656 498.015625 334.652344 505.609375 338.121094 C 508.25 339.277344 509.734375 342.082031 509.238281 345.054688 C 508.414062 351.328125 506.101562 357.601562 502.636719 363.875 C 501.644531 365.527344 500.492188 367.34375 498.839844 367.839844 C 498.015625 368.167969 496.859375 367.839844 496.199219 367.34375 C 495.867188 367.179688 495.867188 366.847656 495.867188 366.683594 C 495.867188 366.023438 495.539062 365.363281 494.878906 365.03125 C 495.207031 364.867188 495.375 364.535156 495.375 364.207031 L 499.996094 344.890625 C 500.160156 344.066406 499.664062 343.074219 498.839844 342.910156 C 498.015625 342.742188 497.023438 343.238281 496.859375 344.066406 L 492.238281 363.382812 C 492.070312 364.207031 492.566406 365.03125 493.226562 365.195312 C 493.0625 365.363281 492.898438 365.363281 492.898438 365.527344 C 491.082031 368.664062 484.480469 370.148438 480.1875 369.324219 C 476.226562 368.5 472.925781 364.867188 472.757812 361.234375 C 472.757812 361.070312 472.757812 360.90625 472.757812 360.90625 C 473.417969 360.90625 474.078125 360.410156 474.410156 359.582031 L 479.195312 340.597656 C 479.363281 339.773438 478.867188 338.78125 478.042969 338.617188 C 477.214844 338.453125 476.226562 338.945312 476.0625 339.773438 L 471.273438 358.757812 C 471.109375 359.089844 471.273438 359.253906 471.273438 359.582031 C 470.613281 359.582031 469.953125 360.078125 469.789062 360.738281 C 469.625 360.90625 469.128906 361.070312 468.300781 361.070312 C 467.3125 361.070312 466.652344 360.738281 466.488281 360.574219 C 465.660156 359.75 465.496094 358.097656 465.660156 356.613281 C 465.828125 347.53125 467.808594 340.101562 471.769531 333.5 Z M 438.589844 372.957031 L 453.117188 328.050781 L 467.476562 334.488281 C 464.175781 340.929688 462.527344 348.027344 461.863281 356.445312 C 461.699219 358.59375 461.863281 361.070312 463.679688 363.050781 C 465.167969 364.535156 467.808594 364.703125 469.625 364.371094 C 469.625 364.371094 469.625 364.371094 469.789062 364.371094 C 470.117188 365.363281 470.613281 366.351562 471.273438 367.34375 C 470.945312 367.179688 470.613281 367.179688 470.285156 367.011719 C 470.117188 367.011719 469.953125 367.011719 469.625 367.011719 C 467.476562 367.179688 465.167969 368.996094 465.167969 371.304688 C 465.167969 373.121094 466.320312 374.773438 466.980469 375.761719 C 468.136719 377.25 469.457031 378.40625 470.777344 379.5625 Z M 463.847656 410.929688 C 465.167969 406.800781 466.488281 402.34375 467.476562 398.382812 C 467.640625 397.722656 467.3125 396.894531 466.652344 396.566406 C 462.855469 394.253906 458.730469 387.652344 458.070312 380.222656 L 474.90625 383.523438 C 475.402344 388.144531 476.226562 390.953125 479.691406 393.757812 C 480.351562 394.253906 481.507812 394.253906 482.003906 393.429688 C 482.5 392.769531 482.5 391.613281 481.671875 391.117188 C 478.867188 388.804688 478.371094 386.824219 477.875 380.386719 C 477.875 379.726562 477.382812 379.230469 476.886719 378.898438 C 473.914062 377.746094 471.4375 375.761719 469.625 373.285156 C 468.796875 372.296875 468.46875 371.472656 468.46875 370.8125 C 468.46875 370.480469 469.128906 370.148438 469.625 369.984375 C 477.214844 372.460938 485.140625 374.9375 491.742188 379.726562 C 494.546875 381.707031 496.363281 383.6875 497.1875 385.835938 C 498.34375 388.3125 498.179688 391.117188 496.859375 392.769531 C 494.546875 395.90625 489.925781 398.382812 486.128906 398.382812 C 485.304688 398.382812 484.480469 399.207031 484.480469 400.03125 C 484.480469 400.859375 485.304688 401.683594 486.128906 401.683594 C 487.121094 401.683594 488.277344 401.519531 489.265625 401.1875 L 482.332031 425.789062 C 474.90625 426.117188 467.3125 424.46875 460.378906 421.496094 C 461.535156 418.195312 462.691406 414.394531 463.847656 410.929688 Z M 651.527344 582.796875 L 770.539062 582.796875 L 752.710938 708.269531 L 574.109375 708.269531 L 591.9375 582.796875 Z M 752.546875 711.570312 L 752.546875 721.148438 L 573.945312 721.148438 L 573.945312 711.570312 Z M 582.859375 582.796875 L 588.636719 582.796875 L 570.808594 708.269531 L 565.03125 708.269531 Z M 477.214844 711.570312 L 570.480469 711.570312 L 570.480469 721.148438 L 477.214844 721.148438 Z M 45.734375 724.449219 L 765.585938 724.449219 L 803.054688 750.535156 L 8.265625 750.535156 Z M 806.6875 769.851562 L 4.632812 769.851562 L 4.632812 753.835938 L 806.6875 753.835938 Z M 615.375 429.421875 C 615.542969 429.421875 615.707031 429.585938 616.035156 429.585938 C 616.695312 429.585938 617.355469 429.253906 617.523438 428.59375 C 617.851562 427.769531 617.523438 426.777344 616.53125 426.449219 C 613.726562 425.292969 611.746094 423.3125 609.765625 419.84375 C 618.679688 414.394531 625.941406 406.304688 630.066406 396.730469 C 630.398438 395.90625 630.066406 394.914062 629.242188 394.585938 C 628.417969 394.253906 627.425781 394.585938 627.097656 395.410156 C 622.96875 404.820312 615.871094 412.746094 606.792969 417.863281 C 605.96875 418.359375 605.800781 419.183594 606.132812 420.007812 C 607.785156 422.980469 610.425781 427.4375 615.375 429.421875 Z M 641.789062 436.519531 L 611.746094 433.878906 C 611.25 433.878906 610.753906 434.042969 610.425781 434.375 C 610.09375 434.703125 609.929688 435.363281 610.09375 435.859375 C 610.753906 439.160156 611.414062 442.460938 612.902344 445.601562 C 614.054688 448.242188 616.203125 451.707031 620 453.6875 C 621.8125 454.679688 623.960938 455.175781 626.105469 455.175781 C 629.40625 455.175781 632.707031 454.183594 635.515625 452.039062 C 640.464844 448.40625 642.613281 441.96875 643.4375 438.5 C 643.601562 438.003906 643.4375 437.511719 643.109375 437.179688 C 642.777344 436.847656 642.28125 436.519531 641.789062 436.519531 Z M 633.367188 449.398438 C 629.738281 452.039062 624.949219 452.535156 621.484375 450.71875 C 625.445312 447.085938 631.058594 445.433594 636.503906 446.261719 C 635.515625 447.582031 634.523438 448.570312 633.367188 449.398438 Z M 638.15625 443.289062 C 631.386719 441.800781 623.792969 443.949219 618.679688 448.738281 C 617.355469 447.25 616.367188 445.601562 615.707031 444.277344 C 614.714844 442.132812 614.054688 439.820312 613.5625 437.34375 L 639.476562 439.492188 C 639.144531 440.8125 638.816406 441.96875 638.15625 443.289062 Z M 684.042969 425.457031 C 676.617188 428.925781 670.671875 435.199219 667.703125 442.792969 C 667.371094 443.617188 667.703125 444.609375 668.527344 444.9375 C 668.691406 445.105469 669.023438 445.105469 669.1875 445.105469 C 669.847656 445.105469 670.507812 444.773438 670.671875 444.113281 C 673.480469 437.34375 678.761719 431.566406 685.363281 428.429688 C 686.191406 428.097656 686.519531 427.109375 686.191406 426.285156 C 685.859375 425.292969 684.871094 424.960938 684.042969 425.457031 Z M 677.277344 642.5625 C 677.441406 642.5625 677.441406 642.5625 677.277344 642.5625 C 677.441406 642.5625 677.441406 642.5625 677.277344 642.5625 C 677.441406 642.5625 677.441406 642.5625 677.277344 642.5625 C 680.082031 642.5625 682.722656 641.40625 684.703125 639.425781 C 685.363281 638.765625 685.363281 637.773438 684.703125 637.113281 C 684.042969 636.453125 683.054688 636.453125 682.394531 637.113281 C 681.566406 637.9375 680.414062 638.597656 679.421875 638.929688 L 680.414062 627.042969 C 680.414062 626.214844 679.753906 625.390625 678.925781 625.226562 C 678.101562 625.0625 677.277344 625.886719 677.109375 626.710938 L 676.121094 638.929688 C 674.964844 638.597656 673.976562 637.9375 673.316406 637.113281 C 672.820312 636.453125 671.664062 636.289062 671.003906 636.78125 C 670.34375 637.277344 670.179688 638.433594 670.671875 639.09375 C 671.996094 641.238281 674.46875 642.5625 677.277344 642.5625 Z M 635.183594 495.953125 C 626.269531 498.101562 616.695312 496.613281 608.9375 491.660156 C 608.113281 491.167969 607.125 491.496094 606.628906 492.15625 C 606.132812 492.984375 606.464844 493.972656 607.125 494.46875 C 613.230469 498.265625 620.164062 500.246094 627.261719 500.246094 C 630.234375 500.246094 633.203125 499.917969 636.011719 499.257812 C 636.835938 499.089844 637.496094 498.101562 637.164062 497.273438 C 637 496.285156 636.175781 495.789062 635.183594 495.953125 Z M 481.34375 367.839844 C 481.507812 367.839844 481.671875 367.839844 481.839844 367.839844 C 482.5 367.839844 483.160156 367.34375 483.488281 366.683594 L 490.089844 343.570312 C 490.421875 342.742188 489.761719 341.753906 488.9375 341.589844 C 488.109375 341.421875 487.121094 341.917969 486.957031 342.742188 L 480.351562 365.859375 C 480.023438 366.683594 480.519531 367.671875 481.34375 367.839844 Z M 564.703125 529.304688 C 565.195312 529.304688 565.691406 529.140625 566.023438 528.808594 C 566.351562 528.480469 566.515625 527.816406 566.351562 527.324219 C 561.566406 507.179688 560.90625 485.882812 564.207031 465.578125 C 564.371094 464.75 563.710938 463.761719 562.886719 463.761719 C 562.058594 463.59375 561.070312 464.253906 561.070312 465.082031 C 557.769531 485.222656 558.429688 506.355469 562.71875 526.332031 C 557.109375 527.15625 551.992188 532.769531 551 537.890625 C 550.175781 541.851562 551.496094 545.980469 552.652344 549.28125 L 560.078125 572.394531 C 560.246094 573.054688 560.90625 573.550781 561.730469 573.550781 C 561.894531 573.550781 562.058594 573.550781 562.226562 573.550781 C 563.050781 573.21875 563.546875 572.394531 563.214844 571.402344 L 555.789062 548.289062 C 554.796875 545.152344 553.640625 541.6875 554.300781 538.550781 C 555.292969 533.597656 560.574219 528.972656 564.703125 529.304688 Z M 509.898438 502.0625 C 509.074219 501.898438 508.25 502.558594 508.082031 503.550781 C 506.761719 517.582031 506.597656 531.617188 507.589844 545.648438 C 507.589844 546.472656 508.414062 547.132812 509.238281 547.132812 C 509.238281 547.132812 509.238281 547.132812 509.402344 547.132812 C 510.394531 547.132812 511.054688 546.308594 510.890625 545.320312 C 509.898438 531.449219 510.066406 517.582031 511.386719 503.714844 C 511.386719 502.886719 510.726562 502.0625 509.898438 502.0625 Z M 502.636719 519.726562 C 501.8125 519.726562 500.984375 520.390625 500.820312 521.214844 C 500.160156 530.292969 501.152344 539.539062 503.296875 548.457031 C 503.460938 549.28125 504.121094 549.777344 504.949219 549.777344 C 505.113281 549.777344 505.277344 549.777344 505.277344 549.777344 C 506.101562 549.609375 506.761719 548.621094 506.433594 547.796875 C 504.289062 539.210938 503.460938 530.460938 503.957031 521.710938 C 504.121094 520.554688 503.460938 519.726562 502.636719 519.726562 Z M 476.722656 492.324219 C 466.15625 506.6875 454.273438 520.058594 441.398438 532.277344 C 440.738281 532.9375 440.738281 533.925781 441.398438 534.585938 C 441.726562 534.917969 442.222656 535.082031 442.550781 535.082031 C 442.882812 535.082031 443.378906 534.917969 443.707031 534.585938 C 456.75 522.203125 468.796875 508.667969 479.527344 494.136719 C 480.023438 493.476562 479.859375 492.324219 479.195312 491.828125 C 478.371094 491.496094 477.382812 491.660156 476.722656 492.324219 Z M 520.792969 625.226562 C 520.132812 624.566406 519.144531 624.566406 518.484375 625.226562 C 516.996094 626.875 515.839844 629.847656 519.144531 635.296875 C 525.582031 645.863281 533.171875 655.933594 541.59375 665.015625 C 541.921875 665.34375 542.417969 665.507812 542.746094 665.507812 C 543.078125 665.507812 543.574219 665.34375 543.902344 665.015625 C 544.5625 664.355469 544.5625 663.363281 543.902344 662.703125 C 535.648438 653.789062 528.222656 644.046875 521.785156 633.480469 C 520.957031 632.160156 519.308594 628.859375 520.628906 627.371094 C 521.617188 626.875 521.453125 625.722656 520.792969 625.226562 Z M 40.121094 148.425781 L 136.519531 148.425781 C 137.511719 148.425781 138.171875 147.765625 138.171875 146.773438 C 138.171875 145.78125 137.511719 145.121094 136.519531 145.121094 L 37.644531 145.121094 C 37.152344 145.121094 36.65625 145.453125 36.324219 145.78125 C 35.996094 146.277344 35.996094 146.773438 36.160156 147.433594 L 151.707031 454.019531 C 151.871094 454.679688 152.53125 455.011719 153.191406 455.011719 L 352.097656 455.011719 C 352.589844 455.011719 353.085938 454.679688 353.417969 454.351562 C 353.746094 453.855469 353.746094 453.359375 353.582031 452.863281 L 238.035156 146.277344 C 237.871094 145.617188 237.210938 145.289062 236.550781 145.289062 L 189.339844 145.289062 C 188.351562 145.289062 187.691406 145.949219 187.691406 146.9375 C 187.691406 147.929688 188.351562 148.589844 189.339844 148.589844 L 235.394531 148.589844 L 349.785156 451.707031 L 154.511719 451.707031 Z M 129.421875 492.984375 C 129.421875 493.148438 129.585938 493.3125 129.753906 493.476562 C 129.753906 493.476562 129.753906 493.476562 129.917969 493.644531 C 130.082031 493.808594 130.082031 493.808594 130.246094 493.972656 C 130.414062 494.136719 130.578125 494.136719 130.90625 494.136719 L 364.972656 494.136719 C 365.632812 494.136719 366.125 493.808594 366.457031 493.148438 L 377.351562 470.695312 C 377.515625 470.53125 377.515625 470.363281 377.515625 470.199219 C 377.515625 470.035156 377.515625 469.867188 377.515625 469.703125 L 249.425781 129.601562 C 249.261719 128.941406 248.601562 128.613281 247.941406 128.613281 L 204.691406 128.613281 C 203.703125 128.613281 203.042969 129.273438 203.042969 130.261719 C 203.042969 131.253906 203.703125 131.914062 204.691406 131.914062 L 246.785156 131.914062 L 373.554688 468.21875 L 142.957031 468.21875 L 16.1875 131.914062 L 137.34375 131.914062 C 138.335938 131.914062 138.996094 131.253906 138.996094 130.261719 C 138.996094 129.273438 138.335938 128.613281 137.34375 128.613281 L 13.875 128.613281 C 13.710938 128.613281 13.546875 128.613281 13.382812 128.613281 C 13.382812 128.613281 13.214844 128.613281 13.214844 128.613281 C 13.050781 128.613281 13.050781 128.777344 12.886719 128.777344 C 12.886719 128.777344 12.71875 128.941406 12.71875 128.941406 C 12.71875 128.941406 12.554688 129.109375 12.554688 129.109375 C 12.554688 129.109375 12.554688 129.109375 12.554688 129.273438 C 12.554688 129.273438 12.554688 129.273438 12.554688 129.4375 L 1.496094 152.054688 C 1.332031 152.550781 1.332031 152.882812 1.496094 153.378906 Z M 373.390625 471.519531 L 364.144531 490.671875 L 133.714844 490.671875 L 142.957031 471.519531 Z M 13.710938 134.390625 L 140.152344 469.867188 L 131.238281 488.359375 L 4.796875 152.882812 Z M 13.710938 134.390625 " fill-opacity="1" fill-rule="nonzero"/></g><path fill="#e4a117" d="M 222.851562 37.3125 C 193.796875 37.808594 166.5625 49.367188 145.765625 70.003906 C 124.964844 90.640625 113.246094 118.046875 112.75 146.9375 C 112.253906 168.234375 117.867188 189.039062 128.925781 207.199219 C 150.054688 242.035156 161.113281 280.832031 161.113281 319.628906 L 161.113281 325.902344 C 161.113281 326.894531 161.773438 327.554688 162.765625 327.554688 L 286.234375 327.554688 C 287.226562 327.554688 287.886719 326.894531 287.886719 325.902344 L 287.886719 322.105469 C 287.886719 280.832031 298.78125 241.539062 319.578125 208.355469 C 330.636719 190.6875 336.414062 170.21875 336.414062 149.25 C 336.414062 119.035156 324.53125 90.804688 303.070312 69.507812 C 281.613281 48.375 253.058594 36.816406 222.851562 37.3125 Z M 156.824219 95.261719 C 166.398438 83.046875 177.785156 73.46875 188.847656 68.351562 C 194.457031 65.710938 199.742188 64.390625 204.195312 64.390625 C 208.324219 64.390625 211.957031 65.546875 214.761719 67.691406 C 227.304688 77.433594 221.527344 105.664062 202.214844 130.59375 C 182.738281 155.523438 156.824219 167.90625 144.277344 158.164062 C 131.734375 148.425781 137.34375 120.191406 156.824219 95.261719 Z M 534 354.464844 L 520.132812 348.191406 C 519.636719 348.027344 519.144531 348.027344 518.8125 348.191406 C 518.316406 348.355469 517.988281 348.6875 517.988281 349.183594 L 503.625 393.59375 C 503.460938 394.089844 503.460938 394.585938 503.792969 394.914062 C 503.957031 395.246094 504.453125 395.574219 504.949219 395.742188 L 519.96875 398.710938 C 520.132812 398.710938 520.132812 398.710938 520.296875 398.710938 C 520.957031 398.710938 521.621094 398.214844 521.949219 397.554688 L 535.15625 356.445312 C 535.15625 355.785156 534.660156 354.960938 534 354.464844 Z M 222.851562 37.3125 Z M 222.851562 37.3125 " fill-opacity="1" fill-rule="nonzero"/><path fill="#ca8a04" d="M 455.757812 319.628906 L 435.949219 381.375 C 435.785156 381.871094 435.453125 382.203125 435.125 382.367188 C 434.960938 382.53125 434.628906 382.53125 434.300781 382.53125 C 434.132812 382.53125 433.96875 382.53125 433.804688 382.53125 L 415.648438 376.753906 C 414.820312 376.425781 414.328125 375.597656 414.65625 374.609375 L 434.464844 312.859375 C 434.628906 312.367188 434.960938 312.035156 435.289062 311.871094 C 435.621094 311.707031 436.113281 311.707031 436.609375 311.707031 L 454.765625 317.484375 C 455.59375 317.8125 456.089844 318.804688 455.757812 319.628906 Z M 536.144531 259.371094 C 525.582031 259.371094 516.996094 267.953125 516.996094 278.519531 C 516.996094 289.085938 525.582031 297.671875 536.144531 297.671875 C 546.710938 297.671875 555.292969 289.085938 555.292969 278.519531 C 555.292969 267.953125 546.542969 259.371094 536.144531 259.371094 Z M 247.773438 393.757812 L 201.390625 393.757812 C 200.402344 393.757812 199.742188 394.417969 199.742188 395.410156 C 199.742188 409.113281 210.964844 420.339844 224.664062 420.339844 C 238.367188 420.339844 249.589844 409.113281 249.589844 395.410156 C 249.425781 394.417969 248.601562 393.757812 247.773438 393.757812 Z M 247.773438 393.757812 " fill-opacity="1" fill-rule="nonzero"/><path fill="#737373" d="M 295.644531 324.253906 L 153.523438 324.253906 C 152.53125 324.253906 151.871094 324.914062 151.871094 325.902344 L 151.871094 351.988281 C 151.871094 352.980469 152.53125 353.640625 153.523438 353.640625 L 164.582031 353.640625 L 164.582031 395.410156 C 164.582031 396.402344 165.242188 397.0625 166.230469 397.0625 L 282.769531 397.0625 C 283.757812 397.0625 284.417969 396.402344 284.417969 395.410156 L 284.417969 353.640625 L 295.480469 353.640625 C 296.46875 353.640625 297.128906 352.980469 297.128906 351.988281 L 297.128906 325.902344 C 297.292969 324.914062 296.46875 324.253906 295.644531 324.253906 Z M 167.882812 375.269531 L 281.117188 375.269531 L 281.117188 381.542969 L 167.882812 381.542969 Z M 281.28125 371.964844 L 168.046875 371.964844 L 168.046875 365.859375 L 281.28125 365.859375 Z M 167.882812 393.757812 L 167.882812 384.84375 L 281.117188 384.84375 L 281.117188 393.757812 Z M 281.28125 362.554688 L 168.046875 362.554688 L 168.046875 353.640625 L 281.28125 353.640625 Z M 293.992188 350.339844 L 155.171875 350.339844 L 155.171875 327.554688 L 293.992188 327.554688 Z M 204.859375 132.738281 C 225.492188 106.324219 230.773438 76.113281 216.90625 65.214844 C 203.042969 54.320312 174.980469 67.03125 154.347656 93.28125 C 144.441406 105.992188 137.839844 119.863281 135.363281 132.410156 C 132.890625 145.289062 135.363281 155.523438 142.296875 160.804688 C 145.765625 163.449219 149.890625 164.769531 154.675781 164.769531 C 169.367188 164.769531 189.175781 152.714844 204.859375 132.738281 Z M 144.277344 158.164062 C 138.335938 153.707031 136.355469 144.625 138.5 133.070312 C 140.8125 121.019531 147.25 107.644531 156.824219 95.429688 C 171.679688 76.277344 190.496094 64.554688 204.195312 64.554688 C 208.324219 64.554688 211.957031 65.710938 214.761719 67.855469 C 227.304688 77.597656 221.527344 105.828125 202.214844 130.757812 C 182.738281 155.6875 156.824219 168.070312 144.277344 158.164062 Z M 109.449219 653.621094 L 129.753906 618.621094 C 130.246094 617.796875 129.917969 616.804688 129.09375 616.308594 C 128.265625 615.816406 127.277344 616.144531 126.78125 616.972656 L 107.632812 649.992188 C 98.886719 631.167969 90.136719 612.511719 81.882812 595.34375 C 59.433594 548.457031 41.441406 511.96875 41.113281 511.308594 C 40.78125 510.484375 39.792969 510.152344 38.964844 510.484375 C 38.140625 510.8125 37.8125 511.804688 38.140625 512.628906 C 38.472656 513.289062 55.804688 548.125 77.425781 593.527344 L 27.90625 580.648438 C 27.082031 580.484375 26.089844 580.980469 25.925781 581.804688 C 25.761719 582.628906 26.257812 583.621094 27.082031 583.785156 L 79.242188 597.324219 C 97.234375 634.964844 118.03125 679.210938 134.375 716.855469 C 134.703125 717.515625 135.199219 717.84375 135.859375 717.84375 C 136.023438 717.84375 136.355469 717.84375 136.519531 717.679688 C 137.34375 717.351562 137.675781 716.359375 137.34375 715.535156 C 128.925781 696.21875 119.351562 674.753906 109.449219 653.621094 Z M 230.277344 612.511719 L 181.417969 626.050781 C 185.710938 593.527344 190.992188 566.78125 190.992188 566.285156 C 191.15625 565.460938 190.660156 564.46875 189.671875 564.304688 C 188.847656 564.140625 187.855469 564.636719 187.691406 565.625 C 187.527344 566.121094 182.078125 594.1875 177.785156 627.867188 C 177.785156 627.867188 177.785156 628.03125 177.785156 628.03125 C 177.125 632.820312 176.632812 637.609375 175.972656 642.5625 L 159.960938 632.488281 C 159.132812 631.996094 158.144531 632.160156 157.648438 632.984375 C 157.152344 633.8125 157.320312 634.800781 158.144531 635.296875 L 175.476562 646.191406 C 173.496094 664.683594 172.007812 683.503906 172.339844 699.683594 C 172.339844 700.511719 173.164062 701.335938 173.988281 701.335938 C 174.980469 701.335938 175.640625 700.511719 175.640625 699.683594 C 175.3125 678.71875 177.785156 652.960938 180.921875 629.519531 L 231.101562 615.648438 C 231.929688 615.484375 232.421875 614.496094 232.257812 613.667969 C 232.09375 612.84375 231.269531 612.347656 230.277344 612.511719 Z M 570.3125 317.320312 C 581.371094 307.414062 587.8125 293.378906 587.8125 278.519531 C 587.8125 249.960938 564.535156 226.679688 535.980469 226.679688 C 507.421875 226.679688 484.148438 249.960938 484.148438 278.519531 C 484.148438 307.082031 507.421875 330.363281 535.980469 330.363281 C 543.078125 330.363281 549.84375 328.875 556.28125 326.234375 L 574.769531 340.433594 C 575.101562 340.597656 575.429688 340.761719 575.761719 340.761719 C 576.089844 340.761719 576.421875 340.597656 576.75 340.433594 C 577.410156 339.9375 577.578125 339.277344 577.410156 338.617188 Z M 557.601562 322.933594 C 557.273438 322.765625 556.941406 322.601562 556.613281 322.601562 C 556.449219 322.601562 556.117188 322.601562 555.953125 322.765625 C 549.679688 325.574219 542.914062 327.058594 535.980469 327.058594 C 509.238281 327.058594 487.449219 305.265625 487.449219 278.519531 C 487.449219 251.773438 509.238281 229.980469 535.980469 229.980469 C 562.71875 229.980469 584.507812 251.773438 584.507812 278.519531 C 584.507812 292.71875 578.238281 306.257812 567.34375 315.503906 C 566.847656 316 566.683594 316.660156 566.847656 317.320312 L 572.625 334.324219 Z M 568.992188 277.53125 C 561.070312 265.972656 549.183594 259.371094 535.980469 259.371094 C 522.773438 259.371094 510.890625 265.972656 502.964844 277.53125 C 502.636719 278.027344 502.636719 278.851562 502.964844 279.347656 C 510.890625 290.902344 522.773438 297.507812 535.980469 297.507812 C 549.183594 297.507812 561.070312 290.902344 568.992188 279.347656 C 569.488281 278.851562 569.488281 278.191406 568.992188 277.53125 Z M 536.144531 294.207031 C 524.425781 294.207031 513.859375 288.425781 506.597656 278.355469 C 513.859375 268.285156 524.589844 262.507812 536.144531 262.507812 C 547.699219 262.507812 558.429688 268.285156 565.691406 278.355469 C 558.429688 288.59375 547.699219 294.207031 536.144531 294.207031 Z M 448.496094 315.503906 C 447.667969 315.171875 446.679688 315.667969 446.347656 316.492188 L 426.542969 378.238281 C 426.210938 379.066406 426.707031 380.054688 427.53125 380.386719 C 427.695312 380.386719 427.863281 380.386719 428.027344 380.386719 C 428.6875 380.386719 429.347656 379.890625 429.675781 379.230469 L 449.484375 317.484375 C 449.816406 316.824219 449.320312 315.832031 448.496094 315.503906 Z M 448.496094 315.503906 " fill-opacity="1" fill-rule="nonzero"/></svg>