<svg xmlns="http://www.w3.org/2000/svg" xmlns:xlink="http://www.w3.org/1999/xlink" width="1640" zoomAndPan="magnify" viewBox="0 0 1230 693.000001" height="924" preserveAspectRatio="xMidYMid meet" version="1.0"><defs><clipPath id="5fefd4f9bf"><path d="M 701 127 L 1183.113281 127 L 1183.113281 565.59375 L 701 565.59375 Z M 701 127 " clip-rule="nonzero"/></clipPath><clipPath id="518d55f3a4"><path d="M 701 181 L 1183.113281 181 L 1183.113281 565.59375 L 701 565.59375 Z M 701 181 " clip-rule="nonzero"/></clipPath></defs><g clip-path="url(#5fefd4f9bf)"><path fill="#d9d9d9" d="M 1183.007812 552.609375 C 1183.007812 552.609375 1183.007812 552.511719 1183.007812 552.609375 C 1182.910156 552.414062 1182.910156 552.414062 1182.8125 552.316406 C 1182.8125 552.316406 1182.714844 552.214844 1182.714844 552.214844 C 1182.714844 552.214844 1182.613281 552.117188 1182.613281 552.117188 L 1157.453125 534.605469 C 1157.257812 534.507812 1157.0625 534.410156 1156.863281 534.410156 L 1150.769531 534.410156 L 1150.769531 527.816406 L 1161.679688 451.082031 C 1161.679688 450.789062 1161.679688 450.492188 1161.484375 450.296875 C 1161.285156 450.097656 1160.992188 450 1160.695312 450 L 1131.898438 450 C 1131.015625 440.066406 1129.148438 430.226562 1126.394531 420.585938 C 1125.609375 417.734375 1124.625 414.683594 1122.757812 412.027344 C 1121.089844 409.664062 1118.628906 407.894531 1115.191406 406.515625 L 1090.914062 396.976562 L 1089.144531 396.285156 C 1090.421875 392.449219 1091.109375 388.515625 1091.308594 384.480469 C 1091.308594 383.101562 1091.308594 381.53125 1090.71875 380.152344 C 1090.421875 379.464844 1089.929688 378.773438 1089.339844 378.28125 C 1091.308594 377.199219 1093.273438 375.824219 1095.238281 374.347656 C 1097.203125 375.824219 1100.25 375.824219 1102.511719 375.234375 C 1104.675781 374.644531 1106.738281 373.460938 1108.902344 371.296875 C 1110.472656 369.824219 1111.652344 368.347656 1112.4375 366.871094 C 1112.636719 366.871094 1112.832031 366.871094 1113.027344 366.871094 C 1116.074219 366.871094 1119.21875 365.296875 1121.285156 362.738281 C 1123.347656 360.082031 1124.234375 356.542969 1123.839844 352.902344 C 1123.546875 350.246094 1122.464844 347.390625 1120.792969 344.835938 C 1122.265625 344.242188 1123.546875 343.261719 1124.429688 341.785156 C 1126.003906 339.226562 1125.902344 335.683594 1124.332031 332.734375 C 1122.660156 329.683594 1119.710938 327.914062 1117.550781 326.929688 C 1115.191406 325.847656 1112.636719 325.257812 1110.179688 324.765625 C 1111.847656 313.453125 1107.132812 301.054688 1098.1875 293.875 C 1094.550781 290.921875 1090.816406 289.347656 1087.277344 289.25 C 1083.738281 289.25 1079.609375 291.019531 1077.941406 294.5625 C 1074.304688 292.496094 1070.371094 291.21875 1066.835938 291.019531 C 1062.117188 290.628906 1057.695312 292.300781 1055.039062 295.449219 C 1052.976562 297.90625 1052.089844 301.351562 1052.582031 304.5 C 1052.976562 306.859375 1054.15625 308.925781 1055.824219 310.597656 C 1052.777344 311.285156 1049.730469 313.550781 1048.160156 315.8125 C 1045.996094 318.960938 1045.703125 323.191406 1047.375 326.535156 C 1049.144531 330.175781 1053.269531 332.734375 1057.988281 333.324219 C 1057.398438 334.699219 1056.90625 335.882812 1056.414062 337.0625 L 1018.378906 319.847656 L 1019.265625 317.191406 C 1019.460938 316.699219 1019.164062 316.207031 1018.773438 316.007812 L 1010.515625 312.269531 C 1010.222656 312.171875 1009.925781 312.171875 1009.730469 312.269531 C 1009.433594 312.371094 1009.238281 312.566406 1009.238281 312.859375 L 1008.453125 315.320312 L 1005.503906 313.941406 C 1005.796875 312.859375 1005.996094 311.777344 1006.191406 310.695312 C 1006.585938 308.140625 1005.207031 305.582031 1002.851562 304.5 C 998.132812 302.335938 992.234375 300.664062 986.140625 299.679688 C 983.78125 299.285156 981.421875 300.367188 980.246094 302.433594 L 971.398438 298.398438 L 972.382812 295.25 C 972.578125 294.757812 972.28125 294.167969 971.691406 294.070312 L 967.957031 292.890625 L 960.980469 290.628906 C 960.785156 290.527344 960.488281 290.527344 960.195312 290.726562 C 959.996094 290.824219 959.800781 291.019531 959.703125 291.316406 L 947.90625 328.109375 C 947.710938 328.601562 948.007812 329.191406 948.496094 329.390625 L 959.308594 332.832031 C 959.40625 332.832031 959.507812 332.832031 959.605469 332.832031 C 959.800781 332.832031 959.898438 332.832031 960.09375 332.734375 C 960.292969 332.636719 960.488281 332.4375 960.585938 332.144531 L 961.570312 328.996094 L 971.691406 331.0625 C 971.988281 335.980469 974.542969 340.40625 977.199219 342.375 C 976.609375 344.539062 975.917969 346.898438 975.230469 349.066406 C 975.230469 349.164062 975.230469 349.164062 975.132812 349.261719 L 966.777344 347 C 966.289062 346.898438 965.894531 347.097656 965.699219 347.492188 C 954.296875 368.445312 946.730469 390.972656 943.191406 414.585938 C 942.503906 419.207031 942.011719 424.519531 944.46875 428.949219 C 947.417969 434.160156 953.609375 436.328125 958.03125 437.605469 C 972.773438 441.539062 988.796875 441.046875 1003.242188 436.425781 C 1003.734375 442.523438 1004.128906 448.722656 1004.519531 454.820312 C 1004.914062 461.117188 1005.308594 467.710938 1005.796875 474.003906 C 1003.636719 475.972656 1002.75 479.417969 1003.046875 481.875 C 1003.339844 484.53125 1004.519531 486.894531 1005.699219 489.058594 C 1003.046875 499.289062 1001.375 514.929688 1001.769531 526.933594 L 984.273438 526.933594 C 983.683594 526.933594 983.292969 527.425781 983.292969 527.917969 L 983.292969 534.605469 L 843.234375 534.605469 C 843.234375 534.507812 843.332031 534.410156 843.332031 534.3125 C 844.707031 528.703125 843.234375 523.097656 841.859375 517.683594 L 841.464844 516.210938 C 840.089844 510.699219 839.007812 504.402344 841.660156 499.289062 C 843.527344 495.746094 847.066406 493.089844 850.507812 490.433594 C 855.125 486.992188 859.84375 483.449219 860.726562 477.644531 C 860.828125 477.054688 860.828125 476.464844 860.828125 475.972656 C 860.828125 468.101562 852.964844 462.59375 849.425781 460.429688 C 848.246094 459.742188 846.96875 459.050781 845.691406 458.363281 C 840.972656 455.804688 836.058594 453.050781 833.304688 448.625 C 831.242188 445.179688 830.554688 440.949219 829.964844 436.917969 C 829.769531 435.636719 829.570312 434.359375 829.375 433.179688 C 828.390625 428.0625 826.132812 421.570312 820.332031 419.207031 C 814.335938 416.75 807.753906 420.191406 804.214844 424.421875 C 801.070312 428.160156 799.203125 432.882812 797.433594 437.410156 C 797.136719 438.195312 796.84375 438.984375 796.449219 439.769531 C 794.484375 444.589844 791.929688 450 787.308594 452.953125 C 785.046875 454.429688 782.492188 455.214844 779.839844 456.101562 C 779.050781 456.394531 778.265625 456.59375 777.480469 456.886719 C 762.246094 428.949219 739.542969 396.582031 708.679688 375.332031 C 708.484375 375.132812 708.089844 375.132812 707.796875 375.234375 C 707.5 375.332031 707.304688 375.527344 707.207031 375.824219 C 706.910156 376.511719 700.816406 392.351562 701.601562 420.191406 C 702.292969 445.574219 709.269531 485.910156 737.96875 534.703125 L 727.746094 534.703125 C 727.550781 534.703125 727.355469 534.804688 727.15625 534.902344 L 701.996094 552.117188 C 701.996094 552.117188 701.898438 552.117188 701.898438 552.214844 C 701.898438 552.214844 701.800781 552.316406 701.800781 552.316406 C 701.800781 552.414062 701.703125 552.414062 701.703125 552.511719 C 701.703125 552.511719 701.703125 552.609375 701.601562 552.609375 C 701.601562 552.707031 701.503906 552.804688 701.503906 553.003906 L 701.503906 564.613281 C 701.503906 565.203125 701.898438 565.59375 702.488281 565.59375 L 1182.023438 565.59375 C 1182.515625 565.59375 1183.007812 565.203125 1183.007812 564.613281 L 1183.007812 553.003906 C 1183.105469 552.804688 1183.105469 552.707031 1183.007812 552.609375 Z M 1054.941406 377.398438 C 1054.351562 378.875 1054.546875 380.445312 1054.648438 381.824219 L 1055.039062 385.5625 C 1043.441406 376.511719 1033.417969 373.5625 1025.457031 376.90625 C 1013.5625 381.921875 1002.75 388.121094 993.21875 395.402344 C 992.726562 394.515625 991.941406 393.828125 990.957031 393.53125 C 990.464844 393.335938 989.972656 393.335938 989.484375 393.335938 C 991.644531 388.316406 993.808594 383.203125 995.96875 378.183594 C 998.425781 372.480469 1000.984375 366.476562 1003.441406 360.773438 C 1003.636719 360.378906 1003.441406 359.789062 1003.046875 359.589844 C 999.410156 357.230469 995.578125 355.460938 991.449219 354.082031 L 994.59375 343.160156 C 996.066406 342.375 997.445312 341.390625 998.328125 340.113281 C 999.015625 339.128906 999.410156 337.847656 999.3125 336.472656 L 1001.375 336.867188 L 1000.589844 339.324219 C 1000.492188 339.621094 1000.492188 339.914062 1000.6875 340.113281 C 1000.785156 340.308594 1001.082031 340.503906 1001.375 340.605469 L 1010.320312 342.375 C 1010.417969 342.375 1010.417969 342.375 1010.515625 342.375 C 1010.910156 342.375 1011.300781 342.078125 1011.402344 341.6875 L 1012.285156 339.03125 L 1053.171875 347.195312 C 1052.484375 349.851562 1052.089844 352.410156 1051.894531 354.867188 C 1051.304688 362.542969 1053.46875 369.722656 1057.496094 374.839844 C 1056.316406 375.332031 1055.335938 376.316406 1054.941406 377.398438 Z M 977.296875 228.945312 L 1147.921875 228.945312 C 1148.410156 228.945312 1148.804688 228.550781 1148.902344 228.15625 C 1149 227.664062 1148.707031 227.171875 1148.3125 227.074219 L 1125.414062 218.8125 C 1124.234375 212.613281 1121.382812 206.808594 1117.15625 202.285156 C 1110.964844 195.59375 1102.707031 191.953125 1093.667969 191.953125 C 1093.667969 191.953125 1093.566406 191.953125 1093.566406 191.953125 C 1092.78125 188.214844 1090.226562 184.96875 1086.785156 183.394531 C 1083.347656 181.722656 1079.710938 181.722656 1076.367188 183.394531 C 1070.175781 176.707031 1060.542969 173.558594 1051.601562 175.230469 C 1042.65625 176.902344 1034.890625 183.296875 1031.550781 191.660156 C 1022.507812 187.332031 1010.515625 189.984375 1004.324219 197.855469 C 999.605469 203.757812 998.425781 212.515625 1001.277344 219.992188 L 977.097656 227.074219 C 976.609375 227.171875 976.3125 227.664062 976.410156 228.15625 C 976.410156 228.550781 976.804688 228.945312 977.296875 228.945312 Z M 777.875 398.550781 C 777.972656 398.648438 777.972656 398.746094 778.070312 398.84375 L 778.167969 398.941406 C 778.265625 399.039062 778.265625 399.039062 778.363281 399.140625 C 778.464844 399.238281 778.5625 399.238281 778.757812 399.238281 L 918.128906 399.238281 C 918.519531 399.238281 918.816406 399.039062 919.011719 398.648438 L 925.5 385.167969 C 925.5 385.070312 925.597656 384.972656 925.597656 384.875 C 925.597656 384.777344 925.597656 384.675781 925.597656 384.578125 L 911.445312 347 L 959.605469 347 C 960.09375 347 960.488281 346.703125 960.585938 346.210938 C 960.683594 345.71875 960.390625 345.324219 959.996094 345.128906 L 950.167969 341.390625 C 949.777344 338.242188 948.300781 335.292969 946.140625 333.128906 C 942.992188 329.980469 938.175781 328.40625 933.753906 329.191406 C 930.019531 322.109375 920.976562 317.289062 913.507812 318.765625 C 909.578125 319.550781 905.941406 321.714844 903.1875 324.863281 L 878.125 258.164062 C 881.269531 247.832031 885.59375 238.09375 891.296875 229.140625 C 897.878906 218.613281 901.320312 206.414062 901.320312 193.921875 C 901.320312 175.917969 894.242188 159.09375 881.464844 146.40625 C 868.492188 133.515625 851.488281 126.730469 833.503906 127.023438 C 816.203125 127.320312 799.988281 134.207031 787.605469 146.503906 C 777.875 156.144531 771.484375 168.34375 769.027344 181.425781 L 709.074219 181.425781 C 708.976562 181.425781 708.875 181.425781 708.777344 181.425781 C 708.777344 181.425781 708.679688 181.425781 708.679688 181.527344 C 708.582031 181.527344 708.484375 181.625 708.484375 181.625 C 708.484375 181.625 708.386719 181.722656 708.386719 181.722656 C 708.386719 181.722656 708.285156 181.820312 708.285156 181.820312 C 708.285156 181.820312 708.285156 181.820312 708.285156 181.917969 C 708.285156 181.917969 708.285156 181.917969 708.285156 182.019531 L 701.703125 195.398438 C 701.601562 195.59375 701.601562 195.890625 701.703125 196.183594 Z M 1050.8125 270.753906 C 1050.8125 253.734375 1036.957031 239.863281 1019.953125 239.863281 C 1002.949219 239.863281 989.089844 253.734375 989.089844 270.753906 C 989.089844 287.773438 1002.949219 301.644531 1019.953125 301.644531 C 1024.179688 301.644531 1028.207031 300.761719 1032.039062 299.1875 L 1043.050781 307.648438 C 1043.246094 307.746094 1043.441406 307.84375 1043.636719 307.84375 C 1043.835938 307.84375 1044.03125 307.746094 1044.226562 307.648438 C 1044.621094 307.449219 1044.71875 306.957031 1044.621094 306.566406 L 1040.394531 293.972656 C 1047.078125 287.972656 1050.8125 279.609375 1050.8125 270.753906 Z M 1050.8125 270.753906 " fill-opacity="1" fill-rule="nonzero"/></g><path fill="#e4a117" d="M 1148.3125 226.976562 L 1125.414062 218.710938 C 1124.234375 212.515625 1121.382812 206.710938 1117.15625 202.183594 C 1110.964844 195.496094 1102.707031 191.855469 1093.667969 191.855469 C 1093.566406 191.855469 1093.566406 191.855469 1093.46875 191.855469 C 1092.683594 188.214844 1090.128906 184.96875 1086.6875 183.296875 C 1083.246094 181.625 1079.613281 181.625 1076.269531 183.296875 C 1070.078125 176.605469 1060.445312 173.457031 1051.5 175.132812 C 1042.558594 176.804688 1034.792969 183.199219 1031.453125 191.558594 C 1022.410156 187.230469 1010.515625 189.886719 1004.226562 197.757812 C 999.507812 203.660156 998.328125 212.417969 1001.179688 219.894531 L 977 226.976562 C 976.507812 227.074219 976.214844 227.566406 976.3125 228.058594 C 976.410156 228.550781 976.804688 228.945312 977.296875 228.945312 L 1147.921875 228.945312 C 1148.410156 228.945312 1148.804688 228.648438 1148.902344 228.15625 C 1149 227.664062 1148.707031 227.171875 1148.3125 226.976562 Z M 984.175781 226.976562 L 1002.851562 221.46875 C 1003.144531 221.367188 1003.339844 221.171875 1003.441406 220.976562 C 1003.539062 220.679688 1003.539062 220.386719 1003.441406 220.1875 C 1000.394531 213.203125 1001.375 204.742188 1005.796875 199.039062 C 1011.695312 191.558594 1023.195312 189.296875 1031.550781 193.921875 C 1031.84375 194.019531 1032.140625 194.117188 1032.335938 194.019531 C 1032.628906 193.921875 1032.828125 193.726562 1032.925781 193.429688 C 1035.875 185.265625 1043.246094 178.871094 1051.894531 177.296875 C 1060.445312 175.722656 1069.683594 178.871094 1075.386719 185.460938 C 1075.679688 185.855469 1076.171875 185.855469 1076.566406 185.65625 C 1079.511719 183.984375 1082.757812 183.886719 1085.804688 185.363281 C 1088.851562 186.839844 1091.109375 189.886719 1091.601562 193.332031 C 1091.699219 193.824219 1092.09375 194.214844 1092.585938 194.214844 C 1101.332031 193.921875 1109.492188 197.363281 1115.585938 203.859375 C 1119.613281 208.1875 1122.367188 213.890625 1123.445312 219.894531 C 1123.546875 220.285156 1123.742188 220.582031 1124.035156 220.679688 L 1142.121094 227.171875 L 984.175781 227.171875 Z M 1110.769531 480.792969 C 1110.667969 480.792969 1110.667969 480.695312 1110.570312 480.695312 L 1105.753906 479.417969 C 1105.65625 479.417969 1105.65625 479.417969 1105.558594 479.417969 C 1105.265625 479.417969 1104.96875 479.417969 1104.574219 479.417969 C 1096.515625 479.417969 1089.339844 486.007812 1088.652344 494.074219 C 1088.261719 498.007812 1089.539062 501.746094 1092.09375 504.601562 C 1094.648438 507.355469 1098.1875 508.929688 1102.117188 508.929688 C 1110.179688 508.929688 1117.351562 502.339844 1118.042969 494.269531 C 1118.730469 488.566406 1115.78125 483.253906 1110.769531 480.792969 Z M 849.425781 460.332031 C 848.246094 459.640625 846.96875 458.953125 845.691406 458.265625 C 840.972656 455.707031 836.058594 452.953125 833.304688 448.523438 C 831.242188 445.082031 830.554688 440.949219 829.964844 436.816406 C 829.769531 435.539062 829.570312 434.261719 829.375 433.078125 C 828.390625 427.964844 826.132812 421.472656 820.332031 419.109375 C 814.335938 416.652344 807.753906 420.09375 804.214844 424.324219 C 801.070312 428.0625 799.203125 432.785156 797.433594 437.308594 C 797.136719 438.097656 796.84375 438.882812 796.546875 439.671875 C 794.582031 444.492188 792.027344 449.902344 787.40625 452.855469 C 785.144531 454.328125 782.589844 455.117188 779.9375 456 C 778.855469 456.296875 777.875 456.691406 776.792969 457.085938 C 776.496094 457.183594 776.300781 457.378906 776.203125 457.675781 C 776.105469 457.96875 776.105469 458.265625 776.300781 458.460938 C 798.023438 498.601562 807.554688 535.394531 807.652344 535.785156 C 807.753906 536.179688 808.144531 536.574219 808.636719 536.574219 L 841.957031 536.574219 C 842.347656 536.574219 842.742188 536.277344 842.839844 535.984375 C 843.035156 535.394531 843.234375 534.804688 843.332031 534.410156 C 844.707031 528.800781 843.234375 523.195312 841.859375 517.785156 L 841.464844 516.210938 C 840.089844 510.699219 839.007812 504.402344 841.660156 499.289062 C 843.527344 495.746094 847.066406 493.089844 850.507812 490.433594 C 855.125 486.992188 859.84375 483.449219 860.726562 477.644531 C 862.007812 468.792969 853.257812 462.59375 849.425781 460.332031 Z M 959.898438 344.933594 L 950.070312 341.195312 C 949.675781 338.046875 948.203125 335.09375 946.039062 332.929688 C 942.894531 329.78125 938.078125 328.207031 933.65625 328.996094 C 929.921875 321.910156 920.878906 317.089844 913.410156 318.566406 C 908.886719 319.453125 904.761719 322.207031 902.007812 326.140625 C 901.714844 326.632812 901.8125 327.222656 902.203125 327.519531 C 902.695312 327.816406 903.285156 327.714844 903.582031 327.324219 C 906.039062 323.78125 909.773438 321.320312 913.804688 320.535156 C 920.585938 319.253906 929.136719 323.976562 932.28125 330.570312 C 932.476562 330.960938 932.96875 331.257812 933.363281 331.160156 C 937.390625 330.273438 941.8125 331.554688 944.664062 334.40625 C 946.628906 336.375 947.90625 339.128906 948.203125 342.078125 C 948.203125 342.472656 948.496094 342.769531 948.792969 342.867188 L 954.199219 344.933594 L 909.96875 344.933594 C 909.378906 344.933594 908.988281 345.324219 908.988281 345.917969 C 908.988281 346.507812 909.378906 346.898438 909.96875 346.898438 L 959.503906 346.898438 C 959.996094 346.898438 960.390625 346.605469 960.488281 346.113281 C 960.585938 345.621094 960.390625 345.128906 959.898438 344.933594 Z M 959.898438 344.933594 " fill-opacity="1" fill-rule="nonzero"/><path fill="#ca8a04" d="M 1115.585938 475.085938 C 1115.585938 475.285156 1115.191406 479.316406 1112.046875 481.875 C 1110.472656 483.054688 1108.605469 483.746094 1106.34375 483.746094 C 1105.753906 483.746094 1105.066406 483.746094 1104.378906 483.644531 C 1104.085938 483.644531 1103.886719 483.449219 1103.691406 483.15625 C 1103.496094 482.957031 1103.496094 482.664062 1103.59375 482.367188 C 1103.691406 482.070312 1105.65625 475.675781 1114.503906 474.105469 C 1114.796875 474.003906 1115.09375 474.105469 1115.386719 474.300781 C 1115.484375 474.398438 1115.585938 474.695312 1115.585938 475.085938 Z M 786.425781 474.003906 C 771.679688 443.210938 746.324219 401.007812 708.777344 375.136719 C 708.484375 374.9375 708.1875 374.9375 707.894531 375.035156 C 707.597656 375.136719 707.402344 375.332031 707.304688 375.625 C 707.007812 376.316406 700.914062 392.152344 701.703125 419.996094 C 702.390625 445.574219 709.464844 486.5 738.953125 536.082031 C 739.148438 536.378906 739.445312 536.574219 739.835938 536.574219 L 808.734375 536.574219 C 809.03125 536.574219 809.324219 536.476562 809.519531 536.179688 C 809.71875 535.886719 809.816406 535.589844 809.71875 535.296875 C 809.519531 535 802.347656 507.355469 786.425781 474.003906 Z M 1091.109375 397.074219 L 1089.242188 396.382812 C 1090.519531 392.546875 1091.210938 388.613281 1091.40625 384.578125 C 1091.40625 383.203125 1091.40625 381.628906 1090.816406 380.25 C 1090.128906 378.773438 1088.75 377.691406 1087.375 377.496094 C 1087.179688 377.496094 1086.984375 377.496094 1086.785156 377.59375 C 1084.722656 378.578125 1082.65625 379.363281 1080.691406 379.957031 C 1080.300781 380.054688 1080.003906 380.445312 1080.003906 380.839844 L 1080.003906 380.9375 C 1080.003906 381.921875 1079.90625 382.90625 1079.90625 383.988281 C 1074.695312 384.382812 1069.488281 383.695312 1064.574219 381.921875 L 1064.769531 379.167969 C 1064.769531 378.773438 1064.574219 378.480469 1064.277344 378.28125 C 1064.082031 378.183594 1063.886719 378.085938 1063.6875 377.890625 C 1062.507812 377.101562 1061.332031 376.21875 1060.25 375.035156 C 1060.050781 374.839844 1059.855469 374.742188 1059.660156 374.742188 L 1059.363281 374.742188 C 1057.398438 374.347656 1055.726562 375.921875 1055.136719 377.496094 C 1054.546875 378.972656 1054.746094 380.546875 1054.84375 381.921875 L 1055.628906 390.382812 C 1055.53125 390.480469 1055.433594 390.582031 1055.335938 390.777344 C 1033.808594 446.066406 1030.273438 500.46875 1030.171875 527.917969 C 1030.171875 528.210938 1030.273438 528.410156 1030.46875 528.605469 C 1030.664062 528.800781 1030.863281 528.902344 1031.15625 528.902344 L 1036.167969 528.902344 C 1036.660156 528.902344 1037.054688 528.507812 1037.152344 528.015625 L 1047.964844 452.066406 L 1080.003906 452.066406 C 1080.496094 452.066406 1080.890625 451.773438 1080.988281 451.28125 C 1082.660156 442.820312 1084.527344 433.671875 1086.394531 424.816406 C 1088.261719 415.960938 1090.128906 406.714844 1091.796875 398.253906 C 1091.796875 397.664062 1091.503906 397.269531 1091.109375 397.074219 Z M 1091.109375 397.074219 " fill-opacity="1" fill-rule="nonzero"/><g clip-path="url(#518d55f3a4)"><path fill="#737373" d="M 1183.007812 552.609375 C 1183.007812 552.609375 1183.007812 552.511719 1183.007812 552.609375 C 1182.910156 552.414062 1182.910156 552.414062 1182.8125 552.316406 C 1182.8125 552.316406 1182.714844 552.214844 1182.714844 552.214844 C 1182.714844 552.214844 1182.613281 552.117188 1182.613281 552.117188 L 1157.453125 534.605469 C 1157.257812 534.507812 1157.0625 534.410156 1156.863281 534.410156 L 1150.769531 534.410156 L 1150.769531 527.816406 L 1161.679688 451.082031 C 1161.679688 450.789062 1161.679688 450.492188 1161.484375 450.296875 C 1161.285156 450.097656 1160.992188 450 1160.695312 450 L 1131.898438 450 C 1131.015625 440.066406 1129.148438 430.226562 1126.394531 420.585938 C 1125.609375 417.734375 1124.625 414.683594 1122.757812 412.027344 C 1121.089844 409.664062 1118.628906 407.894531 1115.191406 406.515625 L 1090.914062 396.976562 C 1090.421875 396.777344 1089.832031 396.976562 1089.636719 397.566406 C 1089.441406 398.058594 1089.636719 398.648438 1090.226562 398.84375 L 1114.503906 408.386719 C 1117.550781 409.566406 1119.710938 411.140625 1121.1875 413.207031 C 1122.855469 415.566406 1123.742188 418.421875 1124.527344 421.175781 C 1127.28125 430.621094 1129.050781 440.359375 1129.933594 450.097656 L 1091.011719 450.097656 C 1093.371094 447.738281 1096.320312 444.6875 1097.597656 442.425781 C 1098.285156 441.148438 1098.972656 439.574219 1098.679688 438 C 1098.480469 436.621094 1097.695312 435.441406 1096.320312 434.457031 C 1096.023438 434.261719 1095.828125 434.0625 1095.535156 433.867188 C 1095.140625 433.570312 1094.746094 433.277344 1094.355469 432.980469 C 1099.957031 425.996094 1104.675781 418.421875 1108.507812 410.355469 C 1108.703125 409.863281 1108.507812 409.273438 1108.015625 409.074219 C 1107.523438 408.878906 1106.933594 409.074219 1106.738281 409.566406 C 1102.808594 417.832031 1097.890625 425.601562 1092.09375 432.785156 C 1091.898438 432.980469 1091.796875 433.375 1091.898438 433.671875 C 1091.996094 433.964844 1092.191406 434.261719 1092.488281 434.359375 C 1093.175781 434.652344 1093.667969 435.046875 1094.257812 435.539062 C 1094.550781 435.734375 1094.84375 436.03125 1095.140625 436.226562 C 1096.023438 436.917969 1096.613281 437.703125 1096.714844 438.492188 C 1096.910156 439.574219 1096.417969 440.65625 1095.828125 441.738281 C 1094.648438 443.902344 1091.308594 447.34375 1089.046875 449.605469 C 1088.75 449.902344 1088.457031 450.097656 1088.261719 450.394531 L 1046.882812 450.394531 C 1046.390625 450.394531 1045.996094 450.789062 1045.898438 451.28125 L 1035.480469 524.375 L 1035.085938 527.226562 L 1003.339844 527.226562 C 1003.046875 515.226562 1004.617188 499.582031 1007.371094 489.449219 C 1007.46875 489.253906 1007.371094 488.957031 1007.273438 488.761719 C 1006.09375 486.597656 1005.011719 484.335938 1004.71875 481.972656 C 1004.519531 479.90625 1005.308594 476.957031 1007.175781 475.578125 C 1007.46875 475.382812 1007.566406 475.085938 1007.566406 474.695312 C 1007.078125 468.300781 1006.683594 461.511719 1006.191406 455.019531 C 1005.796875 448.523438 1005.40625 441.738281 1004.816406 435.34375 C 1004.816406 435.046875 1004.617188 434.753906 1004.324219 434.554688 C 1004.03125 434.359375 1003.734375 434.359375 1003.441406 434.457031 C 988.992188 439.375 972.972656 439.964844 958.128906 436.03125 C 954.101562 434.949219 948.300781 432.980469 945.746094 428.359375 C 943.582031 424.519531 944.074219 419.503906 944.761719 415.273438 C 948.203125 392.15625 955.574219 370.019531 966.679688 349.554688 L 974.25 351.621094 C 973.855469 353 973.460938 354.277344 973.070312 355.65625 C 971.792969 354.96875 970.613281 354.179688 969.433594 353.292969 C 969.039062 353 968.351562 353.097656 968.058594 353.492188 C 967.761719 353.886719 967.761719 354.574219 968.253906 354.867188 C 969.726562 355.949219 971.203125 356.933594 972.773438 357.722656 C 972.871094 357.917969 973.167969 358.117188 973.363281 358.214844 C 973.460938 358.214844 973.5625 358.214844 973.5625 358.214844 C 973.660156 358.214844 973.660156 358.214844 973.757812 358.214844 C 977.886719 360.082031 982.308594 361.164062 986.828125 361.164062 C 988.894531 361.164062 990.957031 360.96875 992.921875 360.574219 C 993.414062 360.476562 993.808594 359.984375 993.710938 359.394531 C 993.609375 358.902344 993.121094 358.507812 992.53125 358.605469 C 991.644531 358.804688 990.761719 358.902344 989.875 359 L 990.5625 356.441406 C 994.199219 357.625 997.640625 359.296875 1000.882812 361.261719 C 998.523438 366.773438 996.167969 372.378906 993.710938 377.890625 C 991.253906 383.59375 988.597656 389.597656 986.238281 395.300781 C 986.042969 395.792969 986.238281 396.285156 986.632812 396.582031 C 987.027344 396.777344 987.617188 396.679688 987.910156 396.285156 C 988.304688 395.695312 989.1875 395.695312 989.875 395.894531 C 990.5625 396.089844 991.152344 396.875 991.152344 397.566406 C 991.152344 397.957031 991.351562 398.253906 991.742188 398.449219 C 991.84375 398.550781 992.039062 398.550781 992.136719 398.550781 C 992.332031 398.550781 992.53125 398.449219 992.726562 398.351562 C 1002.359375 390.777344 1013.464844 384.382812 1025.652344 379.265625 C 1033.320312 376.019531 1043.050781 379.265625 1054.746094 388.710938 C 1055.136719 389.007812 1055.824219 389.007812 1056.121094 388.613281 C 1056.515625 388.21875 1056.414062 387.53125 1056.023438 387.234375 C 1043.738281 377.199219 1033.320312 373.953125 1024.964844 377.496094 C 1013.070312 382.511719 1002.261719 388.710938 992.726562 395.992188 C 992.234375 395.105469 991.449219 394.417969 990.464844 394.121094 C 989.972656 393.925781 989.484375 393.925781 988.992188 393.925781 C 991.152344 388.90625 993.316406 383.792969 995.476562 378.773438 C 997.9375 373.070312 1000.492188 367.066406 1002.949219 361.363281 C 1003.144531 360.96875 1002.949219 360.378906 1002.554688 360.179688 C 998.917969 357.820312 995.085938 356.050781 990.957031 354.671875 L 994.101562 343.753906 C 995.578125 342.964844 996.953125 341.980469 997.835938 340.703125 C 998.523438 339.71875 998.917969 338.441406 998.820312 337.0625 L 1052.582031 347.785156 C 1051.894531 350.441406 1051.5 353 1051.304688 355.460938 C 1050.519531 365.886719 1054.746094 375.527344 1062.019531 380.054688 C 1062.019531 380.054688 1062.117188 380.152344 1062.214844 380.152344 L 1062.117188 381.628906 C 1061.332031 381.332031 1060.640625 380.9375 1059.855469 380.546875 C 1059.363281 380.25 1058.773438 380.445312 1058.578125 380.9375 C 1058.382812 381.429688 1058.480469 382.019531 1058.972656 382.21875 C 1060.152344 382.808594 1061.332031 383.398438 1062.609375 383.890625 C 1062.609375 383.890625 1062.707031 383.890625 1062.707031 383.890625 C 1067.128906 385.660156 1071.847656 386.546875 1076.664062 386.546875 C 1077.84375 386.546875 1079.121094 386.449219 1080.398438 386.351562 C 1082.167969 386.152344 1083.835938 385.859375 1085.605469 385.464844 C 1086.097656 385.367188 1086.492188 384.777344 1086.292969 384.285156 C 1086.195312 383.792969 1085.605469 383.398438 1085.117188 383.59375 C 1083.9375 383.890625 1082.660156 384.1875 1081.378906 384.285156 C 1081.378906 383.59375 1081.480469 382.808594 1081.480469 382.121094 C 1085.902344 380.839844 1090.421875 378.480469 1094.945312 374.9375 C 1096.910156 376.414062 1099.957031 376.414062 1102.21875 375.824219 C 1104.378906 375.234375 1106.445312 374.050781 1108.605469 371.886719 C 1110.179688 370.414062 1111.359375 368.9375 1112.144531 367.460938 C 1112.339844 367.460938 1112.539062 367.460938 1112.734375 367.460938 C 1115.78125 367.460938 1118.925781 365.886719 1120.988281 363.328125 C 1123.054688 360.671875 1123.9375 357.132812 1123.546875 353.492188 C 1123.25 350.835938 1122.167969 347.980469 1120.5 345.425781 C 1121.972656 344.835938 1123.25 343.851562 1124.136719 342.375 C 1125.707031 339.816406 1125.609375 336.273438 1124.035156 333.324219 C 1122.367188 330.273438 1119.417969 328.503906 1117.253906 327.519531 C 1114.894531 326.4375 1112.339844 325.847656 1109.882812 325.355469 C 1111.554688 314.042969 1106.835938 301.644531 1097.894531 294.464844 C 1094.257812 291.511719 1090.519531 289.9375 1086.984375 289.839844 C 1083.445312 289.839844 1079.316406 291.613281 1077.644531 295.152344 C 1074.007812 293.085938 1070.078125 291.808594 1066.539062 291.613281 C 1061.820312 291.21875 1057.398438 292.890625 1054.746094 296.039062 C 1052.679688 298.496094 1051.796875 301.941406 1052.289062 305.089844 C 1052.679688 307.449219 1053.859375 309.515625 1055.53125 311.1875 C 1052.484375 311.878906 1049.4375 314.140625 1047.863281 316.402344 C 1045.703125 319.550781 1045.40625 323.78125 1047.078125 327.125 C 1048.847656 330.765625 1052.976562 333.324219 1057.695312 333.914062 C 1057.105469 335.292969 1056.613281 336.472656 1056.121094 337.652344 L 1005.011719 314.335938 C 1005.308594 313.253906 1005.503906 312.171875 1005.699219 311.089844 C 1006.09375 308.53125 1004.71875 305.976562 1002.359375 304.890625 C 997.640625 302.726562 991.742188 301.054688 985.648438 300.070312 C 983.292969 299.679688 980.933594 300.761719 979.753906 302.828125 L 970.121094 298.398438 C 969.824219 298.300781 969.628906 298.300781 969.335938 298.398438 C 969.039062 298.496094 968.84375 298.695312 968.84375 298.988281 L 959.507812 327.816406 C 959.40625 328.109375 959.40625 328.40625 959.605469 328.601562 C 959.703125 328.796875 959.996094 328.996094 960.292969 329.09375 L 971.300781 331.257812 C 971.59375 336.175781 974.152344 340.605469 976.804688 342.570312 C 976.214844 344.734375 975.527344 347.097656 974.839844 349.261719 C 974.839844 349.359375 974.839844 349.359375 974.742188 349.457031 L 966.386719 347.195312 C 965.894531 347.097656 965.5 347.292969 965.304688 347.6875 C 953.902344 368.640625 946.335938 391.171875 942.796875 414.78125 C 942.109375 419.40625 941.617188 424.71875 944.074219 429.144531 C 947.023438 434.359375 953.214844 436.523438 957.636719 437.800781 C 972.382812 441.738281 988.402344 441.246094 1002.851562 436.621094 C 1003.339844 442.722656 1003.734375 448.917969 1004.128906 455.019531 C 1004.519531 461.3125 1004.914062 467.90625 1005.40625 474.203125 C 1003.242188 476.167969 1002.359375 479.613281 1002.652344 482.070312 C 1002.949219 484.726562 1004.128906 487.089844 1005.308594 489.253906 C 1002.652344 499.484375 1000.984375 515.128906 1001.375 527.128906 L 983.882812 527.128906 C 983.292969 527.128906 982.898438 527.621094 982.898438 528.113281 L 982.898438 534.804688 L 727.746094 534.804688 C 727.550781 534.804688 727.355469 534.902344 727.15625 535 L 701.996094 552.117188 C 701.996094 552.117188 701.898438 552.117188 701.898438 552.214844 C 701.898438 552.214844 701.800781 552.316406 701.800781 552.316406 C 701.800781 552.414062 701.703125 552.414062 701.703125 552.511719 C 701.703125 552.511719 701.703125 552.609375 701.601562 552.609375 C 701.601562 552.707031 701.503906 552.804688 701.503906 553.003906 L 701.503906 564.613281 C 701.503906 565.203125 701.898438 565.59375 702.488281 565.59375 L 1182.023438 565.59375 C 1182.515625 565.59375 1183.007812 565.203125 1183.007812 564.613281 L 1183.007812 553.003906 C 1183.105469 552.804688 1183.105469 552.707031 1183.007812 552.609375 Z M 1079.808594 383.988281 C 1074.597656 384.382812 1069.390625 383.695312 1064.476562 381.921875 L 1064.574219 380.644531 C 1067.523438 382.019531 1070.863281 382.710938 1074.402344 382.710938 C 1076.171875 382.710938 1078.039062 382.511719 1079.90625 382.121094 C 1079.808594 382.710938 1079.808594 383.398438 1079.808594 383.988281 Z M 1111.949219 363.230469 C 1111.359375 365.492188 1109.980469 367.65625 1107.523438 369.921875 C 1105.558594 371.886719 1103.789062 372.96875 1101.921875 373.363281 C 1099.957031 373.855469 1097.304688 373.953125 1095.925781 372.480469 C 1095.535156 372.085938 1094.945312 372.085938 1094.550781 372.378906 C 1089.832031 376.117188 1085.117188 378.675781 1080.496094 379.855469 C 1080.496094 379.855469 1080.398438 379.855469 1080.398438 379.855469 C 1080.101562 379.957031 1079.808594 379.957031 1079.511719 380.054688 C 1073.910156 381.234375 1068.308594 380.546875 1063.984375 378.085938 C 1063.789062 377.988281 1063.589844 377.890625 1063.394531 377.691406 C 1056.710938 373.5625 1052.878906 364.609375 1053.664062 354.96875 C 1053.859375 352.605469 1054.253906 350.148438 1054.941406 347.492188 L 1056.023438 347.6875 L 1055.824219 348.277344 C 1055.726562 348.472656 1055.726562 348.769531 1055.925781 349.066406 C 1056.023438 349.261719 1056.21875 349.457031 1056.515625 349.554688 L 1061.230469 351.03125 C 1061.332031 351.03125 1061.429688 351.03125 1061.527344 351.03125 C 1061.917969 351.03125 1062.3125 350.738281 1062.507812 350.34375 L 1065.949219 339.71875 C 1066.046875 339.523438 1066.046875 339.226562 1065.851562 338.929688 C 1065.65625 338.636719 1065.554688 338.539062 1065.261719 338.441406 L 1060.542969 336.964844 C 1060.347656 336.867188 1060.050781 336.964844 1059.757812 337.0625 C 1059.460938 337.160156 1059.363281 337.355469 1059.265625 337.652344 L 1059.070312 338.242188 L 1058.183594 337.847656 C 1058.773438 336.472656 1059.460938 334.898438 1060.152344 333.226562 C 1060.347656 333.027344 1060.445312 332.832031 1060.445312 332.535156 C 1060.742188 331.75 1061.132812 331.0625 1061.429688 330.273438 C 1062.707031 330.371094 1063.984375 330.273438 1065.164062 329.980469 C 1065.261719 331.75 1066.246094 333.617188 1067.816406 334.800781 C 1069.488281 335.980469 1071.648438 336.570312 1074.304688 336.667969 C 1078.628906 336.667969 1083.050781 335.585938 1086.785156 334.210938 C 1086.785156 334.210938 1086.785156 334.308594 1086.6875 334.308594 C 1085.902344 335.785156 1085.703125 337.359375 1086.195312 338.734375 C 1087.179688 341.390625 1090.421875 342.277344 1092.878906 341.585938 C 1093.960938 341.292969 1095.042969 340.800781 1096.023438 340.210938 C 1095.042969 343.457031 1094.355469 346.898438 1094.257812 350.34375 C 1094.15625 351.820312 1094.15625 353.492188 1094.746094 355.066406 C 1095.433594 356.933594 1096.714844 358.214844 1098.382812 358.707031 C 1100.152344 359.199219 1102.609375 358.605469 1103.691406 356.933594 C 1104.183594 356.148438 1105.066406 355.558594 1106.148438 355.359375 C 1107.425781 355.164062 1108.902344 355.460938 1109.785156 356.246094 C 1112.144531 358.015625 1112.539062 360.96875 1111.949219 363.230469 Z M 1058.085938 348.082031 L 1060.347656 340.996094 L 1060.640625 340.113281 L 1060.839844 339.421875 L 1063.6875 340.308594 L 1060.839844 349.0625 Z M 1004.816406 315.910156 L 1056.613281 339.523438 L 1058.480469 340.40625 L 1056.613281 346.015625 L 998.722656 334.503906 C 998.625 334.308594 998.625 334.210938 998.523438 334.011719 C 997.835938 332.4375 996.558594 331.0625 994.59375 329.683594 C 993.121094 328.601562 991.644531 327.714844 989.972656 327.027344 C 991.742188 326.734375 993.414062 326.140625 994.59375 325.160156 C 994.691406 325.257812 994.789062 325.355469 994.890625 325.355469 C 995.871094 326.042969 997.246094 326.339844 998.328125 325.945312 C 1000 325.355469 1000.984375 323.976562 1001.671875 322.699219 C 1003.144531 320.339844 1004.128906 318.074219 1004.816406 315.910156 Z M 981.71875 303.515625 C 982.503906 302.136719 984.078125 301.449219 985.648438 301.644531 C 991.546875 302.53125 997.347656 304.203125 1001.867188 306.269531 C 1003.441406 306.957031 1004.324219 308.628906 1004.03125 310.402344 C 1003.539062 314.140625 1002.160156 317.878906 1000.097656 321.617188 C 999.507812 322.601562 998.820312 323.683594 997.835938 323.976562 C 997.347656 324.175781 996.65625 323.976562 996.265625 323.683594 C 996.066406 323.585938 996.066406 323.386719 996.066406 323.289062 C 996.066406 322.894531 995.871094 322.503906 995.476562 322.304688 C 995.675781 322.207031 995.773438 322.011719 995.773438 321.8125 L 998.523438 310.304688 C 998.625 309.8125 998.328125 309.222656 997.835938 309.121094 C 997.347656 309.023438 996.757812 309.320312 996.65625 309.8125 L 993.90625 321.320312 C 993.808594 321.8125 994.101562 322.304688 994.496094 322.402344 C 994.398438 322.503906 994.300781 322.503906 994.300781 322.601562 C 993.21875 324.46875 989.285156 325.355469 986.730469 324.863281 C 984.371094 324.371094 982.40625 322.207031 982.308594 320.042969 C 982.308594 319.945312 982.308594 319.847656 982.308594 319.847656 C 982.703125 319.847656 983.09375 319.550781 983.289062 319.058594 L 986.140625 307.746094 C 986.238281 307.253906 985.945312 306.664062 985.453125 306.566406 C 984.960938 306.464844 984.371094 306.761719 984.273438 307.253906 L 981.421875 318.566406 C 981.324219 318.765625 981.421875 318.863281 981.421875 319.058594 C 981.03125 319.058594 980.636719 319.355469 980.539062 319.746094 C 980.441406 319.847656 980.144531 319.945312 979.65625 319.945312 C 979.066406 319.945312 978.671875 319.746094 978.574219 319.648438 C 978.082031 319.15625 977.984375 318.171875 978.082031 317.289062 C 978.179688 311.878906 979.359375 307.449219 981.71875 303.515625 Z M 961.964844 327.027344 L 970.613281 300.269531 L 979.164062 304.105469 C 977.199219 307.941406 976.214844 312.171875 975.820312 317.191406 C 975.722656 318.46875 975.820312 319.945312 976.902344 321.125 C 977.785156 322.011719 979.359375 322.109375 980.441406 321.910156 C 980.441406 321.910156 980.441406 321.910156 980.539062 321.910156 C 980.734375 322.503906 981.03125 323.09375 981.421875 323.683594 C 981.226562 323.585938 981.03125 323.585938 980.832031 323.484375 C 980.734375 323.484375 980.636719 323.484375 980.441406 323.484375 C 979.164062 323.585938 977.785156 324.667969 977.785156 326.042969 C 977.785156 327.125 978.476562 328.109375 978.867188 328.699219 C 979.554688 329.585938 980.34375 330.273438 981.128906 330.960938 Z M 977 349.65625 C 977.785156 347.195312 978.574219 344.539062 979.164062 342.179688 C 979.261719 341.785156 979.066406 341.292969 978.671875 341.097656 C 976.410156 339.71875 973.953125 335.785156 973.5625 331.355469 L 983.585938 333.324219 C 983.878906 336.078125 984.371094 337.75 986.4375 339.421875 C 986.828125 339.71875 987.515625 339.71875 987.8125 339.226562 C 988.105469 338.832031 988.105469 338.144531 987.617188 337.847656 C 985.945312 336.472656 985.648438 335.292969 985.355469 331.453125 C 985.355469 331.0625 985.058594 330.765625 984.765625 330.570312 C 982.996094 329.878906 981.523438 328.699219 980.441406 327.222656 C 979.949219 326.632812 979.753906 326.140625 979.753906 325.75 C 979.753906 325.550781 980.144531 325.355469 980.441406 325.257812 C 984.960938 326.734375 989.679688 328.207031 993.609375 331.0625 C 995.28125 332.242188 996.363281 333.421875 996.855469 334.703125 C 997.542969 336.175781 997.445312 337.847656 996.65625 338.832031 C 995.28125 340.703125 992.53125 342.179688 990.269531 342.179688 C 989.777344 342.179688 989.285156 342.667969 989.285156 343.160156 C 989.285156 343.652344 989.777344 344.144531 990.269531 344.144531 C 990.859375 344.144531 991.546875 344.046875 992.136719 343.851562 L 988.007812 358.507812 C 983.585938 358.707031 979.066406 357.722656 974.9375 355.949219 C 975.625 353.984375 976.3125 351.71875 977 349.65625 Z M 1088.75 452.066406 L 1159.617188 452.066406 L 1149 526.835938 L 1042.65625 526.835938 L 1053.269531 452.066406 Z M 1148.902344 528.800781 L 1148.902344 534.507812 L 1042.558594 534.507812 L 1042.558594 528.800781 Z M 1047.863281 452.066406 L 1051.304688 452.066406 L 1040.691406 526.835938 L 1037.25 526.835938 Z M 984.960938 528.800781 L 1040.492188 528.800781 L 1040.492188 534.507812 L 984.960938 534.507812 Z M 728.042969 536.476562 L 1156.667969 536.476562 L 1178.976562 552.019531 L 705.730469 552.019531 Z M 1181.140625 563.53125 L 703.570312 563.53125 L 703.570312 553.988281 L 1181.140625 553.988281 Z M 1067.226562 360.671875 C 1067.324219 360.671875 1067.425781 360.773438 1067.621094 360.773438 C 1068.011719 360.773438 1068.40625 360.574219 1068.503906 360.179688 C 1068.703125 359.6875 1068.503906 359.097656 1067.914062 358.902344 C 1066.246094 358.214844 1065.066406 357.03125 1063.886719 354.96875 C 1069.191406 351.71875 1073.515625 346.898438 1075.976562 341.195312 C 1076.171875 340.703125 1075.976562 340.113281 1075.484375 339.914062 C 1074.992188 339.71875 1074.402344 339.914062 1074.207031 340.40625 C 1071.75 346.015625 1067.523438 350.738281 1062.117188 353.785156 C 1061.625 354.082031 1061.527344 354.574219 1061.722656 355.066406 C 1062.707031 356.835938 1064.277344 359.492188 1067.226562 360.671875 Z M 1082.953125 364.902344 L 1065.066406 363.328125 C 1064.769531 363.328125 1064.476562 363.425781 1064.277344 363.625 C 1064.082031 363.820312 1063.984375 364.214844 1064.082031 364.511719 C 1064.476562 366.476562 1064.867188 368.445312 1065.753906 370.3125 C 1066.441406 371.886719 1067.71875 373.953125 1069.980469 375.132812 C 1071.058594 375.726562 1072.339844 376.019531 1073.617188 376.019531 C 1075.582031 376.019531 1077.546875 375.429688 1079.21875 374.152344 C 1082.167969 371.988281 1083.445312 368.148438 1083.9375 366.082031 C 1084.035156 365.789062 1083.9375 365.492188 1083.738281 365.296875 C 1083.542969 365.101562 1083.246094 364.902344 1082.953125 364.902344 Z M 1077.941406 372.578125 C 1075.777344 374.152344 1072.929688 374.445312 1070.863281 373.363281 C 1073.222656 371.199219 1076.5625 370.214844 1079.808594 370.707031 C 1079.21875 371.496094 1078.628906 372.085938 1077.941406 372.578125 Z M 1080.789062 368.9375 C 1076.761719 368.050781 1072.238281 369.332031 1069.191406 372.183594 C 1068.40625 371.296875 1067.816406 370.3125 1067.425781 369.527344 C 1066.835938 368.25 1066.441406 366.871094 1066.144531 365.394531 L 1081.578125 366.675781 C 1081.378906 367.460938 1081.183594 368.148438 1080.789062 368.9375 Z M 1108.113281 358.3125 C 1103.691406 360.378906 1100.152344 364.117188 1098.382812 368.640625 C 1098.1875 369.132812 1098.382812 369.722656 1098.875 369.921875 C 1098.972656 370.019531 1099.171875 370.019531 1099.269531 370.019531 C 1099.660156 370.019531 1100.054688 369.824219 1100.152344 369.429688 C 1101.824219 365.394531 1104.96875 361.953125 1108.902344 360.082031 C 1109.390625 359.886719 1109.589844 359.296875 1109.390625 358.804688 C 1109.195312 358.214844 1108.605469 358.015625 1108.113281 358.3125 Z M 1104.085938 487.679688 C 1104.183594 487.679688 1104.183594 487.679688 1104.085938 487.679688 C 1104.183594 487.679688 1104.183594 487.679688 1104.085938 487.679688 C 1104.183594 487.679688 1104.183594 487.679688 1104.085938 487.679688 C 1105.753906 487.679688 1107.328125 486.992188 1108.507812 485.8125 C 1108.902344 485.417969 1108.902344 484.828125 1108.507812 484.433594 C 1108.113281 484.039062 1107.523438 484.039062 1107.132812 484.433594 C 1106.640625 484.925781 1105.953125 485.320312 1105.363281 485.515625 L 1105.953125 478.433594 C 1105.953125 477.941406 1105.558594 477.449219 1105.066406 477.351562 C 1104.574219 477.25 1104.085938 477.742188 1103.984375 478.234375 L 1103.398438 485.515625 C 1102.707031 485.320312 1102.117188 484.925781 1101.726562 484.433594 C 1101.429688 484.039062 1100.742188 483.941406 1100.351562 484.238281 C 1099.957031 484.53125 1099.859375 485.21875 1100.152344 485.613281 C 1100.9375 486.894531 1102.414062 487.679688 1104.085938 487.679688 Z M 1079.023438 400.320312 C 1073.714844 401.597656 1068.011719 400.714844 1063.394531 397.761719 C 1062.902344 397.464844 1062.3125 397.664062 1062.019531 398.058594 C 1061.722656 398.550781 1061.917969 399.140625 1062.3125 399.433594 C 1065.949219 401.695312 1070.078125 402.878906 1074.304688 402.878906 C 1076.074219 402.878906 1077.84375 402.679688 1079.511719 402.289062 C 1080.003906 402.1875 1080.398438 401.597656 1080.199219 401.105469 C 1080.101562 400.515625 1079.613281 400.222656 1079.023438 400.320312 Z M 987.417969 323.976562 C 987.515625 323.976562 987.617188 323.976562 987.714844 323.976562 C 988.105469 323.976562 988.5 323.683594 988.695312 323.289062 L 992.628906 309.515625 C 992.824219 309.023438 992.429688 308.433594 991.941406 308.335938 C 991.449219 308.238281 990.859375 308.53125 990.761719 309.023438 L 986.828125 322.796875 C 986.632812 323.289062 986.925781 323.878906 987.417969 323.976562 Z M 1037.054688 420.191406 C 1037.347656 420.191406 1037.644531 420.09375 1037.839844 419.898438 C 1038.035156 419.699219 1038.132812 419.308594 1038.035156 419.011719 C 1035.1875 407.007812 1034.792969 394.320312 1036.757812 382.21875 C 1036.855469 381.726562 1036.464844 381.136719 1035.972656 381.136719 C 1035.480469 381.039062 1034.890625 381.429688 1034.890625 381.921875 C 1032.925781 393.925781 1033.320312 406.515625 1035.875 418.421875 C 1032.53125 418.914062 1029.484375 422.257812 1028.894531 425.308594 C 1028.40625 427.667969 1029.191406 430.128906 1029.878906 432.097656 L 1034.300781 445.867188 C 1034.398438 446.261719 1034.792969 446.558594 1035.285156 446.558594 C 1035.382812 446.558594 1035.480469 446.558594 1035.578125 446.558594 C 1036.070312 446.359375 1036.367188 445.867188 1036.167969 445.277344 L 1031.746094 431.503906 C 1031.15625 429.636719 1030.46875 427.570312 1030.863281 425.703125 C 1031.453125 422.75 1034.597656 419.996094 1037.054688 420.191406 Z M 1004.421875 403.960938 C 1003.929688 403.859375 1003.441406 404.253906 1003.339844 404.84375 C 1002.554688 413.207031 1002.457031 421.570312 1003.046875 429.929688 C 1003.046875 430.421875 1003.539062 430.816406 1004.03125 430.816406 C 1004.03125 430.816406 1004.03125 430.816406 1004.128906 430.816406 C 1004.71875 430.816406 1005.109375 430.324219 1005.011719 429.734375 C 1004.421875 421.472656 1004.519531 413.207031 1005.308594 404.945312 C 1005.308594 404.453125 1004.914062 403.960938 1004.421875 403.960938 Z M 1000.097656 414.484375 C 999.605469 414.484375 999.113281 414.878906 999.015625 415.371094 C 998.625 420.78125 999.214844 426.292969 1000.492188 431.605469 C 1000.589844 432.097656 1000.984375 432.390625 1001.472656 432.390625 C 1001.570312 432.390625 1001.671875 432.390625 1001.671875 432.390625 C 1002.160156 432.292969 1002.554688 431.703125 1002.359375 431.210938 C 1001.082031 426.09375 1000.589844 420.878906 1000.882812 415.667969 C 1000.984375 414.976562 1000.589844 414.484375 1000.097656 414.484375 Z M 984.667969 398.15625 C 978.375 406.714844 971.300781 414.683594 963.632812 421.964844 C 963.242188 422.355469 963.242188 422.945312 963.632812 423.339844 C 963.832031 423.535156 964.125 423.636719 964.320312 423.636719 C 964.519531 423.636719 964.8125 423.535156 965.011719 423.339844 C 972.773438 415.960938 979.949219 407.894531 986.339844 399.238281 C 986.632812 398.84375 986.535156 398.15625 986.140625 397.859375 C 985.648438 397.664062 985.058594 397.761719 984.667969 398.15625 Z M 1010.910156 477.351562 C 1010.515625 476.957031 1009.925781 476.957031 1009.535156 477.351562 C 1008.648438 478.332031 1007.960938 480.105469 1009.925781 483.351562 C 1013.757812 489.648438 1018.28125 495.648438 1023.292969 501.058594 C 1023.488281 501.257812 1023.785156 501.355469 1023.980469 501.355469 C 1024.179688 501.355469 1024.472656 501.257812 1024.667969 501.058594 C 1025.0625 500.664062 1025.0625 500.074219 1024.667969 499.683594 C 1019.753906 494.371094 1015.332031 488.566406 1011.5 482.269531 C 1011.007812 481.480469 1010.023438 479.515625 1010.8125 478.628906 C 1011.402344 478.332031 1011.300781 477.644531 1010.910156 477.351562 Z M 724.699219 193.234375 L 782.097656 193.234375 C 782.6875 193.234375 783.082031 192.839844 783.082031 192.25 C 783.082031 191.660156 782.6875 191.265625 782.097656 191.265625 L 723.226562 191.265625 C 722.929688 191.265625 722.636719 191.460938 722.441406 191.660156 C 722.242188 191.953125 722.242188 192.25 722.339844 192.640625 L 791.140625 375.332031 C 791.238281 375.726562 791.632812 375.921875 792.027344 375.921875 L 910.460938 375.921875 C 910.757812 375.921875 911.050781 375.726562 911.246094 375.527344 C 911.445312 375.234375 911.445312 374.9375 911.34375 374.644531 L 842.546875 191.953125 C 842.445312 191.558594 842.054688 191.363281 841.660156 191.363281 L 813.550781 191.363281 C 812.960938 191.363281 812.566406 191.757812 812.566406 192.347656 C 812.566406 192.9375 812.960938 193.332031 813.550781 193.332031 L 840.972656 193.332031 L 909.085938 373.953125 L 792.8125 373.953125 Z M 777.875 398.550781 C 777.875 398.648438 777.972656 398.746094 778.070312 398.84375 C 778.070312 398.84375 778.070312 398.84375 778.167969 398.941406 C 778.265625 399.039062 778.265625 399.039062 778.363281 399.140625 C 778.464844 399.238281 778.5625 399.238281 778.757812 399.238281 L 918.128906 399.238281 C 918.519531 399.238281 918.816406 399.039062 919.011719 398.648438 L 925.5 385.269531 C 925.597656 385.167969 925.597656 385.070312 925.597656 384.972656 C 925.597656 384.875 925.597656 384.777344 925.597656 384.675781 L 849.328125 182.019531 C 849.230469 181.625 848.835938 181.425781 848.441406 181.425781 L 822.691406 181.425781 C 822.101562 181.425781 821.707031 181.820312 821.707031 182.410156 C 821.707031 183 822.101562 183.394531 822.691406 183.394531 L 847.753906 183.394531 L 923.238281 383.792969 L 785.933594 383.792969 L 710.449219 183.394531 L 782.589844 183.394531 C 783.179688 183.394531 783.574219 183 783.574219 182.410156 C 783.574219 181.820312 783.179688 181.425781 782.589844 181.425781 L 709.074219 181.425781 C 708.976562 181.425781 708.875 181.425781 708.777344 181.425781 C 708.777344 181.425781 708.679688 181.425781 708.679688 181.425781 C 708.582031 181.425781 708.582031 181.527344 708.484375 181.527344 C 708.484375 181.527344 708.386719 181.625 708.386719 181.625 C 708.386719 181.625 708.285156 181.722656 708.285156 181.722656 C 708.285156 181.722656 708.285156 181.722656 708.285156 181.820312 C 708.285156 181.820312 708.285156 181.820312 708.285156 181.917969 L 701.703125 195.398438 C 701.601562 195.691406 701.601562 195.890625 701.703125 196.183594 Z M 923.140625 385.757812 L 917.636719 397.171875 L 780.429688 397.171875 L 785.933594 385.757812 Z M 708.976562 184.871094 L 784.261719 384.777344 L 778.953125 395.792969 L 703.667969 195.890625 Z M 708.976562 184.871094 " fill-opacity="1" fill-rule="nonzero"/></g><path fill="#e4a117" d="M 833.503906 127.023438 C 816.203125 127.320312 799.988281 134.207031 787.605469 146.503906 C 775.21875 158.800781 768.242188 175.132812 767.945312 192.347656 C 767.652344 205.039062 770.992188 217.433594 777.578125 228.253906 C 790.160156 249.011719 796.746094 272.132812 796.746094 295.25 L 796.746094 298.988281 C 796.746094 299.578125 797.136719 299.972656 797.726562 299.972656 L 871.246094 299.972656 C 871.835938 299.972656 872.226562 299.578125 872.226562 298.988281 L 872.226562 296.726562 C 872.226562 272.132812 878.714844 248.71875 891.097656 228.945312 C 897.683594 218.417969 901.125 206.21875 901.125 193.726562 C 901.125 175.722656 894.046875 158.898438 881.269531 146.207031 C 868.492188 133.617188 851.488281 126.730469 833.503906 127.023438 Z M 794.1875 161.554688 C 799.890625 154.273438 806.671875 148.570312 813.257812 145.519531 C 816.597656 143.945312 819.742188 143.15625 822.398438 143.15625 C 824.855469 143.15625 827.015625 143.847656 828.6875 145.125 C 836.15625 150.929688 832.71875 167.753906 821.21875 182.609375 C 809.621094 197.464844 794.1875 204.839844 786.71875 199.039062 C 779.25 193.234375 782.589844 176.410156 794.1875 161.554688 Z M 1018.773438 316.007812 L 1010.515625 312.269531 C 1010.222656 312.171875 1009.925781 312.171875 1009.730469 312.269531 C 1009.433594 312.371094 1009.238281 312.566406 1009.238281 312.859375 L 1000.6875 339.324219 C 1000.589844 339.621094 1000.589844 339.914062 1000.785156 340.113281 C 1000.882812 340.308594 1001.179688 340.503906 1001.472656 340.605469 L 1010.417969 342.375 C 1010.515625 342.375 1010.515625 342.375 1010.613281 342.375 C 1011.007812 342.375 1011.402344 342.078125 1011.597656 341.6875 L 1019.460938 317.191406 C 1019.460938 316.796875 1019.164062 316.304688 1018.773438 316.007812 Z M 833.503906 127.023438 Z M 833.503906 127.023438 " fill-opacity="1" fill-rule="nonzero"/><path fill="#ca8a04" d="M 972.183594 295.25 L 960.390625 332.046875 C 960.292969 332.339844 960.09375 332.535156 959.898438 332.636719 C 959.800781 332.734375 959.605469 332.734375 959.40625 332.734375 C 959.308594 332.734375 959.210938 332.734375 959.113281 332.734375 L 948.300781 329.289062 C 947.808594 329.09375 947.515625 328.601562 947.710938 328.011719 L 959.503906 291.21875 C 959.605469 290.921875 959.800781 290.726562 959.996094 290.628906 C 960.195312 290.527344 960.488281 290.527344 960.785156 290.527344 L 971.59375 293.972656 C 972.085938 294.167969 972.382812 294.757812 972.183594 295.25 Z M 1020.050781 259.34375 C 1013.757812 259.34375 1008.648438 264.457031 1008.648438 270.753906 C 1008.648438 277.050781 1013.757812 282.167969 1020.050781 282.167969 C 1026.339844 282.167969 1031.453125 277.050781 1031.453125 270.753906 C 1031.453125 264.457031 1026.242188 259.34375 1020.050781 259.34375 Z M 848.34375 339.421875 L 820.726562 339.421875 C 820.136719 339.421875 819.742188 339.816406 819.742188 340.40625 C 819.742188 348.574219 826.425781 355.261719 834.585938 355.261719 C 842.742188 355.261719 849.425781 348.574219 849.425781 340.40625 C 849.328125 339.816406 848.835938 339.421875 848.34375 339.421875 Z M 848.34375 339.421875 " fill-opacity="1" fill-rule="nonzero"/><path fill="#737373" d="M 876.847656 298.007812 L 792.222656 298.007812 C 791.632812 298.007812 791.238281 298.398438 791.238281 298.988281 L 791.238281 314.535156 C 791.238281 315.125 791.632812 315.515625 792.222656 315.515625 L 798.808594 315.515625 L 798.808594 340.40625 C 798.808594 340.996094 799.203125 341.390625 799.792969 341.390625 L 869.179688 341.390625 C 869.769531 341.390625 870.164062 340.996094 870.164062 340.40625 L 870.164062 315.515625 L 876.75 315.515625 C 877.339844 315.515625 877.730469 315.125 877.730469 314.535156 L 877.730469 298.988281 C 877.832031 298.398438 877.339844 298.007812 876.847656 298.007812 Z M 800.773438 328.40625 L 868.199219 328.40625 L 868.199219 332.144531 L 800.773438 332.144531 Z M 868.296875 326.4375 L 800.871094 326.4375 L 800.871094 322.796875 L 868.296875 322.796875 Z M 800.773438 339.421875 L 800.773438 334.109375 L 868.199219 334.109375 L 868.199219 339.421875 Z M 868.296875 320.828125 L 800.871094 320.828125 L 800.871094 315.515625 L 868.296875 315.515625 Z M 875.863281 313.550781 L 793.207031 313.550781 L 793.207031 299.972656 L 875.863281 299.972656 Z M 822.789062 183.886719 C 835.074219 168.144531 838.222656 150.144531 829.964844 143.648438 C 821.707031 137.15625 805 144.730469 792.714844 160.375 C 786.816406 167.949219 782.886719 176.214844 781.410156 183.691406 C 779.9375 191.363281 781.410156 197.464844 785.539062 200.609375 C 787.605469 202.183594 790.0625 202.972656 792.910156 202.972656 C 801.660156 202.972656 813.453125 195.789062 822.789062 183.886719 Z M 786.71875 199.039062 C 783.179688 196.382812 782 190.96875 783.277344 184.082031 C 784.65625 176.902344 788.488281 168.933594 794.1875 161.652344 C 803.035156 150.242188 814.238281 143.257812 822.398438 143.257812 C 824.855469 143.257812 827.015625 143.945312 828.6875 145.222656 C 836.15625 151.027344 832.71875 167.851562 821.21875 182.707031 C 809.621094 197.5625 794.1875 204.941406 786.71875 199.039062 Z M 765.980469 494.269531 L 778.070312 473.414062 C 778.363281 472.921875 778.167969 472.332031 777.675781 472.039062 C 777.183594 471.742188 776.59375 471.9375 776.300781 472.429688 L 764.898438 492.105469 C 759.691406 480.890625 754.480469 469.773438 749.566406 459.542969 C 736.199219 431.605469 725.488281 409.863281 725.289062 409.46875 C 725.09375 408.976562 724.503906 408.78125 724.011719 408.976562 C 723.519531 409.171875 723.324219 409.765625 723.519531 410.257812 C 723.71875 410.648438 734.039062 431.40625 746.914062 458.460938 L 717.425781 450.789062 C 716.9375 450.691406 716.347656 450.984375 716.246094 451.476562 C 716.148438 451.96875 716.445312 452.558594 716.9375 452.65625 L 747.996094 460.722656 C 758.707031 483.15625 771.089844 509.519531 780.820312 531.949219 C 781.019531 532.34375 781.3125 532.539062 781.707031 532.539062 C 781.804688 532.539062 782 532.539062 782.097656 532.441406 C 782.589844 532.246094 782.789062 531.65625 782.589844 531.164062 C 777.578125 519.652344 771.878906 506.863281 765.980469 494.269531 Z M 837.925781 469.773438 L 808.832031 477.84375 C 811.390625 458.460938 814.535156 442.523438 814.535156 442.230469 C 814.632812 441.738281 814.335938 441.148438 813.746094 441.046875 C 813.257812 440.949219 812.667969 441.246094 812.566406 441.835938 C 812.46875 442.128906 809.226562 458.855469 806.671875 478.925781 C 806.671875 478.925781 806.671875 479.023438 806.671875 479.023438 C 806.277344 481.875 805.984375 484.726562 805.589844 487.679688 L 796.054688 481.679688 C 795.566406 481.382812 794.976562 481.480469 794.679688 481.972656 C 794.386719 482.464844 794.484375 483.054688 794.976562 483.351562 L 805.296875 489.84375 C 804.117188 500.863281 803.230469 512.078125 803.425781 521.71875 C 803.425781 522.210938 803.917969 522.703125 804.410156 522.703125 C 805 522.703125 805.394531 522.210938 805.394531 521.71875 C 805.195312 509.226562 806.671875 493.878906 808.539062 479.90625 L 838.417969 471.644531 C 838.910156 471.546875 839.203125 470.957031 839.105469 470.464844 C 839.007812 469.972656 838.515625 469.675781 837.925781 469.773438 Z M 1040.394531 293.875 C 1046.980469 287.972656 1050.8125 279.609375 1050.8125 270.753906 C 1050.8125 253.734375 1036.957031 239.863281 1019.953125 239.863281 C 1002.949219 239.863281 989.089844 253.734375 989.089844 270.753906 C 989.089844 287.773438 1002.949219 301.644531 1019.953125 301.644531 C 1024.179688 301.644531 1028.207031 300.761719 1032.039062 299.1875 L 1043.050781 307.648438 C 1043.246094 307.746094 1043.441406 307.84375 1043.640625 307.84375 C 1043.835938 307.84375 1044.03125 307.746094 1044.226562 307.648438 C 1044.621094 307.351562 1044.71875 306.957031 1044.621094 306.566406 Z M 1032.828125 297.21875 C 1032.628906 297.121094 1032.433594 297.023438 1032.238281 297.023438 C 1032.140625 297.023438 1031.941406 297.023438 1031.84375 297.121094 C 1028.109375 298.792969 1024.078125 299.679688 1019.953125 299.679688 C 1004.03125 299.679688 991.054688 286.691406 991.054688 270.753906 C 991.054688 254.816406 1004.03125 241.832031 1019.953125 241.832031 C 1035.875 241.832031 1048.847656 254.816406 1048.847656 270.753906 C 1048.847656 279.214844 1045.113281 287.28125 1038.625 292.792969 C 1038.332031 293.085938 1038.234375 293.480469 1038.332031 293.875 L 1041.769531 304.007812 Z M 1039.609375 270.164062 C 1034.890625 263.277344 1027.816406 259.34375 1019.953125 259.34375 C 1012.089844 259.34375 1005.011719 263.277344 1000.292969 270.164062 C 1000.097656 270.460938 1000.097656 270.953125 1000.292969 271.246094 C 1005.011719 278.132812 1012.089844 282.070312 1019.953125 282.070312 C 1027.816406 282.070312 1034.890625 278.132812 1039.609375 271.246094 C 1039.902344 270.953125 1039.902344 270.558594 1039.609375 270.164062 Z M 1020.050781 280.101562 C 1013.070312 280.101562 1006.78125 276.65625 1002.457031 270.65625 C 1006.78125 264.65625 1013.171875 261.210938 1020.050781 261.210938 C 1026.929688 261.210938 1033.320312 264.65625 1037.644531 270.65625 C 1033.320312 276.757812 1026.929688 280.101562 1020.050781 280.101562 Z M 967.859375 292.792969 C 967.367188 292.59375 966.777344 292.890625 966.582031 293.382812 L 954.789062 330.175781 C 954.589844 330.667969 954.886719 331.257812 955.378906 331.453125 C 955.476562 331.453125 955.574219 331.453125 955.671875 331.453125 C 956.066406 331.453125 956.457031 331.160156 956.65625 330.765625 L 968.449219 293.972656 C 968.644531 293.578125 968.351562 292.988281 967.859375 292.792969 Z M 967.859375 292.792969 " fill-opacity="1" fill-rule="nonzero"/></svg>