<svg xmlns="http://www.w3.org/2000/svg" xmlns:xlink="http://www.w3.org/1999/xlink" width="50" zoomAndPan="magnify" viewBox="0 0 37.5 37.499999" height="50" preserveAspectRatio="xMidYMid meet" version="1.0"><defs><clipPath id="8ec996d117"><path d="M 0 0 L 37.007812 0 L 37.007812 37.007812 L 0 37.007812 Z M 0 0 " clip-rule="nonzero"/></clipPath></defs><g clip-path="url(#8ec996d117)"><path fill="#ffffff" d="M 18.75 0 C 18.136719 0 17.523438 0.03125 16.914062 0.0898438 C 16.300781 0.152344 15.695312 0.242188 15.09375 0.359375 C 14.488281 0.480469 13.894531 0.628906 13.308594 0.808594 C 12.71875 0.984375 12.140625 1.191406 11.574219 1.425781 C 11.007812 1.664062 10.453125 1.925781 9.910156 2.214844 C 9.371094 2.503906 8.84375 2.820312 8.332031 3.160156 C 7.824219 3.5 7.328125 3.867188 6.855469 4.257812 C 6.378906 4.644531 5.925781 5.058594 5.492188 5.492188 C 5.058594 5.925781 4.644531 6.378906 4.257812 6.855469 C 3.867188 7.328125 3.5 7.824219 3.160156 8.332031 C 2.820312 8.84375 2.503906 9.371094 2.214844 9.910156 C 1.925781 10.453125 1.664062 11.007812 1.425781 11.574219 C 1.191406 12.140625 0.984375 12.71875 0.808594 13.308594 C 0.628906 13.894531 0.480469 14.488281 0.359375 15.09375 C 0.242188 15.695312 0.152344 16.300781 0.0898438 16.914062 C 0.03125 17.523438 0 18.136719 0 18.75 C 0 19.363281 0.03125 19.976562 0.0898438 20.585938 C 0.152344 21.199219 0.242188 21.804688 0.359375 22.40625 C 0.480469 23.011719 0.628906 23.605469 0.808594 24.191406 C 0.984375 24.78125 1.191406 25.359375 1.425781 25.925781 C 1.664062 26.492188 1.925781 27.046875 2.214844 27.589844 C 2.503906 28.128906 2.820312 28.65625 3.160156 29.167969 C 3.5 29.675781 3.867188 30.171875 4.257812 30.644531 C 4.644531 31.121094 5.058594 31.574219 5.492188 32.007812 C 5.925781 32.441406 6.378906 32.855469 6.855469 33.242188 C 7.328125 33.632812 7.824219 34 8.332031 34.339844 C 8.84375 34.679688 9.371094 34.996094 9.910156 35.285156 C 10.453125 35.574219 11.007812 35.835938 11.574219 36.074219 C 12.140625 36.308594 12.71875 36.515625 13.308594 36.691406 C 13.894531 36.871094 14.488281 37.019531 15.09375 37.140625 C 15.695312 37.257812 16.300781 37.347656 16.914062 37.410156 C 17.523438 37.46875 18.136719 37.5 18.75 37.5 C 19.363281 37.5 19.976562 37.46875 20.585938 37.410156 C 21.199219 37.347656 21.804688 37.257812 22.40625 37.140625 C 23.011719 37.019531 23.605469 36.871094 24.191406 36.691406 C 24.78125 36.515625 25.359375 36.308594 25.925781 36.074219 C 26.492188 35.835938 27.046875 35.574219 27.589844 35.285156 C 28.128906 34.996094 28.65625 34.679688 29.167969 34.339844 C 29.675781 34 30.171875 33.632812 30.644531 33.242188 C 31.121094 32.855469 31.574219 32.441406 32.007812 32.007812 C 32.441406 31.574219 32.855469 31.121094 33.242188 30.644531 C 33.632812 30.171875 34 29.675781 34.339844 29.167969 C 34.679688 28.65625 34.996094 28.128906 35.285156 27.589844 C 35.574219 27.046875 35.835938 26.492188 36.074219 25.925781 C 36.308594 25.359375 36.515625 24.78125 36.691406 24.191406 C 36.871094 23.605469 37.019531 23.011719 37.140625 22.40625 C 37.257812 21.804688 37.347656 21.199219 37.410156 20.585938 C 37.46875 19.976562 37.5 19.363281 37.5 18.75 C 37.5 18.136719 37.46875 17.523438 37.410156 16.914062 C 37.347656 16.300781 37.257812 15.695312 37.140625 15.09375 C 37.019531 14.488281 36.871094 13.894531 36.691406 13.308594 C 36.515625 12.71875 36.308594 12.140625 36.070312 11.574219 C 35.835938 11.007812 35.574219 10.453125 35.285156 9.910156 C 34.996094 9.371094 34.679688 8.84375 34.339844 8.332031 C 34 7.824219 33.632812 7.332031 33.242188 6.855469 C 32.855469 6.382812 32.441406 5.925781 32.007812 5.492188 C 31.574219 5.058594 31.117188 4.644531 30.644531 4.257812 C 30.167969 3.867188 29.675781 3.5 29.167969 3.160156 C 28.65625 2.820312 28.128906 2.503906 27.589844 2.214844 C 27.046875 1.925781 26.492188 1.664062 25.925781 1.429688 C 25.359375 1.191406 24.78125 0.984375 24.191406 0.808594 C 23.605469 0.628906 23.011719 0.480469 22.40625 0.359375 C 21.804688 0.242188 21.199219 0.152344 20.585938 0.0898438 C 19.976562 0.03125 19.363281 0 18.75 0 Z M 28 21.214844 L 15.457031 21.214844 L 17.769531 23.535156 C 18.257812 24.015625 18.496094 24.597656 18.492188 25.277344 C 18.488281 25.773438 18.347656 26.226562 18.070312 26.636719 C 17.792969 27.050781 17.425781 27.351562 16.964844 27.539062 C 16.507812 27.730469 16.035156 27.777344 15.546875 27.683594 C 15.0625 27.589844 14.640625 27.371094 14.285156 27.023438 L 7.757812 20.496094 C 7.523438 20.265625 7.347656 20 7.21875 19.695312 C 7.09375 19.394531 7.03125 19.078125 7.03125 18.75 C 7.03125 18.421875 7.09375 18.105469 7.21875 17.804688 C 7.347656 17.5 7.523438 17.234375 7.757812 17.003906 L 14.285156 10.476562 C 14.640625 10.128906 15.0625 9.910156 15.546875 9.816406 C 16.035156 9.722656 16.507812 9.769531 16.964844 9.960938 C 17.425781 10.148438 17.792969 10.449219 18.070312 10.863281 C 18.347656 11.273438 18.488281 11.726562 18.492188 12.222656 C 18.496094 12.902344 18.257812 13.484375 17.769531 13.960938 L 15.457031 16.28125 L 28 16.28125 C 28.328125 16.28125 28.644531 16.347656 28.945312 16.472656 C 29.25 16.597656 29.515625 16.773438 29.746094 17.003906 C 29.976562 17.238281 30.15625 17.503906 30.28125 17.804688 C 30.40625 18.109375 30.46875 18.421875 30.46875 18.75 C 30.46875 19.078125 30.40625 19.390625 30.28125 19.695312 C 30.15625 19.996094 29.976562 20.261719 29.746094 20.496094 C 29.515625 20.726562 29.25 20.902344 28.945312 21.027344 C 28.644531 21.152344 28.328125 21.214844 28 21.214844 Z M 28 21.214844 " fill-opacity="1" fill-rule="nonzero"/></g></svg>