<svg xmlns="http://www.w3.org/2000/svg" xmlns:xlink="http://www.w3.org/1999/xlink" width="40" zoomAndPan="magnify" viewBox="0 0 30 44.999999" height="60" preserveAspectRatio="xMidYMid meet" version="1.0"><defs><clipPath id="b5b13f6986"><path d="M 2.398438 0 L 27.898438 0 L 27.898438 45 L 2.398438 45 Z M 2.398438 0 " clip-rule="nonzero"/></clipPath></defs><g clip-path="url(#b5b13f6986)"><path fill="#ffffff" d="M 26.898438 0.816406 C 26.074219 0 24.765625 0 24.011719 0.816406 L 3.402344 21.175781 C 2.578125 21.992188 2.578125 23.28125 3.402344 24.027344 L 24.011719 44.390625 C 24.421875 44.796875 24.972656 45 25.453125 45 C 25.933594 45 26.484375 44.796875 26.898438 44.390625 C 27.722656 43.574219 27.722656 42.285156 26.898438 41.539062 L 7.730469 22.601562 L 26.898438 3.664062 C 27.722656 2.851562 27.722656 1.628906 26.898438 0.816406 Z M 26.898438 0.816406 " fill-opacity="1" fill-rule="nonzero"/></g></svg>