<svg xmlns="http://www.w3.org/2000/svg" xmlns:xlink="http://www.w3.org/1999/xlink" width="40" zoomAndPan="magnify" viewBox="0 0 30 44.999999" height="60" preserveAspectRatio="xMidYMid meet" version="1.0"><defs><clipPath id="98d4b95a53"><path d="M 2.398438 0 L 27.59375 0 L 27.59375 45 L 2.398438 45 Z M 2.398438 0 " clip-rule="nonzero"/></clipPath></defs><g clip-path="url(#98d4b95a53)"><path fill="#ffffff" d="M 3.097656 0.816406 C 3.921875 0 5.226562 0 5.984375 0.816406 L 26.59375 21.175781 C 27.417969 21.992188 27.417969 23.28125 26.59375 24.027344 L 5.984375 44.390625 C 5.570312 44.796875 5.023438 45 4.542969 45 C 4.058594 45 3.511719 44.796875 3.097656 44.390625 C 2.273438 43.574219 2.273438 42.285156 3.097656 41.539062 L 22.265625 22.601562 L 3.097656 3.664062 C 2.273438 2.851562 2.273438 1.628906 3.097656 0.816406 Z M 3.097656 0.816406 " fill-opacity="1" fill-rule="nonzero"/></g></svg>