<svg xmlns="http://www.w3.org/2000/svg" xmlns:xlink="http://www.w3.org/1999/xlink" width="1640" zoomAndPan="magnify" viewBox="0 0 1230 693.000001" height="924" preserveAspectRatio="xMidYMid meet" version="1.0"><defs><clipPath id="a773ff842f"><path d="M 677.976562 128.820312 L 1157.082031 128.820312 L 1157.082031 543.578125 L 677.976562 543.578125 Z M 677.976562 128.820312 " clip-rule="nonzero"/></clipPath><clipPath id="127158fcf6"><path d="M 705 128.820312 L 1164 128.820312 L 1164 543.578125 L 705 543.578125 Z M 705 128.820312 " clip-rule="nonzero"/></clipPath><clipPath id="934f30d4b0"><path d="M 708.851562 146 L 1176.007812 146 L 1176.007812 543.578125 L 708.851562 543.578125 Z M 708.851562 146 " clip-rule="nonzero"/></clipPath></defs><g clip-path="url(#a773ff842f)"><path fill="#d9d9d9" d="M 1157.050781 543.195312 L 677.976562 543.195312 C 677.976562 543.195312 686.921875 454.796875 726.902344 411.964844 C 766.890625 369.132812 741.773438 348.84375 769.023438 284.359375 C 783.695312 249.636719 921.671875 115.867188 1021.453125 129.835938 C 1089.839844 139.414062 1095.171875 178.171875 1083.773438 221.796875 C 1088.335938 225.234375 1091.839844 228.390625 1092.714844 229.847656 C 1094.808594 233.332031 1091.597656 249.226562 1091.597656 249.226562 L 1092.855469 253.03125 L 1086.992188 262.363281 C 1086.992188 262.363281 1086.710938 262.292969 1086.207031 262.164062 L 1084.972656 264.800781 C 1084.972656 264.800781 1084.792969 264.550781 1084.398438 264.09375 C 1083.832031 263.410156 1082.851562 262.273438 1081.597656 260.988281 C 1081.292969 260.671875 1080.964844 260.347656 1080.625 260.019531 C 1080.570312 259.964844 1080.515625 259.910156 1080.457031 259.855469 C 1080.128906 259.535156 1079.789062 259.21875 1079.4375 258.898438 C 1079.414062 258.875 1079.394531 258.855469 1079.367188 258.832031 C 1078.984375 258.488281 1078.585938 258.140625 1078.179688 257.804688 C 1078.128906 257.761719 1078.078125 257.71875 1078.027344 257.675781 C 1077.683594 257.390625 1077.335938 257.109375 1076.976562 256.839844 C 1076.878906 256.765625 1076.785156 256.691406 1076.6875 256.621094 C 1076.304688 256.328125 1075.910156 256.050781 1075.511719 255.78125 C 1075.480469 255.757812 1075.453125 255.738281 1075.421875 255.714844 C 1074.996094 255.429688 1074.5625 255.167969 1074.128906 254.914062 C 1074.023438 254.851562 1073.914062 254.792969 1073.804688 254.734375 C 1073.566406 254.597656 1073.324219 254.484375 1073.082031 254.359375 C 1072.9375 254.738281 1072.792969 255.121094 1072.648438 255.5 L 1073.96875 257.199219 L 1072.648438 255.5 C 1053.074219 307.113281 1026.8125 356.996094 1065.945312 367.332031 C 1147.410156 388.855469 1157.050781 543.195312 1157.050781 543.195312 " fill-opacity="1" fill-rule="nonzero"/></g><g clip-path="url(#127158fcf6)"><path fill="#ff914d" d="M 810.855469 257.75 C 810.855469 256.59375 809.917969 255.652344 808.761719 255.652344 L 796.789062 255.652344 C 795.632812 255.652344 794.695312 256.59375 794.695312 257.75 C 794.695312 258.898438 795.632812 259.839844 796.789062 259.839844 L 808.761719 259.839844 C 809.917969 259.839844 810.855469 258.898438 810.855469 257.75 Z M 796.789062 250.910156 C 795.632812 250.910156 794.695312 251.851562 794.695312 253.003906 C 794.695312 254.15625 795.632812 255.097656 796.789062 255.097656 L 813.082031 255.097656 C 814.238281 255.097656 815.179688 254.15625 815.179688 253.003906 C 815.179688 251.851562 814.238281 250.910156 813.082031 250.910156 Z M 775.496094 250.910156 L 759.203125 250.910156 C 758.046875 250.910156 757.109375 251.851562 757.109375 253.003906 C 757.109375 254.15625 758.046875 255.097656 759.203125 255.097656 L 775.496094 255.097656 C 776.652344 255.097656 777.59375 254.15625 777.59375 253.003906 C 777.59375 251.851562 776.652344 250.910156 775.496094 250.910156 Z M 736.175781 250.910156 L 719.878906 250.910156 C 718.726562 250.910156 717.785156 251.851562 717.785156 253.003906 C 717.785156 254.15625 718.726562 255.097656 719.878906 255.097656 L 736.175781 255.097656 C 737.332031 255.097656 738.269531 254.15625 738.269531 253.003906 C 738.269531 251.851562 737.332031 250.910156 736.175781 250.910156 Z M 818.28125 316.195312 C 818.28125 315.046875 817.339844 314.105469 816.1875 314.105469 L 808.761719 314.105469 C 807.609375 314.105469 806.671875 315.046875 806.671875 316.195312 C 806.671875 317.351562 807.609375 318.292969 808.761719 318.292969 L 816.1875 318.292969 C 817.339844 318.292969 818.28125 317.351562 818.28125 316.195312 Z M 824.835938 306.710938 L 808.761719 306.710938 C 807.609375 306.710938 806.671875 307.652344 806.671875 308.804688 C 806.671875 309.960938 807.609375 310.898438 808.761719 310.898438 L 824.835938 310.898438 C 825.992188 310.898438 826.929688 309.960938 826.929688 308.804688 C 826.929688 307.652344 825.992188 306.710938 824.835938 306.710938 Z M 824.835938 299.320312 L 808.761719 299.320312 C 807.609375 299.320312 806.671875 300.257812 806.671875 301.410156 C 806.671875 302.566406 807.609375 303.503906 808.761719 303.503906 L 824.835938 303.503906 C 825.992188 303.503906 826.929688 302.566406 826.929688 301.410156 C 826.929688 300.257812 825.992188 299.320312 824.835938 299.320312 Z M 1162.933594 414.175781 C 1150.621094 412.277344 1145.496094 422.957031 1145.445312 423.0625 C 1145.199219 423.589844 1145.425781 424.207031 1145.945312 424.453125 C 1146.09375 424.523438 1146.242188 424.554688 1146.394531 424.554688 C 1146.785156 424.554688 1147.160156 424.328125 1147.34375 423.949219 C 1147.523438 423.570312 1151.878906 414.601562 1162.613281 416.246094 C 1163.1875 416.335938 1163.71875 415.941406 1163.808594 415.371094 C 1163.894531 414.796875 1163.5 414.265625 1162.933594 414.175781 Z M 1071.097656 253.507812 L 1073.96875 257.199219 C 1076.960938 261.050781 1078.6875 265.730469 1078.914062 270.601562 L 1079.054688 273.582031 C 1079.082031 274.199219 1079.839844 274.46875 1080.257812 274.015625 L 1083.332031 270.617188 C 1083.832031 270.070312 1084.164062 269.386719 1084.292969 268.65625 L 1084.972656 264.800781 C 1084.972656 264.800781 1078.027344 255.824219 1071.097656 253.507812 Z M 1110.972656 415.148438 L 1100.886719 397.109375 C 1100.886719 397.109375 1100.679688 396.84375 1100.277344 396.460938 L 1084.679688 396.460938 C 1082.238281 398.015625 1079.539062 400.328125 1076.59375 403.667969 L 1100.886719 434.636719 Z M 973.054688 382.726562 L 993.09375 382.726562 C 993.753906 339.261719 999.984375 325.15625 999.984375 325.15625 L 1012.03125 321.605469 L 1012.03125 320.992188 C 1001.191406 320.992188 988.335938 320.980469 973.054688 320.957031 Z M 973.054688 309.824219 L 973.054688 317.824219 C 976.511719 317.824219 979.925781 317.828125 983.300781 317.832031 L 983.300781 309.824219 Z M 983.300781 282.363281 L 983.300781 268.808594 C 979.792969 268.804688 976.152344 268.800781 972.363281 268.796875 L 972.363281 282.363281 Z M 969.21875 268.792969 C 966.339844 268.789062 963.382812 268.785156 960.335938 268.78125 C 959.652344 268.78125 958.964844 268.777344 958.28125 268.777344 L 958.28125 282.363281 L 969.21875 282.363281 Z M 955.140625 268.773438 C 951.484375 268.765625 947.835938 268.761719 944.203125 268.753906 L 944.203125 282.363281 L 955.140625 282.363281 Z M 951.25 309.824219 L 944.203125 309.824219 L 944.203125 317.777344 C 946.554688 317.785156 948.90625 317.789062 951.25 317.789062 Z M 951.25 320.925781 C 942.550781 320.910156 933.917969 320.894531 925.578125 320.878906 L 925.578125 382.726562 L 951.25 382.726562 Z M 925.578125 317.742188 C 930.722656 317.753906 935.894531 317.765625 941.066406 317.773438 L 941.066406 309.824219 L 925.578125 309.824219 Z M 925.578125 282.363281 L 941.066406 282.363281 L 941.066406 268.746094 C 935.828125 268.738281 930.648438 268.726562 925.578125 268.71875 Z M 986.441406 317.832031 C 990.152344 317.835938 993.796875 317.839844 997.378906 317.839844 L 997.378906 309.824219 L 986.441406 309.824219 Z M 986.441406 282.363281 L 992.804688 282.363281 L 992.804688 268.820312 C 990.738281 268.816406 988.613281 268.816406 986.441406 268.8125 Z M 1000.519531 317.84375 C 1004.261719 317.84375 1007.910156 317.847656 1011.457031 317.847656 L 1011.457031 309.824219 L 1000.519531 309.824219 Z M 1021.941406 317.84375 C 1022.902344 317.84375 1023.847656 317.84375 1024.792969 317.84375 L 1025.535156 317.625 L 1025.535156 309.824219 L 1021.941406 309.824219 Z M 915.671875 221.066406 L 880.726562 221.066406 L 880.726562 261.320312 L 891.203125 261.320312 C 892.359375 261.320312 893.300781 262.257812 893.300781 263.414062 C 893.300781 264.558594 892.367188 265.496094 891.222656 265.503906 C 899.152344 265.523438 907.34375 265.542969 915.671875 265.5625 Z M 915.671875 268.695312 C 902.683594 268.667969 890.710938 268.640625 880.726562 268.613281 L 880.726562 268.714844 L 891.203125 268.714844 C 892.359375 268.714844 893.300781 269.652344 893.300781 270.808594 C 893.300781 271.960938 892.359375 272.898438 891.203125 272.898438 L 880.726562 272.898438 L 880.726562 276.109375 L 882.554688 276.109375 C 883.710938 276.109375 884.648438 277.046875 884.648438 278.203125 C 884.648438 279.355469 883.710938 280.292969 882.554688 280.292969 L 880.726562 280.292969 L 880.726562 282.363281 L 915.671875 282.363281 Z M 915.671875 309.824219 L 879.765625 309.824219 L 879.765625 317.636719 C 891.140625 317.664062 903.261719 317.695312 915.671875 317.722656 Z M 915.671875 320.855469 C 902.265625 320.828125 889.941406 320.796875 879.765625 320.773438 L 879.765625 382.726562 L 915.671875 382.726562 Z M 925.578125 207.335938 L 992.804688 207.335938 L 992.804688 196.5 L 1012.03125 196.5 L 1012.03125 165.789062 L 925.578125 165.789062 Z M 1125.359375 406.492188 L 1144.683594 530.324219 L 1088.375 541.785156 C 1088.375 541.785156 1070.152344 467.679688 1069.90625 396.460938 L 1035.101562 396.460938 C 1037.105469 441.199219 1042.355469 496.902344 1055.253906 543.566406 C 1055.253906 543.566406 1007.121094 544.324219 1005.460938 533.0625 C 996.523438 472.242188 993.425781 428.046875 993.074219 396.460938 L 973.054688 396.460938 L 973.054688 543.195312 L 951.25 543.195312 L 951.25 396.460938 L 879.765625 396.460938 L 879.765625 543.195312 L 869.859375 543.195312 L 869.859375 396.460938 L 852.058594 396.460938 L 852.058594 382.726562 L 869.859375 382.726562 L 869.859375 320.746094 C 858.765625 320.714844 851.941406 320.695312 851.75 320.695312 L 851.757812 317.558594 C 857.425781 317.574219 863.488281 317.59375 869.859375 317.609375 L 869.859375 309.824219 L 852.058594 309.824219 L 852.058594 282.363281 L 861.765625 282.363281 L 861.765625 268.5625 C 855.53125 268.546875 851.886719 268.535156 851.75 268.535156 L 851.757812 265.394531 C 854.972656 265.40625 858.316406 265.414062 861.765625 265.425781 L 861.765625 221.066406 L 852.058594 221.066406 L 852.058594 207.335938 L 861.765625 207.335938 L 861.765625 190 C 867.925781 185.414062 874.257812 180.921875 880.726562 176.582031 L 880.726562 207.335938 L 915.671875 207.335938 L 915.671875 165.789062 L 897.664062 165.789062 C 903.597656 162.207031 909.609375 158.789062 915.671875 155.582031 C 917.953125 154.375 920.242188 153.199219 922.53125 152.054688 C 923.546875 151.550781 924.5625 151.050781 925.578125 150.558594 L 925.578125 152.054688 L 1012.03125 152.054688 L 1012.03125 128.953125 C 1015.203125 129.109375 1018.347656 129.402344 1021.453125 129.835938 C 1021.617188 129.859375 1021.773438 129.886719 1021.941406 129.910156 L 1021.941406 152.054688 L 1074.625 152.054688 C 1078.636719 156.222656 1081.660156 160.828125 1083.839844 165.789062 L 1021.941406 165.789062 L 1021.941406 196.5 L 1039.589844 196.5 L 1039.589844 207.335938 L 1086.914062 207.335938 C 1086.160156 211.835938 1085.15625 216.421875 1083.964844 221.066406 L 1082.792969 221.066406 C 1076.550781 216.46875 1068.632812 211.546875 1062.675781 209.617188 C 1051.902344 206.128906 1033.378906 211.429688 1033.378906 211.429688 L 1029.023438 211.5625 C 1025.921875 211.652344 1023.140625 213.476562 1021.828125 216.277344 L 1016.855469 226.859375 C 1014.902344 231.019531 1011.070312 233.996094 1006.550781 234.855469 L 992.804688 237.484375 L 992.804688 221.066406 L 925.578125 221.066406 L 925.578125 265.582031 C 948.394531 265.628906 971.738281 265.664062 992.804688 265.679688 L 992.804688 239.699219 L 1013.667969 244.164062 C 1013.8125 243.929688 1013.960938 243.730469 1014.113281 243.59375 C 1018.0625 240 1028.238281 239.328125 1035.210938 239.40625 C 1035.214844 239.40625 1035.21875 239.40625 1035.222656 239.40625 C 1035.941406 239.523438 1036.65625 239.652344 1037.371094 239.785156 C 1037.417969 239.792969 1037.46875 239.800781 1037.515625 239.808594 C 1038.195312 239.941406 1038.875 240.078125 1039.558594 240.222656 C 1039.566406 240.226562 1039.578125 240.226562 1039.589844 240.230469 L 1039.589844 265.667969 C 1055.515625 265.636719 1066.324219 265.570312 1068.796875 265.457031 C 1068.390625 266.496094 1067.980469 267.53125 1067.570312 268.566406 C 1064.1875 268.691406 1056.671875 268.777344 1039.589844 268.8125 L 1039.589844 282.363281 L 1062.097656 282.363281 C 1058.324219 291.910156 1054.765625 301.15625 1051.9375 309.824219 L 1028.679688 309.824219 L 1028.679688 316.699219 L 1034.464844 314.992188 C 1034.464844 314.992188 1034.425781 315.992188 1034.367188 317.832031 C 1039.972656 317.824219 1045.058594 317.816406 1049.511719 317.800781 C 1049.210938 318.859375 1048.929688 319.90625 1048.667969 320.945312 C 1044.667969 320.960938 1039.910156 320.972656 1034.277344 320.980469 C 1034.003906 331.253906 1033.644531 353.957031 1034.578125 382.726562 L 1070.097656 382.726562 C 1070.890625 357.511719 1074.285156 333.300781 1081.929688 313.613281 C 1082.246094 312.804688 1082.894531 311.207031 1082.894531 311.207031 L 1124.78125 318.898438 Z M 820.113281 215.816406 L 820.113281 211.546875 C 820.113281 208.972656 818.023438 206.886719 815.449219 206.886719 L 813.042969 206.886719 C 812.324219 198.597656 807.402344 163.734375 775.183594 156.402344 L 774.652344 153.628906 C 774.578125 151.804688 773.074219 150.359375 771.242188 150.359375 L 754.691406 150.359375 C 752.882812 150.359375 751.382812 151.777344 751.289062 153.585938 L 750.824219 156.183594 C 718.132812 162.945312 713.261719 197.921875 712.550781 206.886719 L 709.730469 206.886719 C 707.152344 206.886719 705.066406 208.972656 705.066406 211.546875 L 705.066406 215.816406 C 705.066406 218.390625 707.152344 220.472656 709.730469 220.472656 L 815.449219 220.472656 C 818.023438 220.472656 820.113281 218.390625 820.113281 215.816406 Z M 824.234375 418.695312 C 824.234375 421.757812 821.734375 424.253906 818.664062 424.253906 C 815.59375 424.253906 813.097656 421.757812 813.097656 418.695312 C 813.097656 415.621094 815.59375 413.125 818.664062 413.125 C 821.734375 413.125 824.234375 415.621094 824.234375 418.695312 " fill-opacity="1" fill-rule="nonzero"/></g><path fill="#ffffff" d="M 1068.609375 284.480469 L 1067.625 278.0625 C 1067.742188 277.730469 1067.859375 277.410156 1067.972656 277.066406 C 1068.992188 273.972656 1070.144531 270.503906 1071.164062 266.855469 C 1072.511719 262.019531 1072 257.125 1070.085938 252.902344 C 1065.640625 250.21875 1060.042969 247.296875 1052.996094 244.355469 C 1048.699219 242.558594 1044.265625 241.246094 1039.871094 240.292969 C 1032.871094 240.691406 1024.367188 242.011719 1013.933594 244.660156 C 1013.695312 244.71875 1013.957031 247.1875 1014.339844 251.085938 C 1014.773438 255.425781 1015.359375 261.535156 1015.582031 268.070312 C 1015.609375 268.894531 1015.621094 269.722656 1015.617188 270.550781 C 1013.304688 273.105469 1010.464844 277.015625 1012.324219 279.230469 C 1013.355469 280.460938 1014.378906 281.214844 1015.269531 281.683594 C 1015.105469 288.046875 1015.441406 293.765625 1018.652344 297.785156 C 1021.371094 301.183594 1027.289062 303.046875 1032.980469 303.4375 C 1035.828125 308.796875 1036.8125 317.503906 1037.5625 324.980469 C 1037.5625 324.984375 1027.421875 345.179688 1042.792969 349.296875 C 1054.953125 352.550781 1079.980469 334.238281 1079.980469 316.1875 C 1074.867188 310.503906 1071.523438 303.457031 1070.367188 295.902344 Z M 943.582031 481.890625 C 941.699219 480.632812 936.25 480.773438 936.25 480.773438 C 936.25 480.773438 934.15625 478.957031 932.066406 478.957031 C 929.972656 478.957031 919.917969 479.535156 919.917969 479.535156 C 919.917969 479.535156 917.402344 482.726562 917.402344 483.980469 C 917.402344 485.238281 920.753906 486.492188 920.753906 486.492188 C 920.753906 486.492188 919.292969 489.003906 919.917969 490.261719 C 920.546875 491.511719 925.359375 493.816406 925.359375 493.816406 C 923.898438 495.910156 929.550781 497.789062 932.945312 497.898438 C 936.332031 498.007812 940.863281 491.511719 941.699219 489.628906 C 942.535156 487.75 945.046875 485.65625 945.046875 485.65625 C 945.046875 485.65625 945.46875 483.144531 943.582031 481.890625 Z M 1159.410156 480.007812 C 1159.410156 480.003906 1159.410156 479.996094 1159.410156 479.988281 C 1159.390625 479.398438 1159.246094 478.839844 1158.917969 478.375 L 1157.960938 474.097656 L 1157.609375 472.535156 C 1157.472656 471.898438 1157.28125 471.28125 1157.066406 470.675781 C 1156.863281 470.09375 1156.640625 469.527344 1156.378906 468.976562 C 1156.359375 468.9375 1156.335938 468.902344 1156.316406 468.859375 C 1156.082031 468.390625 1155.824219 467.9375 1155.550781 467.492188 C 1155.203125 466.921875 1154.824219 466.371094 1154.414062 465.851562 C 1154.15625 465.53125 1153.890625 465.222656 1153.613281 464.921875 C 1153.058594 464.324219 1152.460938 463.765625 1151.824219 463.253906 C 1151.503906 463.003906 1151.175781 462.757812 1150.835938 462.523438 C 1150.164062 462.0625 1149.457031 461.648438 1148.710938 461.289062 C 1147.230469 460.570312 1145.625 460.0625 1143.9375 459.8125 L 1136.835938 455.878906 L 1131.527344 452.933594 L 1131.4375 452.886719 L 1132.878906 455.738281 L 1135.503906 460.910156 C 1134.878906 461.074219 1134.28125 461.328125 1133.742188 461.671875 C 1133.730469 461.679688 1133.71875 461.6875 1133.703125 461.695312 C 1133.472656 461.847656 1133.253906 462.011719 1133.046875 462.191406 C 1132.992188 462.234375 1132.941406 462.277344 1132.890625 462.328125 C 1132.679688 462.519531 1132.472656 462.730469 1132.285156 462.960938 C 1132.140625 463.136719 1132.007812 463.320312 1131.878906 463.507812 L 1131.707031 463.800781 L 1131.609375 463.976562 L 1131.292969 464.539062 L 1130.691406 465.679688 C 1130.285156 466.4375 1129.898438 467.203125 1129.523438 467.980469 C 1128.769531 469.527344 1128.042969 471.089844 1127.425781 472.714844 C 1127.027344 473.765625 1127.332031 474.992188 1128.253906 475.726562 C 1129.402344 476.632812 1131.066406 476.441406 1131.976562 475.300781 C 1133.058594 473.9375 1134.03125 472.515625 1134.976562 471.074219 C 1135.449219 470.355469 1135.910156 469.632812 1136.355469 468.894531 L 1137.3125 467.308594 L 1137.660156 467.308594 L 1138.726562 467.289062 L 1139.0625 467.941406 L 1139.660156 469.121094 C 1139.382812 469.160156 1139.109375 469.199219 1138.839844 469.269531 C 1137.394531 469.636719 1136.046875 470.605469 1135.238281 471.71875 L 1128.226562 481.128906 C 1127.644531 481.917969 1127.761719 483.039062 1128.523438 483.683594 C 1129.3125 484.355469 1130.503906 484.257812 1131.171875 483.464844 L 1138.757812 474.519531 C 1139.132812 474.082031 1139.507812 473.902344 1139.960938 473.8125 C 1140.074219 473.796875 1140.183594 473.78125 1140.292969 473.785156 L 1140.871094 473.796875 L 1142.039062 473.828125 L 1142.507812 474.742188 L 1143.011719 475.742188 C 1142.777344 475.804688 1142.550781 475.867188 1142.324219 475.957031 C 1141.777344 476.171875 1141.273438 476.472656 1140.816406 476.84375 L 1140.25 477.335938 L 1139.222656 478.257812 C 1137.867188 479.507812 1136.542969 480.785156 1135.253906 482.113281 C 1133.980469 483.460938 1132.726562 484.824219 1131.585938 486.328125 C 1131.117188 486.953125 1131.003906 487.804688 1131.367188 488.550781 C 1131.878906 489.605469 1133.15625 490.046875 1134.214844 489.53125 C 1135.914062 488.707031 1137.503906 487.746094 1139.074219 486.761719 C 1140.628906 485.757812 1142.140625 484.703125 1143.628906 483.621094 L 1144.730469 482.796875 L 1144.902344 482.664062 L 1145.4375 482.589844 C 1145.757812 482.546875 1146.078125 482.488281 1146.402344 482.429688 L 1147.804688 485.203125 L 1135.609375 490.347656 C 1134.734375 490.722656 1134.261719 491.707031 1134.550781 492.628906 C 1134.855469 493.617188 1135.90625 494.164062 1136.890625 493.855469 L 1150.09375 489.726562 L 1150.125 489.78125 L 1150.136719 489.808594 L 1150.476562 489.617188 L 1150.515625 489.59375 L 1151.777344 489.199219 C 1152.117188 489.089844 1152.445312 488.894531 1152.703125 488.621094 L 1152.78125 488.539062 L 1153.273438 488.019531 L 1153.3125 487.996094 L 1153.425781 487.929688 L 1157.207031 485.820312 C 1157.207031 485.820312 1157.363281 485.59375 1157.585938 485.230469 C 1157.65625 485.113281 1157.734375 484.980469 1157.820312 484.832031 C 1157.890625 484.707031 1157.964844 484.578125 1158.042969 484.433594 C 1158.183594 484.175781 1158.324219 483.898438 1158.46875 483.601562 C 1158.695312 483.109375 1158.910156 482.574219 1159.082031 482.027344 C 1159.117188 481.910156 1159.148438 481.792969 1159.179688 481.675781 C 1159.332031 481.117188 1159.421875 480.546875 1159.410156 480.007812 Z M 925.75 474.976562 C 925.75 474.976562 920.425781 477.421875 917.179688 478.886719 C 913.925781 480.355469 911.976562 478.359375 911.421875 476.535156 C 910.859375 474.710938 917.089844 471.609375 918.742188 469.410156 C 920.394531 467.210938 931.976562 464.433594 931.976562 464.433594 L 929.648438 477.191406 L 925.75 474.976562 " fill-opacity="1" fill-rule="nonzero"/><path fill="#ffffff" d="M 892.25 263.414062 C 892.25 262.832031 891.78125 262.367188 891.203125 262.367188 L 875.128906 262.367188 C 874.550781 262.367188 874.082031 262.832031 874.082031 263.414062 C 874.082031 263.992188 874.550781 264.457031 875.128906 264.457031 L 891.203125 264.457031 C 891.78125 264.457031 892.25 263.992188 892.25 263.414062 Z M 892.25 270.808594 C 892.25 270.230469 891.78125 269.761719 891.203125 269.761719 L 875.128906 269.761719 C 874.550781 269.761719 874.082031 270.230469 874.082031 270.808594 C 874.082031 271.386719 874.550781 271.851562 875.128906 271.851562 L 891.203125 271.851562 C 891.78125 271.851562 892.25 271.386719 892.25 270.808594 Z M 883.601562 278.203125 C 883.601562 277.621094 883.128906 277.15625 882.554688 277.15625 L 875.128906 277.15625 C 874.550781 277.15625 874.082031 277.621094 874.082031 278.203125 C 874.082031 278.78125 874.550781 279.246094 875.128906 279.246094 L 882.554688 279.246094 C 883.128906 279.246094 883.601562 278.78125 883.601562 278.203125 Z M 825.882812 301.410156 C 825.882812 300.832031 825.417969 300.367188 824.835938 300.367188 L 808.761719 300.367188 C 808.183594 300.367188 807.714844 300.832031 807.714844 301.410156 C 807.714844 301.992188 808.183594 302.457031 808.761719 302.457031 L 824.835938 302.457031 C 825.417969 302.457031 825.882812 301.992188 825.882812 301.410156 Z M 825.882812 308.804688 C 825.882812 308.226562 825.417969 307.757812 824.835938 307.757812 L 808.761719 307.757812 C 808.183594 307.757812 807.714844 308.226562 807.714844 308.804688 C 807.714844 309.382812 808.183594 309.851562 808.761719 309.851562 L 824.835938 309.851562 C 825.417969 309.851562 825.882812 309.382812 825.882812 308.804688 Z M 817.234375 316.195312 C 817.234375 315.621094 816.761719 315.152344 816.1875 315.152344 L 808.761719 315.152344 C 808.183594 315.152344 807.714844 315.621094 807.714844 316.195312 C 807.714844 316.777344 808.183594 317.242188 808.761719 317.242188 L 816.1875 317.242188 C 816.761719 317.242188 817.234375 316.777344 817.234375 316.195312 Z M 796.789062 258.792969 L 808.761719 258.792969 C 809.34375 258.792969 809.808594 258.324219 809.808594 257.75 C 809.808594 257.167969 809.34375 256.699219 808.761719 256.699219 L 796.789062 256.699219 C 796.210938 256.699219 795.742188 257.167969 795.742188 257.75 C 795.742188 258.324219 796.210938 258.792969 796.789062 258.792969 Z M 776.546875 253.003906 C 776.546875 252.425781 776.074219 251.957031 775.496094 251.957031 L 759.203125 251.957031 C 758.621094 251.957031 758.15625 252.425781 758.15625 253.003906 C 758.15625 253.582031 758.621094 254.050781 759.203125 254.050781 L 775.496094 254.050781 C 776.074219 254.050781 776.546875 253.582031 776.546875 253.003906 Z M 737.222656 253.003906 C 737.222656 252.425781 736.753906 251.957031 736.175781 251.957031 L 719.878906 251.957031 C 719.300781 251.957031 718.832031 252.425781 718.832031 253.003906 C 718.832031 253.582031 719.300781 254.050781 719.878906 254.050781 L 736.175781 254.050781 C 736.753906 254.050781 737.222656 253.582031 737.222656 253.003906 Z M 795.742188 253.003906 C 795.742188 253.582031 796.210938 254.050781 796.789062 254.050781 L 813.082031 254.050781 C 813.660156 254.050781 814.128906 253.582031 814.128906 253.003906 C 814.128906 252.425781 813.660156 251.957031 813.082031 251.957031 L 796.789062 251.957031 C 796.210938 251.957031 795.742188 252.425781 795.742188 253.003906 Z M 906.480469 383.070312 L 696.074219 383.070312 L 696.074219 239.742188 L 906.480469 239.742188 Z M 1034.414062 379.667969 L 993.1875 379.105469 L 993.007812 396.988281 L 1035.125 397.109375 Z M 1033.882812 351.550781 L 994.699219 351.433594 L 993.367188 369.140625 L 1034.503906 369.140625 Z M 1151.746094 489.207031 L 1150.515625 489.59375 L 1150.136719 489.808594 L 1150.09375 489.726562 L 1136.890625 493.855469 C 1135.90625 494.164062 1134.855469 493.617188 1134.550781 492.628906 C 1134.261719 491.707031 1134.734375 490.722656 1135.609375 490.347656 L 1147.804688 485.203125 L 1146.402344 482.429688 C 1146.078125 482.488281 1145.757812 482.546875 1145.4375 482.589844 L 1144.902344 482.664062 L 1144.730469 482.796875 L 1143.628906 483.621094 C 1142.140625 484.703125 1140.628906 485.757812 1139.074219 486.761719 C 1137.503906 487.746094 1135.914062 488.707031 1134.214844 489.53125 C 1133.15625 490.046875 1131.878906 489.605469 1131.367188 488.550781 C 1131.003906 487.804688 1131.117188 486.953125 1131.585938 486.328125 C 1132.726562 484.824219 1133.980469 483.460938 1135.253906 482.113281 C 1136.542969 480.785156 1137.867188 479.507812 1139.222656 478.257812 L 1140.25 477.335938 L 1140.816406 476.84375 C 1141.273438 476.472656 1141.777344 476.171875 1142.324219 475.957031 C 1142.550781 475.867188 1142.777344 475.804688 1143.011719 475.742188 L 1142.039062 473.828125 L 1140.871094 473.796875 L 1140.292969 473.785156 C 1140.183594 473.78125 1140.074219 473.796875 1139.960938 473.8125 C 1139.507812 473.902344 1139.132812 474.082031 1138.757812 474.519531 L 1131.171875 483.464844 C 1130.503906 484.257812 1129.3125 484.355469 1128.523438 483.683594 C 1127.761719 483.039062 1127.644531 481.917969 1128.226562 481.128906 L 1135.238281 471.71875 C 1136.046875 470.605469 1137.394531 469.636719 1138.839844 469.269531 C 1139.109375 469.199219 1139.382812 469.160156 1139.660156 469.121094 L 1138.726562 467.289062 L 1137.660156 467.308594 L 1137.3125 467.308594 L 1136.355469 468.894531 C 1135.910156 469.632812 1135.449219 470.355469 1134.976562 471.074219 C 1134.03125 472.515625 1133.058594 473.9375 1131.976562 475.300781 C 1131.066406 476.441406 1129.402344 476.632812 1128.253906 475.726562 C 1127.332031 474.992188 1127.027344 473.765625 1127.425781 472.714844 C 1128.042969 471.089844 1128.769531 469.527344 1129.523438 467.980469 C 1129.898438 467.203125 1130.285156 466.4375 1130.691406 465.679688 L 1131.292969 464.539062 L 1131.609375 463.976562 L 1131.707031 463.800781 L 1131.878906 463.507812 C 1132.007812 463.320312 1132.140625 463.136719 1132.285156 462.960938 C 1133.097656 461.945312 1134.25 461.238281 1135.503906 460.910156 L 1131.4375 452.886719 L 1131.800781 453.089844 L 1100.886719 397.109375 C 1100.886719 397.109375 1079.363281 437.484375 1011.625 431.441406 C 945.125 425.507812 896.425781 446.410156 896.425781 446.410156 L 919.917969 479.535156 C 919.917969 479.535156 929.972656 478.957031 932.066406 478.957031 C 934.15625 478.957031 936.25 480.773438 936.25 480.773438 C 936.25 480.773438 941.699219 480.632812 943.582031 481.890625 C 945.46875 483.144531 945.046875 485.65625 945.046875 485.65625 C 945.046875 485.65625 942.535156 487.75 941.699219 489.628906 C 940.863281 491.511719 936.332031 498.007812 932.945312 497.898438 L 955.871094 530.226562 C 955.871094 530.226562 1010.597656 502.050781 1050.722656 510.683594 C 1087.589844 518.613281 1155.144531 495.355469 1155.144531 495.355469 Z M 1125.414062 398.730469 C 1125.144531 394.289062 1125.640625 387.898438 1125.300781 381.128906 L 1070.105469 381.46875 C 1069.492188 387.117188 1069.765625 393.351562 1069.878906 399.742188 L 1080.660156 399.546875 C 1093.722656 387.882812 1100.886719 397.109375 1100.886719 397.109375 L 1102.035156 399.15625 Z M 1125.074219 349.296875 L 1072.460938 350.304688 C 1071.695312 355.726562 1071.339844 361.066406 1071 367.34375 L 1125.1875 367.230469 C 1124.960938 361.476562 1125.1875 354.894531 1125.074219 349.296875 Z M 811.042969 192.875 C 810.808594 191.503906 809.621094 190.503906 808.230469 190.507812 L 717.011719 190.75 C 715.878906 190.753906 713.867188 191.574219 713.683594 192.695312 L 712.777344 204.589844 L 813.074219 204.589844 Z M 823.1875 418.695312 C 823.1875 416.199219 821.164062 414.171875 818.664062 414.171875 C 816.167969 414.171875 814.144531 416.199219 814.144531 418.695312 C 814.144531 421.1875 816.167969 423.207031 818.664062 423.207031 C 821.164062 423.207031 823.1875 421.1875 823.1875 418.695312 Z M 828.605469 418.695312 C 828.605469 424.175781 824.15625 428.625 818.664062 428.625 C 813.175781 428.625 808.726562 424.175781 808.726562 418.695312 C 808.726562 413.203125 813.175781 408.757812 818.664062 408.757812 C 824.15625 408.757812 828.605469 413.203125 828.605469 418.695312 Z M 975.699219 215.367188 L 975.699219 211.1875 L 973.609375 211.1875 L 973.609375 215.367188 Z M 970.9375 215.367188 L 970.9375 211.1875 L 968.84375 211.1875 L 968.84375 215.367188 Z M 966.175781 215.367188 L 966.175781 211.1875 L 964.078125 211.1875 L 964.078125 215.367188 Z M 961.414062 215.367188 L 961.414062 211.1875 L 959.320312 211.1875 L 959.320312 215.367188 Z M 980.804688 215.367188 L 980.804688 206.226562 L 978.710938 206.226562 L 978.710938 215.367188 Z M 951.71875 215.367188 L 951.71875 211.1875 L 949.625 211.1875 L 949.625 215.367188 Z M 946.957031 215.367188 L 946.957031 211.1875 L 944.863281 211.1875 L 944.863281 215.367188 Z M 942.191406 215.367188 L 942.191406 211.1875 L 940.097656 211.1875 L 940.097656 215.367188 Z M 937.429688 215.367188 L 937.429688 211.1875 L 935.335938 211.1875 L 935.335938 215.367188 Z M 956.824219 215.367188 L 956.824219 206.226562 L 954.730469 206.226562 L 954.730469 215.367188 Z M 927.734375 215.367188 L 927.734375 211.1875 L 925.640625 211.1875 L 925.640625 215.367188 Z M 922.972656 215.367188 L 922.972656 211.1875 L 920.878906 211.1875 L 920.878906 215.367188 Z M 918.210938 215.367188 L 918.210938 211.1875 L 916.117188 211.1875 L 916.117188 215.367188 Z M 913.445312 215.367188 L 913.445312 211.1875 L 911.355469 211.1875 L 911.355469 215.367188 Z M 932.839844 215.367188 L 932.839844 206.226562 L 930.746094 206.226562 L 930.746094 215.367188 Z M 903.75 215.367188 L 903.75 211.1875 L 901.65625 211.1875 L 901.65625 215.367188 Z M 898.988281 215.367188 L 898.988281 211.1875 L 896.894531 211.1875 L 896.894531 215.367188 Z M 894.226562 215.367188 L 894.226562 211.1875 L 892.132812 211.1875 L 892.132812 215.367188 Z M 889.464844 215.367188 L 889.464844 211.1875 L 887.371094 211.1875 L 887.371094 215.367188 Z M 908.855469 215.367188 L 908.855469 206.226562 L 906.757812 206.226562 L 906.757812 215.367188 Z M 884.871094 215.367188 L 884.871094 206.226562 L 882.773438 206.226562 L 882.773438 215.367188 Z M 758.300781 430.738281 L 711.34375 430.738281 C 710.1875 430.738281 709.246094 431.675781 709.246094 432.828125 C 709.246094 433.984375 710.1875 434.921875 711.34375 434.921875 L 758.300781 434.921875 C 759.453125 434.921875 760.394531 433.984375 760.394531 432.828125 C 760.394531 431.675781 759.453125 430.738281 758.300781 430.738281 Z M 751.441406 450.777344 C 750.769531 450.441406 750.222656 449.882812 749.917969 449.191406 C 749.75 449.871094 749.324219 450.433594 748.746094 450.777344 C 749.324219 451.113281 749.753906 451.679688 749.921875 452.359375 C 750.226562 451.667969 750.769531 451.109375 751.441406 450.777344 Z M 751.441406 458.515625 C 750.769531 458.183594 750.222656 457.625 749.917969 456.933594 C 749.75 457.613281 749.324219 458.179688 748.746094 458.515625 C 749.324219 458.859375 749.753906 459.421875 749.921875 460.101562 C 750.226562 459.410156 750.769531 458.855469 751.441406 458.515625 Z M 749.648438 465.347656 C 749.425781 465.726562 749.121094 466.039062 748.746094 466.261719 C 749.121094 466.480469 749.425781 466.792969 749.648438 467.171875 Z M 743.140625 450.777344 C 742.652344 450.488281 742.269531 450.046875 742.0625 449.5 C 741.851562 450.046875 741.464844 450.488281 740.980469 450.777344 C 741.464844 451.058594 741.851562 451.507812 742.0625 452.046875 C 742.269531 451.507812 742.652344 451.058594 743.140625 450.777344 Z M 743.140625 458.515625 C 742.652344 458.230469 742.269531 457.785156 742.0625 457.246094 C 741.851562 457.785156 741.464844 458.230469 740.980469 458.515625 C 741.464844 458.804688 741.851562 459.246094 742.0625 459.792969 C 742.269531 459.246094 742.652344 458.804688 743.140625 458.515625 Z M 743.140625 466.261719 C 742.652344 465.972656 742.269531 465.53125 742.0625 464.984375 C 741.851562 465.53125 741.464844 465.972656 740.980469 466.261719 C 741.464844 466.546875 741.851562 466.992188 742.0625 467.53125 C 742.269531 466.992188 742.652344 466.546875 743.140625 466.261719 Z M 735.378906 450.777344 C 734.800781 450.433594 734.371094 449.871094 734.203125 449.191406 C 733.898438 449.882812 733.355469 450.441406 732.679688 450.777344 C 733.355469 451.109375 733.898438 451.667969 734.203125 452.359375 C 734.371094 451.679688 734.796875 451.113281 735.378906 450.777344 Z M 735.378906 458.515625 C 734.800781 458.179688 734.371094 457.609375 734.203125 456.933594 C 733.898438 457.625 733.355469 458.183594 732.679688 458.515625 C 733.355469 458.855469 733.898438 459.410156 734.203125 460.101562 C 734.371094 459.421875 734.796875 458.859375 735.378906 458.515625 Z M 735.378906 466.261719 C 734.796875 465.921875 734.371094 465.355469 734.203125 464.679688 C 733.898438 465.371094 733.355469 465.925781 732.679688 466.261719 C 733.355469 466.59375 733.898438 467.152344 734.203125 467.84375 C 734.371094 467.167969 734.796875 466.597656 735.378906 466.261719 Z M 757.769531 445.898438 L 757.769531 447.910156 C 757.769531 449.171875 757.03125 450.246094 755.972656 450.777344 C 757.03125 451.300781 757.769531 452.382812 757.769531 453.640625 L 757.769531 455.652344 C 757.769531 456.910156 757.03125 457.992188 755.972656 458.515625 C 757.03125 459.042969 757.769531 460.121094 757.769531 461.386719 L 757.769531 471.136719 C 757.769531 472.910156 756.324219 474.347656 754.554688 474.347656 L 752.863281 474.347656 C 751.546875 474.347656 750.414062 473.554688 749.917969 472.417969 C 749.648438 473.523438 748.679688 474.347656 747.523438 474.347656 L 744.363281 474.347656 C 743.316406 474.347656 742.425781 473.675781 742.0625 472.730469 C 741.695312 473.675781 740.804688 474.347656 739.761719 474.347656 L 736.59375 474.347656 C 735.441406 474.347656 734.476562 473.523438 734.203125 472.417969 C 733.707031 473.554688 732.574219 474.347656 731.261719 474.347656 L 729.570312 474.347656 C 727.796875 474.347656 726.355469 472.910156 726.355469 471.136719 L 726.355469 469.125 C 726.355469 467.867188 727.089844 466.785156 728.148438 466.261719 C 727.089844 465.734375 726.355469 464.65625 726.355469 463.394531 L 726.355469 461.386719 C 726.355469 460.121094 727.089844 459.042969 728.148438 458.515625 C 727.089844 457.992188 726.355469 456.910156 726.355469 455.652344 L 726.355469 453.640625 C 726.355469 452.382812 727.089844 451.300781 728.148438 450.777344 C 727.089844 450.246094 726.355469 449.171875 726.355469 447.910156 L 726.355469 445.898438 C 726.355469 444.128906 727.796875 442.6875 729.570312 442.6875 L 731.261719 442.6875 C 732.574219 442.6875 733.707031 443.484375 734.203125 444.613281 C 734.476562 443.507812 735.441406 442.6875 736.59375 442.6875 L 739.761719 442.6875 C 740.804688 442.6875 741.695312 443.359375 742.0625 444.308594 C 742.425781 443.359375 743.316406 442.6875 744.363281 442.6875 L 747.523438 442.6875 C 748.679688 442.6875 749.648438 443.507812 749.917969 444.613281 C 750.414062 443.484375 751.546875 442.6875 752.863281 442.6875 L 754.554688 442.6875 C 756.324219 442.6875 757.769531 444.128906 757.769531 445.898438 Z M 721.117188 437.386719 L 716.375 437.386719 C 714.605469 437.386719 713.164062 438.828125 713.164062 440.597656 L 713.164062 443.796875 C 713.164062 445.171875 714.035156 446.335938 715.253906 446.792969 C 714.035156 447.253906 713.164062 448.421875 713.164062 449.792969 L 713.164062 452.992188 C 713.164062 454.363281 714.035156 455.53125 715.253906 455.988281 C 714.035156 456.445312 713.164062 457.609375 713.164062 458.988281 L 713.164062 462.1875 C 713.164062 463.558594 714.035156 464.726562 715.253906 465.179688 C 714.035156 465.640625 713.164062 466.804688 713.164062 468.179688 L 713.164062 471.378906 C 713.164062 473.148438 714.605469 474.589844 716.375 474.589844 L 721.117188 474.589844 C 722.890625 474.589844 724.332031 473.148438 724.332031 471.378906 L 724.332031 468.179688 C 724.332031 466.804688 723.457031 465.640625 722.238281 465.179688 C 723.457031 464.726562 724.332031 463.558594 724.332031 462.1875 L 724.332031 458.988281 C 724.332031 457.609375 723.460938 456.445312 722.242188 455.988281 C 723.460938 455.53125 724.332031 454.363281 724.332031 452.992188 L 724.332031 449.792969 C 724.332031 448.421875 723.460938 447.253906 722.242188 446.792969 C 723.460938 446.335938 724.332031 445.171875 724.332031 443.796875 L 724.332031 440.597656 C 724.332031 438.828125 722.890625 437.386719 721.117188 437.386719 Z M 715.183594 430.042969 L 715.183594 416.121094 L 757.460938 416.121094 L 757.460938 430.042969 L 715.183594 430.042969 " fill-opacity="1" fill-rule="nonzero"/><g clip-path="url(#934f30d4b0)"><path fill="#737373" d="M 729.214844 367.382812 L 726.070312 367.382812 C 725.496094 367.382812 725.023438 366.917969 725.023438 366.335938 C 725.023438 365.757812 725.496094 365.292969 726.070312 365.292969 L 729.214844 365.292969 C 729.789062 365.292969 730.261719 365.757812 730.261719 366.335938 C 730.261719 366.917969 729.789062 367.382812 729.214844 367.382812 Z M 741.304688 367.382812 L 735.257812 367.382812 C 734.675781 367.382812 734.210938 366.917969 734.210938 366.335938 C 734.210938 365.757812 734.675781 365.292969 735.257812 365.292969 L 741.304688 365.292969 C 741.882812 365.292969 742.351562 365.757812 742.351562 366.335938 C 742.351562 366.917969 741.882812 367.382812 741.304688 367.382812 Z M 753.394531 367.382812 L 747.351562 367.382812 C 746.769531 367.382812 746.304688 366.917969 746.304688 366.335938 C 746.304688 365.757812 746.769531 365.292969 747.351562 365.292969 L 753.394531 365.292969 C 753.972656 365.292969 754.441406 365.757812 754.441406 366.335938 C 754.441406 366.917969 753.972656 367.382812 753.394531 367.382812 Z M 765.484375 367.382812 L 759.4375 367.382812 C 758.863281 367.382812 758.390625 366.917969 758.390625 366.335938 C 758.390625 365.757812 758.863281 365.292969 759.4375 365.292969 L 765.484375 365.292969 C 766.066406 365.292969 766.53125 365.757812 766.53125 366.335938 C 766.53125 366.917969 766.066406 367.382812 765.484375 367.382812 Z M 777.578125 367.382812 L 771.53125 367.382812 C 770.953125 367.382812 770.484375 366.917969 770.484375 366.335938 C 770.484375 365.757812 770.953125 365.292969 771.53125 365.292969 L 777.578125 365.292969 C 778.152344 365.292969 778.625 365.757812 778.625 366.335938 C 778.625 366.917969 778.152344 367.382812 777.578125 367.382812 Z M 789.667969 367.382812 L 783.621094 367.382812 C 783.042969 367.382812 782.574219 366.917969 782.574219 366.335938 C 782.574219 365.757812 783.042969 365.292969 783.621094 365.292969 L 789.667969 365.292969 C 790.246094 365.292969 790.714844 365.757812 790.714844 366.335938 C 790.714844 366.917969 790.246094 367.382812 789.667969 367.382812 Z M 801.757812 367.382812 L 795.714844 367.382812 C 795.132812 367.382812 794.667969 366.917969 794.667969 366.335938 C 794.667969 365.757812 795.132812 365.292969 795.714844 365.292969 L 801.757812 365.292969 C 802.335938 365.292969 802.804688 365.757812 802.804688 366.335938 C 802.804688 366.917969 802.335938 367.382812 801.757812 367.382812 Z M 813.847656 367.382812 L 807.804688 367.382812 C 807.226562 367.382812 806.753906 366.917969 806.753906 366.335938 C 806.753906 365.757812 807.226562 365.292969 807.804688 365.292969 L 813.847656 365.292969 C 814.429688 365.292969 814.898438 365.757812 814.898438 366.335938 C 814.898438 366.917969 814.429688 367.382812 813.847656 367.382812 Z M 825.941406 367.382812 L 819.894531 367.382812 C 819.316406 367.382812 818.847656 366.917969 818.847656 366.335938 C 818.847656 365.757812 819.316406 365.292969 819.894531 365.292969 L 825.941406 365.292969 C 826.519531 365.292969 826.988281 365.757812 826.988281 366.335938 C 826.988281 366.917969 826.519531 367.382812 825.941406 367.382812 Z M 838.03125 367.382812 L 831.988281 367.382812 C 831.40625 367.382812 830.9375 366.917969 830.9375 366.335938 C 830.9375 365.757812 831.40625 365.292969 831.988281 365.292969 L 838.03125 365.292969 C 838.609375 365.292969 839.082031 365.757812 839.082031 366.335938 C 839.082031 366.917969 838.609375 367.382812 838.03125 367.382812 Z M 850.125 367.382812 L 844.078125 367.382812 C 843.5 367.382812 843.03125 366.917969 843.03125 366.335938 C 843.03125 365.757812 843.5 365.292969 844.078125 365.292969 L 850.125 365.292969 C 850.703125 365.292969 851.167969 365.757812 851.167969 366.335938 C 851.167969 366.917969 850.703125 367.382812 850.125 367.382812 Z M 859.308594 367.382812 L 856.167969 367.382812 C 855.589844 367.382812 855.121094 366.917969 855.121094 366.335938 C 855.121094 365.757812 855.589844 365.292969 856.167969 365.292969 L 859.308594 365.292969 C 859.890625 365.292969 860.355469 365.757812 860.355469 366.335938 C 860.355469 366.917969 859.890625 367.382812 859.308594 367.382812 Z M 866.640625 365.292969 L 890.15625 365.292969 L 890.15625 307.707031 L 866.640625 307.707031 Z M 891.203125 367.382812 L 865.59375 367.382812 C 865.011719 367.382812 864.546875 366.917969 864.546875 366.335938 L 864.546875 306.660156 C 864.546875 306.082031 865.011719 305.613281 865.59375 305.613281 L 891.203125 305.613281 C 891.78125 305.613281 892.25 306.082031 892.25 306.660156 L 892.25 366.335938 C 892.25 366.917969 891.78125 367.382812 891.203125 367.382812 Z M 865.59375 290.964844 C 865.011719 290.964844 864.546875 290.5 864.546875 289.917969 L 864.546875 264.457031 L 719.878906 264.457031 C 719.300781 264.457031 718.832031 263.992188 718.832031 263.414062 C 718.832031 262.832031 719.300781 262.367188 719.878906 262.367188 L 865.59375 262.367188 C 866.171875 262.367188 866.640625 262.832031 866.640625 263.414062 L 866.640625 289.917969 C 866.640625 290.5 866.171875 290.964844 865.59375 290.964844 Z M 768.816406 346.984375 C 768.238281 346.984375 767.769531 346.519531 767.769531 345.9375 L 767.769531 318.976562 L 719.878906 318.976562 C 719.300781 318.976562 718.832031 318.507812 718.832031 317.925781 C 718.832031 317.351562 719.300781 316.886719 719.878906 316.886719 L 768.816406 316.886719 C 769.394531 316.886719 769.867188 317.351562 769.867188 317.925781 L 769.867188 345.9375 C 769.867188 346.519531 769.394531 346.984375 768.816406 346.984375 Z M 865.59375 346.984375 L 843.394531 346.984375 C 842.816406 346.984375 842.34375 346.519531 842.34375 345.9375 C 842.34375 345.359375 842.816406 344.894531 843.394531 344.894531 L 864.546875 344.894531 L 864.546875 290.964844 L 796.789062 290.964844 C 796.210938 290.964844 795.742188 290.5 795.742188 289.917969 C 795.742188 289.339844 796.210938 288.875 796.789062 288.875 L 865.59375 288.875 C 866.171875 288.875 866.640625 289.339844 866.640625 289.917969 L 866.640625 345.9375 C 866.640625 346.519531 866.171875 346.984375 865.59375 346.984375 Z M 831.390625 346.984375 L 719.878906 346.984375 C 719.300781 346.984375 718.832031 346.519531 718.832031 345.9375 C 718.832031 345.359375 719.300781 344.894531 719.878906 344.894531 L 831.390625 344.894531 C 831.972656 344.894531 832.441406 345.359375 832.441406 345.9375 C 832.441406 346.519531 831.972656 346.984375 831.390625 346.984375 Z M 758.78125 305.507812 C 758.203125 305.507812 757.734375 305.039062 757.734375 304.464844 L 757.734375 271.671875 C 757.734375 271.089844 758.203125 270.625 758.78125 270.625 C 759.355469 270.625 759.828125 271.089844 759.828125 271.671875 L 759.828125 304.464844 C 759.828125 305.039062 759.355469 305.507812 758.78125 305.507812 Z M 796.789062 305.507812 L 777.558594 305.507812 C 776.980469 305.507812 776.511719 305.039062 776.511719 304.464844 C 776.511719 303.882812 776.980469 303.417969 777.558594 303.417969 L 796.789062 303.417969 C 797.367188 303.417969 797.832031 303.882812 797.832031 304.464844 C 797.832031 305.039062 797.367188 305.507812 796.789062 305.507812 Z M 768.816406 305.507812 L 749.585938 305.507812 C 749.007812 305.507812 748.539062 305.039062 748.539062 304.464844 C 748.539062 303.882812 749.007812 303.417969 749.585938 303.417969 L 768.816406 303.417969 C 769.394531 303.417969 769.867188 303.882812 769.867188 304.464844 C 769.867188 305.039062 769.394531 305.507812 768.816406 305.507812 Z M 739.109375 305.507812 L 719.878906 305.507812 C 719.300781 305.507812 718.832031 305.039062 718.832031 304.464844 C 718.832031 303.882812 719.300781 303.417969 719.878906 303.417969 L 739.109375 303.417969 C 739.6875 303.417969 740.15625 303.882812 740.15625 304.464844 C 740.15625 305.039062 739.6875 305.507812 739.109375 305.507812 Z M 796.789062 305.507812 C 796.210938 305.507812 795.742188 305.039062 795.742188 304.464844 L 795.742188 272.714844 L 719.878906 272.714844 C 719.300781 272.714844 718.832031 272.246094 718.832031 271.671875 C 718.832031 271.089844 719.300781 270.625 719.878906 270.625 L 796.789062 270.625 C 797.367188 270.625 797.832031 271.089844 797.832031 271.671875 L 797.832031 304.464844 C 797.832031 305.039062 797.367188 305.507812 796.789062 305.507812 Z M 719.878906 367.382812 C 719.300781 367.382812 718.832031 366.917969 718.832031 366.335938 L 718.832031 260.289062 C 718.832031 259.707031 719.300781 259.242188 719.878906 259.242188 C 720.457031 259.242188 720.925781 259.707031 720.925781 260.289062 L 720.925781 366.335938 C 720.925781 366.917969 720.457031 367.382812 719.878906 367.382812 Z M 1059.402344 257.34375 C 1059.953125 257.164062 1060.253906 256.574219 1060.078125 256.027344 C 1059.902344 255.472656 1059.308594 255.179688 1058.757812 255.351562 C 1058.691406 255.375 1052.296875 257.53125 1054.515625 265.09375 C 1054.648438 265.550781 1055.066406 265.847656 1055.519531 265.847656 C 1055.617188 265.847656 1055.714844 265.832031 1055.8125 265.804688 C 1056.371094 265.640625 1056.691406 265.058594 1056.527344 264.503906 C 1054.914062 259.019531 1058.941406 257.496094 1059.402344 257.34375 Z M 1028.363281 258.496094 C 1027.78125 257.011719 1026.6875 255.773438 1025.285156 255.015625 C 1023.886719 254.253906 1022.25 254.007812 1020.683594 254.332031 C 1020.121094 254.445312 1019.753906 254.996094 1019.867188 255.5625 C 1019.984375 256.132812 1020.535156 256.492188 1021.105469 256.378906 C 1022.167969 256.164062 1023.328125 256.335938 1024.285156 256.855469 C 1025.242188 257.371094 1026.023438 258.25 1026.417969 259.261719 C 1026.578125 259.671875 1026.976562 259.925781 1027.390625 259.925781 C 1027.519531 259.925781 1027.648438 259.902344 1027.777344 259.851562 C 1028.3125 259.640625 1028.578125 259.035156 1028.363281 258.496094 Z M 1012.320312 233.613281 C 1012.398438 233.613281 1012.472656 233.605469 1012.550781 233.585938 L 1021.410156 231.617188 C 1022.96875 231.273438 1024.292969 230.199219 1024.960938 228.75 L 1032.742188 211.75 C 1032.980469 211.222656 1032.753906 210.601562 1032.222656 210.359375 C 1031.699219 210.121094 1031.074219 210.351562 1030.839844 210.878906 L 1023.058594 227.878906 C 1022.664062 228.738281 1021.878906 229.371094 1020.957031 229.578125 L 1012.097656 231.546875 C 1011.53125 231.667969 1011.179688 232.230469 1011.300781 232.792969 C 1011.410156 233.28125 1011.84375 233.613281 1012.320312 233.613281 Z M 1018.035156 285.167969 C 1017.464844 285.132812 1016.957031 285.558594 1016.910156 286.132812 C 1016.867188 286.707031 1017.296875 287.214844 1017.875 287.257812 C 1018.171875 287.28125 1018.46875 287.292969 1018.769531 287.292969 C 1022.070312 287.292969 1025.304688 285.894531 1027.5625 283.464844 C 1027.953125 283.042969 1027.929688 282.382812 1027.503906 281.988281 C 1027.078125 281.597656 1026.417969 281.621094 1026.027344 282.042969 C 1024.027344 284.195312 1020.976562 285.402344 1018.035156 285.167969 Z M 1089.953125 253.59375 C 1090.152344 253.90625 1090.488281 254.078125 1090.835938 254.078125 C 1091.03125 254.078125 1091.222656 254.027344 1091.394531 253.914062 C 1091.886719 253.609375 1092.03125 252.957031 1091.71875 252.472656 L 1086.019531 243.492188 L 1086.019531 224.964844 C 1086.019531 224.382812 1085.550781 223.917969 1084.972656 223.917969 C 1084.390625 223.917969 1083.925781 224.382812 1083.925781 224.964844 L 1083.925781 243.796875 C 1083.925781 243.992188 1083.980469 244.1875 1084.089844 244.355469 Z M 1000.410156 237.417969 C 999.847656 237.539062 999.484375 238.101562 999.609375 238.664062 C 999.734375 239.226562 1000.292969 239.585938 1000.855469 239.464844 C 1001.144531 239.402344 1029.878906 233.28125 1050.375 240.386719 C 1072.996094 248.222656 1085.527344 262.21875 1085.652344 262.359375 C 1085.859375 262.59375 1086.148438 262.714844 1086.4375 262.714844 C 1086.683594 262.714844 1086.929688 262.628906 1087.128906 262.453125 C 1087.5625 262.066406 1087.605469 261.410156 1087.226562 260.976562 C 1087.097656 260.832031 1074.230469 246.4375 1051.0625 238.40625 C 1029.996094 231.105469 1001.605469 237.15625 1000.410156 237.417969 Z M 1026.941406 264.550781 C 1026.941406 262.957031 1026.089844 261.667969 1025.054688 261.667969 C 1024.011719 261.667969 1023.164062 262.957031 1023.164062 264.550781 C 1023.164062 266.140625 1024.011719 267.433594 1025.054688 267.433594 C 1026.089844 267.433594 1026.941406 266.140625 1026.941406 264.550781 Z M 1055.488281 296.945312 C 1044.179688 304.789062 1032.878906 303.558594 1032.878906 303.558594 C 1032.878906 303.558594 1036.242188 312.667969 1036.355469 312.640625 C 1047.238281 309.890625 1055.488281 296.945312 1055.488281 296.945312 Z M 1050.214844 248.550781 C 1049.34375 255.195312 1045.371094 263.785156 1048.125 268.398438 L 1053.769531 269.550781 C 1052.6875 266.296875 1053.054688 259.8125 1053.054688 259.8125 C 1054.652344 251.824219 1063.320312 251.21875 1064.21875 258.164062 C 1064.773438 262.480469 1062.386719 266.558594 1059.777344 269.011719 C 1061.304688 274.285156 1062.457031 285.417969 1065.226562 284.019531 C 1065.390625 283.933594 1074.242188 288.085938 1079.042969 273.390625 L 1078.914062 270.601562 C 1078.6875 265.730469 1076.960938 261.050781 1073.96875 257.199219 L 1071.105469 253.515625 C 1066.515625 250.671875 1060.589844 247.523438 1052.996094 244.355469 C 1047.175781 241.925781 1041.101562 240.371094 1035.210938 239.40625 C 1028.238281 239.328125 1018.0625 240 1014.113281 243.59375 C 1012.71875 244.855469 1011.34375 250.964844 1013.28125 251.066406 C 1021.59375 251.507812 1037.75 247.1875 1050.214844 248.550781 Z M 1175.996094 421.019531 C 1175.996094 421.019531 1167.503906 347.617188 1128.949219 320.121094 C 1128.949219 320.121094 1127.8125 319.625 1124.78125 318.898438 L 1124.851562 329.03125 L 1125.269531 392.882812 C 1134.316406 406.957031 1143.488281 426.097656 1143.488281 426.097656 L 1143.097656 459.347656 L 1143.9375 459.8125 C 1150.6875 460.820312 1156.125 465.878906 1157.609375 472.535156 L 1158.917969 478.375 C 1159.304688 478.921875 1159.425781 479.597656 1159.398438 480.308594 C 1162.609375 475.570312 1176.449219 453.261719 1175.996094 421.019531 Z M 1079.15625 315.207031 C 1079.429688 315.53125 1079.691406 315.871094 1079.980469 316.1875 C 1075.964844 334.738281 1055.234375 347.308594 1042.878906 344.859375 C 1030.53125 342.40625 1037.5625 324.984375 1037.5625 324.980469 C 1037.371094 323.085938 1037.164062 321.109375 1036.921875 319.125 C 1036.039062 319.242188 1035.175781 319.359375 1034.316406 319.472656 C 1033.917969 333.550781 1033.101562 379.085938 1037.265625 431.5 C 1050.902344 430.222656 1061.941406 426.859375 1070.757812 422.710938 C 1068.550781 384.785156 1070.230469 344.976562 1081.371094 315.128906 C 1080.632812 315.152344 1079.898438 315.175781 1079.15625 315.207031 Z M 1124.78125 318.898438 C 1122.429688 318.335938 1118.941406 317.632812 1113.957031 316.914062 Z M 1124.78125 318.898438 Z M 1088.375 541.785156 C 1088.375 541.785156 1085.515625 530.148438 1082.050781 511.683594 C 1070.722656 512.695312 1059.789062 512.632812 1050.722656 510.683594 C 1049.660156 510.453125 1048.585938 510.257812 1047.507812 510.078125 C 1049.699219 521.425781 1052.222656 532.542969 1055.152344 543.191406 L 1137.335938 543.144531 L 1131.550781 533 Z M 994.339844 430.464844 C 990.320312 363.667969 996.691406 335.589844 999.113281 327.671875 C 999.640625 325.9375 999.984375 325.15625 999.984375 325.15625 L 1001.796875 324.621094 C 999.941406 324.960938 998.917969 325.15625 998.917969 325.15625 C 998.917969 325.15625 986.703125 327.472656 980.441406 347.757812 C 973.289062 370.921875 965.558594 405.433594 955.089844 432.328125 C 966.886719 430.921875 980.089844 430.117188 994.339844 430.464844 Z M 812.863281 204.441406 C 812.863281 203.859375 812.394531 203.394531 811.816406 203.394531 L 798.476562 203.394531 C 798.480469 203.339844 798.492188 203.285156 798.492188 203.230469 L 798.492188 190.785156 C 798.492188 189.792969 797.6875 188.992188 796.695312 188.992188 L 793.105469 188.992188 C 792.113281 188.992188 791.308594 189.792969 791.308594 190.785156 L 791.308594 203.230469 C 791.308594 203.285156 791.320312 203.339844 791.328125 203.394531 L 790.742188 203.394531 C 790.160156 203.394531 789.691406 203.859375 789.691406 204.441406 C 789.691406 205.019531 790.160156 205.484375 790.742188 205.484375 L 811.816406 205.484375 C 812.394531 205.484375 812.863281 205.019531 812.863281 204.441406 Z M 784.210938 203.394531 L 734.574219 203.394531 C 734.621094 203.234375 734.652344 203.066406 734.652344 202.890625 L 734.652344 190.449219 C 734.652344 189.460938 733.847656 188.65625 732.859375 188.65625 L 729.269531 188.65625 C 728.277344 188.65625 727.476562 189.460938 727.476562 190.449219 L 727.476562 202.890625 C 727.476562 203.066406 727.507812 203.234375 727.554688 203.394531 L 715.675781 203.394531 C 715.09375 203.394531 714.628906 203.859375 714.628906 204.441406 C 714.628906 205.019531 715.09375 205.484375 715.675781 205.484375 L 784.210938 205.484375 C 784.789062 205.484375 785.257812 205.019531 785.257812 204.441406 C 785.257812 203.859375 784.789062 203.394531 784.210938 203.394531 Z M 746.472656 180.609375 C 746.535156 180.617188 746.597656 180.625 746.660156 180.625 C 747.160156 180.625 747.597656 180.265625 747.6875 179.761719 L 749.964844 166.984375 C 750.066406 166.417969 749.683594 165.871094 749.117188 165.773438 C 748.539062 165.667969 748.003906 166.046875 747.902344 166.621094 L 745.625 179.394531 C 745.527344 179.960938 745.90625 180.503906 746.472656 180.609375 Z M 749.574219 163.203125 C 750.144531 163.304688 750.6875 162.925781 750.789062 162.355469 L 752.320312 153.769531 C 752.328125 153.726562 752.328125 153.683594 752.332031 153.640625 C 752.398438 152.386719 753.4375 151.40625 754.691406 151.40625 L 756.675781 151.40625 L 756.675781 171.625 C 756.675781 172.710938 757.554688 173.59375 758.644531 173.59375 L 767.347656 173.59375 C 768.4375 173.59375 769.320312 172.710938 769.320312 171.625 L 769.320312 151.40625 L 771.242188 151.40625 C 772.515625 151.40625 773.554688 152.402344 773.605469 153.671875 C 773.609375 153.722656 773.613281 153.777344 773.625 153.828125 L 778.839844 180.894531 C 778.9375 181.394531 779.375 181.742188 779.867188 181.742188 C 779.933594 181.742188 780 181.734375 780.0625 181.722656 C 780.632812 181.613281 781.003906 181.066406 780.898438 180.5 L 775.695312 153.507812 C 775.554688 151.148438 773.617188 149.316406 771.242188 149.316406 L 769.320312 149.316406 L 769.320312 148.589844 C 769.320312 147.5 768.4375 146.617188 767.347656 146.617188 L 758.644531 146.617188 C 757.554688 146.617188 756.675781 147.5 756.675781 148.589844 L 756.675781 149.316406 L 754.691406 149.316406 C 752.34375 149.316406 750.40625 151.128906 750.246094 153.464844 L 748.726562 161.988281 C 748.625 162.558594 749.003906 163.101562 749.574219 163.203125 Z M 832.277344 498.148438 L 823.109375 428.460938 C 823.976562 427.84375 824.695312 427.042969 825.242188 426.128906 C 823.488281 427.675781 821.191406 428.625 818.664062 428.625 C 816.136719 428.625 813.835938 427.671875 812.082031 426.121094 C 812.5625 426.929688 813.179688 427.644531 813.910156 428.226562 L 804.609375 497.097656 L 807.40625 508.578125 L 818.46875 445.300781 L 829.476562 509.625 Z M 822.964844 409.746094 L 822.964844 407.828125 C 822.964844 407.246094 822.519531 406.78125 821.957031 406.707031 L 821.957031 393.242188 C 821.957031 391.875 820.851562 390.773438 819.492188 390.773438 L 817.84375 390.773438 C 816.480469 390.773438 815.375 391.875 815.375 393.242188 L 815.375 406.707031 C 814.808594 406.78125 814.371094 407.246094 814.371094 407.828125 L 814.371094 409.746094 C 815.667969 409.117188 817.125 408.757812 818.664062 408.757812 C 820.210938 408.757812 821.660156 409.117188 822.964844 409.746094 Z M 943.910156 200.6875 L 890.34375 178.667969 L 890.492188 200.394531 Z M 956.824219 206.226562 L 954.730469 206.226562 L 954.730469 215.367188 L 951.71875 215.367188 L 951.71875 211.1875 L 949.625 211.1875 L 949.625 215.367188 L 946.957031 215.367188 L 946.957031 211.1875 L 944.863281 211.1875 L 944.863281 215.367188 L 942.191406 215.367188 L 942.191406 211.1875 L 940.097656 211.1875 L 940.097656 215.367188 L 937.429688 215.367188 L 937.429688 211.1875 L 935.335938 211.1875 L 935.335938 215.367188 L 932.839844 215.367188 L 932.839844 206.226562 L 930.746094 206.226562 L 930.746094 215.367188 L 927.734375 215.367188 L 927.734375 211.1875 L 925.640625 211.1875 L 925.640625 215.367188 L 922.972656 215.367188 L 922.972656 211.1875 L 920.878906 211.1875 L 920.878906 215.367188 L 918.210938 215.367188 L 918.210938 211.1875 L 916.117188 211.1875 L 916.117188 215.367188 L 913.445312 215.367188 L 913.445312 211.1875 L 911.355469 211.1875 L 911.355469 215.367188 L 908.855469 215.367188 L 908.855469 206.226562 L 906.757812 206.226562 L 906.757812 215.367188 L 903.75 215.367188 L 903.75 211.1875 L 901.65625 211.1875 L 901.65625 215.367188 L 898.988281 215.367188 L 898.988281 211.1875 L 896.894531 211.1875 L 896.894531 215.367188 L 894.226562 215.367188 L 894.226562 211.1875 L 892.132812 211.1875 L 892.132812 215.367188 L 889.464844 215.367188 L 889.464844 211.1875 L 887.371094 211.1875 L 887.371094 215.367188 L 884.871094 215.367188 L 884.871094 206.226562 L 882.773438 206.226562 L 882.773438 215.367188 L 872.730469 215.367188 L 872.34375 151.976562 L 1008.957031 215.367188 L 980.804688 215.367188 L 980.804688 206.226562 L 978.710938 206.226562 L 978.710938 215.367188 L 975.699219 215.367188 L 975.699219 211.1875 L 973.609375 211.1875 L 973.609375 215.367188 L 970.9375 215.367188 L 970.9375 211.1875 L 968.84375 211.1875 L 968.84375 215.367188 L 966.175781 215.367188 L 966.175781 211.1875 L 964.078125 211.1875 L 964.078125 215.367188 L 961.414062 215.367188 L 961.414062 211.1875 L 959.320312 211.1875 L 959.320312 215.367188 L 956.824219 215.367188 Z M 759.347656 432.828125 C 759.347656 432.253906 758.878906 431.785156 758.300781 431.785156 L 711.34375 431.785156 C 710.765625 431.785156 710.296875 432.253906 710.296875 432.828125 C 710.296875 433.410156 710.765625 433.875 711.34375 433.875 L 758.300781 433.875 C 758.878906 433.875 759.347656 433.410156 759.347656 432.828125 Z M 756.71875 445.898438 C 756.71875 444.703125 755.75 443.730469 754.554688 443.730469 L 752.863281 443.730469 C 751.664062 443.730469 750.695312 444.703125 750.695312 445.898438 L 750.695312 447.910156 C 750.695312 449.105469 751.664062 450.074219 752.863281 450.074219 L 754.554688 450.074219 C 755.75 450.074219 756.71875 449.105469 756.71875 447.910156 Z M 756.71875 453.640625 C 756.71875 452.445312 755.75 451.476562 754.554688 451.476562 L 752.863281 451.476562 C 751.664062 451.476562 750.695312 452.445312 750.695312 453.640625 L 750.695312 455.652344 C 750.695312 456.84375 751.664062 457.816406 752.863281 457.816406 L 754.554688 457.816406 C 755.75 457.816406 756.71875 456.84375 756.71875 455.652344 Z M 756.71875 461.382812 C 756.71875 460.1875 755.75 459.21875 754.554688 459.21875 L 752.863281 459.21875 C 751.664062 459.21875 750.695312 460.1875 750.695312 461.382812 L 750.695312 471.136719 C 750.695312 472.332031 751.664062 473.300781 752.863281 473.300781 L 754.554688 473.300781 C 755.75 473.300781 756.71875 472.332031 756.71875 471.136719 Z M 750.867188 440.527344 L 755.070312 440.527344 C 755.578125 440.527344 755.992188 440.117188 755.992188 439.605469 L 755.992188 439.117188 C 755.992188 438.605469 755.578125 438.191406 755.070312 438.191406 L 750.867188 438.191406 C 750.351562 438.191406 749.941406 438.605469 749.941406 439.117188 L 749.941406 439.605469 C 749.941406 440.117188 750.351562 440.527344 750.867188 440.527344 Z M 748.957031 445.238281 C 748.957031 444.40625 748.316406 443.730469 747.523438 443.730469 L 744.363281 443.730469 C 743.570312 443.730469 742.929688 444.40625 742.929688 445.238281 L 742.929688 448.566406 C 742.929688 449.398438 743.570312 450.074219 744.363281 450.074219 L 747.523438 450.074219 C 748.316406 450.074219 748.957031 449.398438 748.957031 448.566406 Z M 748.957031 452.980469 C 748.957031 452.148438 748.316406 451.476562 747.523438 451.476562 L 744.363281 451.476562 C 743.570312 451.476562 742.929688 452.148438 742.929688 452.980469 L 742.929688 456.3125 C 742.929688 457.144531 743.570312 457.816406 744.363281 457.816406 L 747.523438 457.816406 C 748.316406 457.816406 748.957031 457.144531 748.957031 456.3125 Z M 748.957031 460.726562 C 748.957031 459.894531 748.316406 459.21875 747.523438 459.21875 L 744.363281 459.21875 C 743.570312 459.21875 742.929688 459.894531 742.929688 460.726562 L 742.929688 464.050781 C 742.929688 464.882812 743.570312 465.558594 744.363281 465.558594 L 747.523438 465.558594 C 748.316406 465.558594 748.957031 464.882812 748.957031 464.050781 Z M 743.742188 440.527344 L 747.941406 440.527344 C 748.453125 440.527344 748.867188 440.117188 748.867188 439.605469 L 748.867188 439.117188 C 748.867188 438.605469 748.453125 438.191406 747.941406 438.191406 L 743.742188 438.191406 C 743.230469 438.191406 742.816406 438.605469 742.816406 439.117188 L 742.816406 439.605469 C 742.816406 440.117188 743.230469 440.527344 743.742188 440.527344 Z M 748.957031 468.46875 C 748.957031 467.636719 748.316406 466.960938 747.523438 466.960938 L 744.363281 466.960938 C 743.570312 466.960938 742.929688 467.636719 742.929688 468.46875 L 742.929688 471.796875 C 742.929688 472.628906 743.570312 473.300781 744.363281 473.300781 L 747.523438 473.300781 C 748.316406 473.300781 748.957031 472.628906 748.957031 471.796875 Z M 741.207031 439.117188 C 741.207031 438.605469 740.792969 438.191406 740.28125 438.191406 L 736.082031 438.191406 C 735.566406 438.191406 735.15625 438.605469 735.15625 439.117188 L 735.15625 439.605469 C 735.15625 440.117188 735.566406 440.527344 736.082031 440.527344 L 740.28125 440.527344 C 740.792969 440.527344 741.207031 440.117188 741.207031 439.605469 Z M 741.191406 445.238281 C 741.191406 444.40625 740.550781 443.730469 739.761719 443.730469 L 736.59375 443.730469 C 735.804688 443.730469 735.167969 444.40625 735.167969 445.238281 L 735.167969 448.566406 C 735.167969 449.398438 735.804688 450.074219 736.59375 450.074219 L 739.761719 450.074219 C 740.550781 450.074219 741.191406 449.398438 741.191406 448.566406 Z M 741.191406 452.980469 C 741.191406 452.148438 740.550781 451.476562 739.761719 451.476562 L 736.59375 451.476562 C 735.804688 451.476562 735.167969 452.148438 735.167969 452.980469 L 735.167969 456.3125 C 735.167969 457.144531 735.804688 457.816406 736.59375 457.816406 L 739.761719 457.816406 C 740.550781 457.816406 741.191406 457.144531 741.191406 456.3125 Z M 741.191406 460.726562 C 741.191406 459.894531 740.550781 459.21875 739.761719 459.21875 L 736.59375 459.21875 C 735.804688 459.21875 735.167969 459.894531 735.167969 460.726562 L 735.167969 464.050781 C 735.167969 464.882812 735.804688 465.558594 736.59375 465.558594 L 739.761719 465.558594 C 740.550781 465.558594 741.191406 464.882812 741.191406 464.050781 Z M 741.191406 468.46875 C 741.191406 467.636719 740.550781 466.960938 739.761719 466.960938 L 736.59375 466.960938 C 735.804688 466.960938 735.167969 467.636719 735.167969 468.46875 L 735.167969 471.796875 C 735.167969 472.628906 735.804688 473.300781 736.59375 473.300781 L 739.761719 473.300781 C 740.550781 473.300781 741.191406 472.628906 741.191406 471.796875 Z M 734.082031 439.117188 C 734.082031 438.605469 733.667969 438.191406 733.15625 438.191406 L 728.953125 438.191406 C 728.445312 438.191406 728.03125 438.605469 728.03125 439.117188 L 728.03125 439.605469 C 728.03125 440.117188 728.445312 440.527344 728.953125 440.527344 L 733.15625 440.527344 C 733.667969 440.527344 734.082031 440.117188 734.082031 439.605469 Z M 733.429688 445.898438 C 733.429688 444.703125 732.457031 443.730469 731.261719 443.730469 L 729.570312 443.730469 C 728.371094 443.730469 727.402344 444.703125 727.402344 445.898438 L 727.402344 447.910156 C 727.402344 449.105469 728.371094 450.074219 729.570312 450.074219 L 731.261719 450.074219 C 732.457031 450.074219 733.429688 449.105469 733.429688 447.910156 Z M 733.429688 453.640625 C 733.429688 452.445312 732.457031 451.476562 731.261719 451.476562 L 729.570312 451.476562 C 728.371094 451.476562 727.402344 452.445312 727.402344 453.640625 L 727.402344 455.652344 C 727.402344 456.84375 728.371094 457.816406 729.570312 457.816406 L 731.261719 457.816406 C 732.457031 457.816406 733.429688 456.84375 733.429688 455.652344 Z M 733.429688 461.382812 C 733.429688 460.1875 732.457031 459.21875 731.261719 459.21875 L 729.570312 459.21875 C 728.371094 459.21875 727.402344 460.1875 727.402344 461.382812 L 727.402344 463.394531 C 727.402344 464.589844 728.371094 465.558594 729.570312 465.558594 L 731.261719 465.558594 C 732.457031 465.558594 733.429688 464.589844 733.429688 463.394531 Z M 733.429688 469.125 C 733.429688 467.933594 732.457031 466.960938 731.261719 466.960938 L 729.570312 466.960938 C 728.371094 466.960938 727.402344 467.933594 727.402344 469.125 L 727.402344 471.136719 C 727.402344 472.332031 728.371094 473.300781 729.570312 473.300781 L 731.261719 473.300781 C 732.457031 473.300781 733.429688 472.332031 733.429688 471.136719 Z M 723.285156 440.597656 C 723.285156 439.402344 722.316406 438.433594 721.117188 438.433594 L 716.375 438.433594 C 715.179688 438.433594 714.210938 439.402344 714.210938 440.597656 L 714.210938 443.796875 C 714.210938 444.996094 715.179688 445.964844 716.375 445.964844 L 721.117188 445.964844 C 722.316406 445.964844 723.285156 444.996094 723.285156 443.796875 Z M 723.285156 449.792969 C 723.285156 448.59375 722.316406 447.625 721.117188 447.625 L 716.375 447.625 C 715.179688 447.625 714.210938 448.59375 714.210938 449.792969 L 714.210938 452.992188 C 714.210938 454.1875 715.179688 455.15625 716.375 455.15625 L 721.117188 455.15625 C 722.316406 455.15625 723.285156 454.1875 723.285156 452.992188 Z M 723.285156 458.988281 C 723.285156 457.789062 722.316406 456.820312 721.117188 456.820312 L 716.375 456.820312 C 715.179688 456.820312 714.210938 457.789062 714.210938 458.988281 L 714.210938 462.1875 C 714.210938 463.378906 715.179688 464.347656 716.375 464.347656 L 721.117188 464.347656 C 722.316406 464.347656 723.285156 463.378906 723.285156 462.1875 Z M 723.285156 468.179688 C 723.285156 466.984375 722.316406 466.015625 721.117188 466.015625 L 716.375 466.015625 C 715.179688 466.015625 714.210938 466.984375 714.210938 468.179688 L 714.210938 471.382812 C 714.210938 472.574219 715.179688 473.542969 716.375 473.542969 L 721.117188 473.542969 C 722.316406 473.542969 723.285156 472.574219 723.285156 471.382812 Z M 716.230469 428.996094 L 756.414062 428.996094 L 756.414062 417.167969 L 716.230469 417.167969 Z M 763.707031 412.816406 L 763.707031 473.53125 C 763.707031 477 760.894531 479.808594 757.421875 479.808594 L 715.21875 479.808594 C 711.753906 479.808594 708.9375 477 708.9375 473.53125 L 708.9375 412.816406 C 708.9375 409.351562 711.753906 406.542969 715.21875 406.542969 L 757.421875 406.542969 C 760.894531 406.542969 763.707031 409.351562 763.707031 412.816406 Z M 824.46875 543.195312 L 869.859375 543.195312 L 869.859375 526.335938 C 866.097656 527.179688 861.90625 527.804688 857.214844 528.089844 C 842.707031 528.953125 827.949219 540.351562 824.46875 543.195312 Z M 929.507812 500.070312 C 911.488281 498.152344 895.59375 513.144531 890.007812 517.496094 C 887.574219 519.394531 884.183594 521.460938 879.765625 523.265625 L 879.765625 543.195312 L 951.25 543.195312 L 951.25 523.710938 L 935.160156 501.027344 C 933.289062 500.605469 931.40625 500.269531 929.507812 500.070312 Z M 1037.90625 543.089844 C 1038.523438 543.128906 1039.136719 543.167969 1039.742188 543.199219 L 1022.839844 543.207031 L 1022.835938 543.195312 L 973.054688 543.195312 L 973.054688 522.640625 C 979.992188 519.902344 988.570312 516.878906 997.925781 514.378906 C 999.503906 514.042969 1001.09375 513.675781 1002.683594 513.296875 C 1003.542969 519.6875 1004.460938 526.261719 1005.460938 533.0625 C 1006.097656 537.371094 1013.539062 539.917969 1022.480469 541.421875 C 1023.152344 541.535156 1023.835938 541.644531 1024.523438 541.746094 C 1024.546875 541.75 1024.570312 541.753906 1024.59375 541.757812 C 1025.265625 541.855469 1025.949219 541.953125 1026.632812 542.039062 C 1026.675781 542.046875 1026.71875 542.050781 1026.761719 542.058594 C 1027.449219 542.144531 1028.140625 542.226562 1028.835938 542.304688 C 1028.910156 542.3125 1028.984375 542.324219 1029.058594 542.332031 C 1029.722656 542.40625 1030.382812 542.476562 1031.042969 542.542969 C 1031.078125 542.546875 1031.113281 542.550781 1031.152344 542.554688 C 1031.824219 542.621094 1032.496094 542.679688 1033.160156 542.738281 C 1033.292969 542.75 1033.421875 542.761719 1033.550781 542.773438 C 1034.175781 542.824219 1034.804688 542.875 1035.421875 542.917969 C 1035.457031 542.921875 1035.492188 542.925781 1035.527344 542.925781 C 1036.160156 542.976562 1036.789062 543.019531 1037.410156 543.058594 C 1037.578125 543.070312 1037.742188 543.078125 1037.90625 543.089844 " fill-opacity="1" fill-rule="nonzero"/></g></svg>