<svg xmlns="http://www.w3.org/2000/svg" xmlns:xlink="http://www.w3.org/1999/xlink" width="500" zoomAndPan="magnify" viewBox="0 0 375 374.999991" height="500" preserveAspectRatio="xMidYMid meet" version="1.0"><defs><clipPath id="201ca2e45a"><path d="M 0 4.964844 L 369.75 4.964844 L 369.75 374.714844 L 0 374.714844 Z M 0 4.964844 " clip-rule="nonzero"/></clipPath></defs><path fill="#b48e09" d="M 153.390625 147.664062 C 118.847656 167.605469 171.554688 266.414062 209.355469 244.589844 L 244.402344 305.292969 C 228.453125 314.5 214.953125 320.304688 196.464844 309.734375 C 145.125 280.386719 88.613281 182.550781 90.226562 124.1875 C 90.785156 103.917969 102.726562 95.976562 118.347656 86.957031 L 153.394531 147.660156 Z M 153.390625 147.664062 " fill-opacity="1" fill-rule="evenodd"/><path fill="#b48e09" d="M 167.878906 146.011719 C 164.148438 148.167969 159.34375 146.882812 157.191406 143.148438 L 124.148438 85.921875 C 121.996094 82.1875 123.28125 77.386719 127.015625 75.230469 L 144.378906 65.207031 C 148.113281 63.050781 152.914062 64.339844 155.070312 68.070312 L 188.109375 125.296875 C 190.265625 129.027344 188.976562 133.832031 185.246094 135.988281 Z M 167.878906 146.011719 " fill-opacity="1" fill-rule="evenodd"/><path fill="#b48e09" d="M 258.140625 302.351562 C 254.410156 304.507812 249.605469 303.21875 247.453125 299.488281 L 214.410156 242.261719 C 212.257812 238.527344 213.542969 233.722656 217.273438 231.570312 L 234.640625 221.542969 C 238.371094 219.390625 243.175781 220.675781 245.332031 224.410156 L 278.371094 281.636719 C 280.527344 285.367188 279.238281 290.171875 275.507812 292.324219 Z M 258.140625 302.351562 " fill-opacity="1" fill-rule="evenodd"/><g clip-path="url(#201ca2e45a)"><path fill="#b48e09" d="M 184.816406 4.964844 L 184.820312 4.964844 L 184.820312 5.007812 C 235.875 5.007812 282.078125 25.683594 315.496094 59.101562 C 348.914062 92.523438 369.589844 138.722656 369.589844 189.777344 L 369.632812 189.777344 L 369.632812 189.785156 L 369.589844 189.785156 C 369.589844 240.839844 348.914062 287.042969 315.492188 320.460938 C 282.074219 353.878906 235.875 374.554688 184.820312 374.554688 L 184.820312 374.597656 L 184.808594 374.597656 L 184.808594 374.554688 C 133.753906 374.554688 87.550781 353.878906 54.136719 320.457031 C 20.71875 287.039062 0.0429688 240.839844 0.0429688 189.785156 L -0.00390625 189.785156 L -0.00390625 189.777344 L 0.0429688 189.777344 C 0.0429688 138.722656 20.714844 92.519531 54.136719 59.101562 C 87.558594 25.683594 133.757812 5.007812 184.8125 5.007812 L 184.8125 4.964844 Z M 184.820312 27.007812 L 184.820312 27.050781 L 184.8125 27.050781 L 184.8125 27.007812 C 139.914062 27.007812 99.230469 45.242188 69.757812 74.71875 C 40.285156 104.191406 22.046875 144.882812 22.046875 189.777344 L 22.089844 189.777344 L 22.089844 189.785156 L 22.046875 189.785156 C 22.046875 234.683594 40.28125 275.367188 69.757812 304.839844 C 99.230469 334.3125 139.921875 352.550781 184.816406 352.550781 L 184.816406 352.507812 L 184.824219 352.507812 L 184.824219 352.550781 C 229.722656 352.550781 270.40625 334.316406 299.878906 304.839844 C 329.351562 275.367188 347.589844 234.679688 347.589844 189.78125 L 347.546875 189.78125 L 347.546875 189.773438 L 347.589844 189.773438 C 347.589844 144.875 329.355469 104.191406 299.878906 74.71875 C 270.40625 45.246094 229.71875 27.007812 184.820312 27.007812 Z M 184.820312 27.007812 " fill-opacity="1" fill-rule="nonzero"/></g></svg>