<svg xmlns="http://www.w3.org/2000/svg" xmlns:xlink="http://www.w3.org/1999/xlink" width="500" zoomAndPan="magnify" viewBox="0 0 375 374.999991" height="500" preserveAspectRatio="xMidYMid meet" version="1.0"><defs><clipPath id="9cf5dbf7ed"><path d="M 0 40 L 375 40 L 375 335.386719 L 0 335.386719 Z M 0 40 " clip-rule="nonzero"/></clipPath></defs><path fill="#b48e09" d="M 143.199219 203.445312 C 149.007812 208.535156 155.910156 212.535156 164.625 215.441406 C 172.976562 218.347656 182.417969 219.441406 192.945312 219.441406 C 199.847656 219.441406 206.382812 218.714844 212.191406 217.621094 C 218.003906 216.53125 223.449219 214.351562 228.167969 212.171875 C 232.890625 209.625 237.246094 206.71875 240.515625 203.082031 C 244.148438 199.449219 247.050781 195.449219 249.230469 190.726562 L 235.433594 190.726562 C 231.800781 195.449219 227.082031 199.085938 221.632812 201.992188 C 216.1875 204.539062 209.289062 206.355469 201.660156 207.445312 C 191.859375 208.535156 182.78125 208.171875 174.789062 206.355469 C 166.800781 204.539062 160.265625 201.628906 154.457031 197.632812 C 149.007812 193.632812 144.652344 188.546875 141.746094 182.367188 C 138.839844 176.1875 137.390625 169.644531 137.390625 162.375 C 137.390625 156.921875 138.117188 151.472656 139.566406 146.019531 C 141.019531 140.566406 142.835938 135.84375 145.378906 131.480469 C 148.28125 126.390625 151.914062 122.394531 156.269531 118.757812 C 160.628906 115.488281 165.710938 112.945312 171.523438 111.125 C 177.332031 109.308594 183.867188 108.582031 190.769531 108.582031 C 197.667969 108.582031 203.839844 109.671875 209.289062 111.488281 C 214.734375 113.308594 219.089844 115.851562 222.722656 119.121094 C 226.355469 122.394531 229.257812 126.390625 231.074219 130.753906 C 232.890625 135.113281 233.980469 140.203125 233.980469 145.292969 C 233.980469 151.472656 232.527344 157.285156 229.984375 162.375 C 227.445312 167.464844 224.175781 171.824219 220.542969 174.734375 C 216.914062 177.640625 214.007812 179.09375 211.464844 179.09375 C 210.738281 179.09375 210.375 178.730469 209.652344 178.367188 C 209.289062 177.640625 208.925781 176.914062 208.925781 176.1875 C 208.925781 175.097656 209.289062 173.28125 209.652344 170.371094 L 219.453125 124.210938 L 202.386719 124.210938 L 200.9375 131.480469 C 197.304688 125.664062 191.859375 122.757812 183.867188 122.757812 C 177.332031 122.757812 171.160156 124.9375 165.710938 128.9375 C 160.265625 132.933594 156.269531 138.386719 153.367188 144.929688 C 150.460938 151.472656 149.007812 158.011719 149.007812 164.917969 C 149.007812 171.460938 150.460938 176.914062 153.367188 181.277344 C 156.269531 185.636719 159.902344 188.910156 164.261719 190.726562 C 168.617188 192.542969 173.339844 192.90625 178.421875 192.179688 C 183.140625 191.089844 187.5 188.910156 191.132812 185.273438 C 191.859375 187.816406 192.945312 189.636719 195.125 190.726562 C 196.941406 191.816406 199.847656 192.542969 203.113281 192.542969 C 208.925781 192.542969 214.734375 191.453125 219.816406 188.910156 C 224.902344 186.363281 229.621094 182.730469 233.253906 178.367188 C 237.246094 174.007812 240.152344 168.917969 241.96875 163.464844 C 244.148438 158.011719 244.875 152.199219 244.875 146.746094 C 244.875 139.476562 243.785156 132.570312 241.242188 126.753906 C 238.699219 120.578125 235.070312 115.488281 230.347656 111.125 C 225.628906 106.765625 219.816406 103.128906 212.917969 100.949219 C 206.019531 98.40625 198.757812 97.3125 190.769531 97.3125 C 180.964844 97.3125 171.886719 99.132812 163.535156 102.402344 C 155.183594 105.675781 148.28125 110.398438 142.472656 116.214844 C 136.664062 122.03125 132.304688 128.9375 129.398438 136.933594 C 126.496094 144.929688 124.679688 153.289062 124.679688 162.375 C 124.679688 171.097656 126.132812 179.09375 129.039062 186.363281 C 133.03125 192.179688 137.390625 198.359375 143.199219 203.445312 Z M 195.488281 163.101562 C 194.035156 167.828125 191.496094 172.1875 188.589844 175.097656 C 185.683594 178.367188 182.054688 179.820312 178.058594 179.820312 C 174.425781 179.820312 171.886719 178.367188 169.707031 175.824219 C 167.527344 172.914062 166.4375 169.28125 166.4375 164.191406 C 166.4375 159.105469 167.164062 154.378906 168.980469 149.652344 C 170.796875 144.929688 172.976562 141.292969 175.878906 138.386719 C 178.785156 135.480469 182.417969 134.023438 186.046875 134.023438 C 187.863281 134.023438 189.679688 134.386719 191.132812 135.113281 C 192.582031 135.84375 194.035156 136.933594 194.761719 138.386719 C 195.851562 139.839844 196.578125 141.292969 197.304688 143.113281 C 197.667969 144.929688 198.03125 147.109375 198.03125 149.289062 C 198.03125 153.652344 197.304688 158.378906 195.488281 163.101562 Z M 195.488281 163.101562 " fill-opacity="1" fill-rule="nonzero"/><g clip-path="url(#9cf5dbf7ed)"><path fill="#b48e09" d="M 340.375 124.574219 C 337.46875 123.121094 334.929688 121.667969 332.386719 120.214844 L 190.40625 40.976562 C 188.953125 39.886719 186.773438 39.886719 184.957031 40.976562 L 42.613281 120.214844 C 40.070312 121.667969 37.53125 123.121094 34.625 124.574219 C 16.832031 134.023438 0.492188 142.382812 0.492188 164.191406 L 0.492188 290.679688 C 0.492188 303.039062 5.574219 314.304688 13.5625 322.300781 C 21.554688 330.296875 32.808594 335.386719 45.15625 335.386719 L 329.84375 335.386719 C 342.191406 335.386719 353.445312 330.296875 361.4375 322.300781 C 369.425781 314.304688 374.507812 303.039062 374.507812 290.679688 L 374.507812 164.191406 C 374.507812 142.382812 358.167969 133.660156 340.375 124.574219 Z M 39.710938 134.023438 C 42.25 132.570312 44.792969 131.480469 47.699219 129.664062 L 187.5 52.246094 L 326.9375 129.664062 C 329.84375 131.117188 332.386719 132.570312 334.929688 134.023438 C 348.726562 141.292969 361.4375 147.835938 362.886719 160.921875 L 259.035156 222.710938 L 187.5 264.875 L 115.964844 222.710938 L 11.75 161.285156 C 13.5625 148.199219 26.273438 141.292969 39.710938 134.023438 Z M 11.75 174.007812 L 102.527344 227.4375 L 11.75 280.867188 Z M 353.445312 314.304688 C 347.273438 320.484375 338.921875 324.117188 329.84375 324.117188 L 45.15625 324.117188 C 36.078125 324.117188 27.363281 320.484375 21.554688 314.304688 C 16.105469 308.851562 12.476562 301.582031 11.75 293.585938 L 113.421875 233.613281 L 184.957031 275.777344 C 186.773438 276.867188 188.953125 276.867188 190.769531 275.777344 L 262.304688 233.613281 L 363.976562 293.585938 C 362.523438 301.582031 358.894531 308.851562 353.445312 314.304688 Z M 363.25 280.867188 L 272.46875 227.4375 L 363.25 174.007812 Z M 363.25 280.867188 " fill-opacity="1" fill-rule="nonzero"/></g></svg>