<?xml version="1.0" standalone="no"?>
<!DOCTYPE svg PUBLIC "-//W3C//DTD SVG 20010904//EN"
 "http://www.w3.org/TR/2001/REC-SVG-20010904/DTD/svg10.dtd">
<svg version="1.0" xmlns="http://www.w3.org/2000/svg"
 width="879.000000pt" height="879.000000pt" viewBox="0 0 879.000000 879.000000"
 preserveAspectRatio="xMidYMid meet">
<metadata>
Created by potrace 1.14, written by Peter Selinger 2001-2017
</metadata>
<g transform="translate(0.000000,879.000000) scale(0.100000,-0.100000)"
fill="#000000" stroke="none">
<path d="M4419 7858 c-7 -13 -73 -122 -147 -243 -74 -121 -142 -232 -151 -247
-9 -15 -72 -119 -140 -230 -68 -112 -205 -336 -304 -498 -99 -162 -223 -365
-275 -450 -53 -85 -132 -215 -176 -288 -45 -73 -119 -195 -166 -272 -47 -76
-125 -206 -175 -287 -49 -81 -97 -159 -106 -173 -9 -14 -104 -169 -211 -345
-164 -269 -227 -372 -309 -505 -67 -109 -246 -402 -259 -425 -32 -56 -212
-350 -230 -375 -9 -14 -20 -32 -24 -40 -7 -16 -22 -41 -48 -80 -8 -14 -80
-131 -158 -260 -79 -129 -159 -262 -180 -295 -41 -66 -465 -758 -483 -790 -7
-11 -26 -42 -43 -70 -17 -27 -71 -115 -119 -195 -49 -80 -143 -234 -209 -343
-172 -281 -162 -263 -137 -246 27 18 292 197 656 443 160 108 297 200 305 206
8 6 119 80 245 165 127 85 235 158 240 162 6 5 57 40 115 78 58 39 107 72 110
75 3 3 64 44 135 92 72 47 249 167 395 265 146 98 398 268 560 378 162 109
363 244 445 300 83 56 242 164 355 240 113 76 286 193 385 260 99 67 306 206
460 310 154 103 328 221 388 262 59 41 107 71 107 68 0 -4 -9 -19 -21 -33 -11
-15 -109 -147 -217 -293 -108 -147 -246 -334 -307 -415 -203 -275 -657 -888
-740 -999 -45 -60 -126 -171 -181 -245 -55 -74 -168 -225 -249 -335 -82 -110
-165 -222 -184 -250 -19 -27 -37 -52 -40 -55 -4 -3 -51 -66 -106 -140 -233
-316 -330 -448 -372 -503 l-44 -57 2865 0 2865 0 -145 236 c-79 129 -144 237
-144 239 0 2 -17 30 -38 62 -21 32 -74 117 -116 188 -43 72 -95 157 -116 190
-21 33 -145 236 -275 450 -221 363 -384 630 -510 835 -28 47 -116 191 -195
320 -78 129 -153 251 -165 270 -28 44 -156 252 -173 283 -7 12 -59 97 -115
189 -56 92 -154 252 -217 355 -63 103 -119 196 -125 205 -5 10 -73 120 -150
245 -77 125 -142 232 -144 238 -2 5 -16 28 -31 50 -15 22 -36 56 -47 75 -21
37 -188 311 -253 415 -48 78 -224 364 -385 630 -70 116 -134 221 -143 235 -9
14 -22 34 -28 45 -6 11 -73 121 -149 245 -133 217 -321 524 -393 643 -19 31
-39 57 -43 57 -5 0 -14 -10 -20 -22z"/>
</g>
</svg>
